<ttFont>
    <TTGlyph name="A" xMin="8" yMin="-8" xMax="723" yMax="1432">
      <contour>
        <pt x="475" y="-8" on="1"/>
        <pt x="470" y="61" on="0"/>
        <pt x="461" y="201" on="0"/>
        <pt x="455" y="272" on="1"/>
        <pt x="411" y="275" on="0"/>
        <pt x="329" y="281" on="0"/>
        <pt x="287" y="281" on="1"/>
        <pt x="274" y="281" on="1"/>
        <pt x="269" y="209" on="0"/>
        <pt x="261" y="69" on="0"/>
        <pt x="258" y="0" on="1"/>
        <pt x="8" y="4" on="1"/>
        <pt x="70" y="361" on="0"/>
        <pt x="170" y="1071" on="0"/>
        <pt x="205" y="1432" on="1"/>
        <pt x="506" y="1427" on="1"/>
        <pt x="544" y="1070" on="0"/>
        <pt x="651" y="365" on="0"/>
        <pt x="723" y="8" on="1"/>
      </contour>
      <contour>
        <pt x="358" y="1180" on="1"/>
        <pt x="338" y="996" on="0"/>
        <pt x="302" y="630" on="0"/>
        <pt x="287" y="444" on="1"/>
        <pt x="308" y="442" on="0"/>
        <pt x="352" y="442" on="0"/>
        <pt x="375" y="442" on="1"/>
        <pt x="440" y="442" on="1"/>
        <pt x="423" y="628" on="0"/>
        <pt x="381" y="994" on="0"/>
      </contour>
    </TTGlyph>
    <TTGlyph name="AE" xMin="-14" yMin="-8" xMax="977" yMax="1440">
      <contour>
        <pt x="977" y="-2" on="1"/>
        <pt x="921" y="0" on="0"/>
        <pt x="817" y="2" on="0"/>
        <pt x="764" y="2" on="1"/>
        <pt x="687" y="2" on="0"/>
        <pt x="534" y="-3" on="0"/>
        <pt x="453" y="-8" on="1"/>
        <pt x="465" y="272" on="1"/>
        <pt x="422" y="275" on="0"/>
        <pt x="337" y="281" on="0"/>
        <pt x="295" y="281" on="1"/>
        <pt x="283" y="281" on="1"/>
        <pt x="233" y="0" on="1"/>
        <pt x="-14" y="4" on="1"/>
        <pt x="89" y="361" on="0"/>
        <pt x="274" y="1071" on="0"/>
        <pt x="352" y="1432" on="1"/>
        <pt x="398" y="1430" on="0"/>
        <pt x="448" y="1429" on="1"/>
        <pt x="491" y="1428" on="0"/>
        <pt x="597" y="1427" on="0"/>
        <pt x="651" y="1427" on="1"/>
        <pt x="695" y="1427" on="0"/>
        <pt x="773" y="1429" on="0"/>
        <pt x="847" y="1432" on="0"/>
        <pt x="920" y="1437" on="0"/>
        <pt x="958" y="1440" on="1"/>
        <pt x="958" y="1210" on="1"/>
        <pt x="834" y="1233" on="0"/>
        <pt x="715" y="1233" on="1"/>
        <pt x="676" y="1233" on="1"/>
        <pt x="667" y="1108" on="0"/>
        <pt x="659" y="860" on="0"/>
        <pt x="657" y="735" on="1"/>
        <pt x="683" y="733" on="0"/>
        <pt x="736" y="733" on="0"/>
        <pt x="764" y="733" on="1"/>
        <pt x="787" y="733" on="0"/>
        <pt x="835" y="733" on="0"/>
        <pt x="860" y="735" on="1"/>
        <pt x="860" y="535" on="1"/>
        <pt x="829" y="537" on="0"/>
        <pt x="765" y="539" on="0"/>
        <pt x="733" y="539" on="1"/>
        <pt x="715" y="539" on="0"/>
        <pt x="676" y="537" on="0"/>
        <pt x="657" y="537" on="1"/>
        <pt x="653" y="180" on="1"/>
        <pt x="735" y="182" on="0"/>
        <pt x="890" y="194" on="0"/>
        <pt x="977" y="207" on="1"/>
      </contour>
      <contour>
        <pt x="467" y="1139" on="1"/>
        <pt x="427" y="964" on="0"/>
        <pt x="349" y="619" on="0"/>
        <pt x="315" y="444" on="1"/>
        <pt x="337" y="442" on="0"/>
        <pt x="380" y="442" on="0"/>
        <pt x="403" y="442" on="1"/>
        <pt x="469" y="442" on="1"/>
        <pt x="471" y="515" on="0"/>
        <pt x="473" y="657" on="0"/>
        <pt x="473" y="729" on="1"/>
        <pt x="473" y="932" on="0"/>
      </contour>
    </TTGlyph>
    <TTGlyph name="AEacute" xMin="-14" yMin="-8" xMax="977" yMax="1892">
      <component glyphName="AE" x="0" y="0" flags="0x204"/>
      <component glyphName="acute" x="479" y="297" flags="0x4"/>
    </TTGlyph>
    <TTGlyph name="Aacute" xMin="8" yMin="-8" xMax="723" yMax="1896">
      <component glyphName="A" x="0" y="0" flags="0x204"/>
      <component glyphName="acute" x="307" y="301" flags="0x4"/>
    </TTGlyph>
    <TTGlyph name="Abreve" xMin="8" yMin="-8" xMax="723" yMax="1847">
      <component glyphName="A" x="0" y="0" flags="0x204"/>
      <component glyphName="breve" x="141" y="317" flags="0x4"/>
    </TTGlyph>
    <TTGlyph name="Acircumflex" xMin="8" yMin="-8" xMax="723" yMax="1874">
      <component glyphName="A" x="0" y="0" flags="0x204"/>
      <component glyphName="circumflex" x="139" y="293" flags="0x4"/>
    </TTGlyph>
    <TTGlyph name="Adieresis" xMin="8" yMin="-8" xMax="723" yMax="1688">
      <component glyphName="A" x="0" y="0" flags="0x204"/>
      <component glyphName="dieresis" x="123" y="287" flags="0x4"/>
    </TTGlyph>
    <TTGlyph name="Agrave" xMin="8" yMin="-8" xMax="723" yMax="1896">
      <component glyphName="A" x="0" y="0" flags="0x204"/>
      <component glyphName="grave" x="23" y="301" flags="0x4"/>
    </TTGlyph>
    <TTGlyph name="Amacron" xMin="8" yMin="-8" xMax="723" yMax="1679">
      <component glyphName="A" x="0" y="0" flags="0x204"/>
      <component glyphName="macron" x="125" y="268" flags="0x4"/>
    </TTGlyph>
    <TTGlyph name="Aogonek" xMin="8" yMin="-354" xMax="748" yMax="1432">
      <contour>
        <pt x="748" y="-260" on="1"/>
        <pt x="700" y="-307" on="0"/>
        <pt x="614" y="-354" on="0"/>
        <pt x="561" y="-354" on="1"/>
        <pt x="531" y="-354" on="0"/>
        <pt x="481" y="-330" on="0"/>
        <pt x="446" y="-290" on="0"/>
        <pt x="426" y="-238" on="0"/>
        <pt x="426" y="-209" on="1"/>
        <pt x="426" y="-191" on="0"/>
        <pt x="434" y="-147" on="0"/>
        <pt x="455" y="-94" on="0"/>
        <pt x="493" y="-36" on="0"/>
        <pt x="522" y="-4" on="1"/>
        <pt x="475" y="-8" on="1"/>
        <pt x="470" y="61" on="0"/>
        <pt x="461" y="201" on="0"/>
        <pt x="455" y="272" on="1"/>
        <pt x="411" y="275" on="0"/>
        <pt x="329" y="281" on="0"/>
        <pt x="287" y="281" on="1"/>
        <pt x="274" y="281" on="1"/>
        <pt x="269" y="209" on="0"/>
        <pt x="261" y="69" on="0"/>
        <pt x="258" y="0" on="1"/>
        <pt x="8" y="4" on="1"/>
        <pt x="70" y="361" on="0"/>
        <pt x="170" y="1071" on="0"/>
        <pt x="205" y="1432" on="1"/>
        <pt x="506" y="1427" on="1"/>
        <pt x="544" y="1070" on="0"/>
        <pt x="651" y="365" on="0"/>
        <pt x="723" y="8" on="1"/>
        <pt x="635" y="2" on="1"/>
        <pt x="621" y="-14" on="0"/>
        <pt x="588" y="-56" on="0"/>
        <pt x="560" y="-104" on="0"/>
        <pt x="541" y="-156" on="0"/>
        <pt x="541" y="-182" on="1"/>
        <pt x="541" y="-199" on="0"/>
        <pt x="562" y="-217" on="0"/>
        <pt x="578" y="-217" on="1"/>
        <pt x="607" y="-217" on="0"/>
        <pt x="649" y="-177" on="0"/>
        <pt x="668" y="-156" on="1"/>
      </contour>
      <contour>
        <pt x="358" y="1180" on="1"/>
        <pt x="338" y="996" on="0"/>
        <pt x="302" y="630" on="0"/>
        <pt x="287" y="444" on="1"/>
        <pt x="308" y="442" on="0"/>
        <pt x="352" y="442" on="0"/>
        <pt x="375" y="442" on="1"/>
        <pt x="440" y="442" on="1"/>
        <pt x="423" y="628" on="0"/>
        <pt x="381" y="994" on="0"/>
      </contour>
    </TTGlyph>
    <TTGlyph name="Aring" xMin="8" yMin="-8" xMax="723" yMax="1702">
      <contour>
        <pt x="557" y="1509" on="1"/>
        <pt x="557" y="1474" on="0"/>
        <pt x="532" y="1413" on="0"/>
        <pt x="510" y="1389" on="1"/>
        <pt x="548" y="1041" on="0"/>
        <pt x="652" y="354" on="0"/>
        <pt x="723" y="8" on="1"/>
        <pt x="475" y="-8" on="1"/>
        <pt x="470" y="61" on="0"/>
        <pt x="461" y="201" on="0"/>
        <pt x="455" y="272" on="1"/>
        <pt x="411" y="275" on="0"/>
        <pt x="329" y="281" on="0"/>
        <pt x="287" y="281" on="1"/>
        <pt x="274" y="281" on="1"/>
        <pt x="269" y="209" on="0"/>
        <pt x="261" y="69" on="0"/>
        <pt x="258" y="0" on="1"/>
        <pt x="8" y="4" on="1"/>
        <pt x="68" y="355" on="0"/>
        <pt x="168" y="1054" on="0"/>
        <pt x="203" y="1409" on="1"/>
        <pt x="187" y="1431" on="0"/>
        <pt x="172" y="1482" on="0"/>
        <pt x="172" y="1509" on="1"/>
        <pt x="172" y="1549" on="0"/>
        <pt x="203" y="1619" on="0"/>
        <pt x="256" y="1672" on="0"/>
        <pt x="326" y="1702" on="0"/>
        <pt x="365" y="1702" on="1"/>
        <pt x="403" y="1702" on="0"/>
        <pt x="473" y="1672" on="0"/>
        <pt x="526" y="1619" on="0"/>
        <pt x="557" y="1549" on="0"/>
      </contour>
      <contour>
        <pt x="358" y="1180" on="1"/>
        <pt x="338" y="996" on="0"/>
        <pt x="302" y="630" on="0"/>
        <pt x="287" y="444" on="1"/>
        <pt x="308" y="442" on="0"/>
        <pt x="352" y="442" on="0"/>
        <pt x="375" y="442" on="1"/>
        <pt x="440" y="442" on="1"/>
        <pt x="423" y="628" on="0"/>
        <pt x="381" y="994" on="0"/>
      </contour>
      <contour>
        <pt x="436" y="1509" on="1"/>
        <pt x="436" y="1540" on="0"/>
        <pt x="393" y="1581" on="0"/>
        <pt x="362" y="1581" on="1"/>
        <pt x="335" y="1581" on="0"/>
        <pt x="291" y="1540" on="0"/>
        <pt x="291" y="1509" on="1"/>
        <pt x="291" y="1495" on="0"/>
        <pt x="303" y="1471" on="0"/>
        <pt x="323" y="1451" on="0"/>
        <pt x="348" y="1440" on="0"/>
        <pt x="362" y="1440" on="1"/>
        <pt x="393" y="1440" on="0"/>
        <pt x="436" y="1482" on="0"/>
      </contour>
    </TTGlyph>
    <TTGlyph name="Atilde" xMin="8" yMin="-8" xMax="723" yMax="1770">
      <component glyphName="A" x="0" y="0" flags="0x204"/>
      <component glyphName="tilde" x="70" y="283" flags="0x4"/>
    </TTGlyph>
    <TTGlyph name="B" xMin="45" yMin="-31" xMax="688" yMax="1440">
      <contour>
        <pt x="688" y="1040" on="1"/>
        <pt x="688" y="978" on="0"/>
        <pt x="661" y="846" on="0"/>
        <pt x="604" y="724" on="0"/>
        <pt x="516" y="622" on="0"/>
        <pt x="455" y="590" on="1"/>
        <pt x="514" y="564" on="0"/>
        <pt x="583" y="486" on="0"/>
        <pt x="619" y="403" on="0"/>
        <pt x="629" y="328" on="0"/>
        <pt x="629" y="305" on="1"/>
        <pt x="629" y="229" on="0"/>
        <pt x="584" y="120" on="0"/>
        <pt x="514" y="45" on="0"/>
        <pt x="427" y="0" on="0"/>
        <pt x="342" y="-24" on="0"/>
        <pt x="268" y="-31" on="0"/>
        <pt x="246" y="-31" on="1"/>
        <pt x="218" y="-30" on="0"/>
        <pt x="189" y="-26" on="1"/>
        <pt x="164" y="-22" on="0"/>
        <pt x="107" y="-7" on="0"/>
        <pt x="84" y="8" on="1"/>
        <pt x="90" y="198" on="0"/>
        <pt x="90" y="387" on="1"/>
        <pt x="90" y="644" on="0"/>
        <pt x="67" y="1146" on="0"/>
        <pt x="45" y="1401" on="1"/>
        <pt x="91" y="1415" on="0"/>
        <pt x="182" y="1431" on="0"/>
        <pt x="219" y="1435" on="1"/>
        <pt x="262" y="1439" on="0"/>
        <pt x="301" y="1440" on="1"/>
        <pt x="332" y="1440" on="0"/>
        <pt x="413" y="1425" on="0"/>
        <pt x="499" y="1388" on="0"/>
        <pt x="582" y="1329" on="0"/>
        <pt x="648" y="1240" on="0"/>
        <pt x="688" y="1119" on="0"/>
      </contour>
      <contour>
        <pt x="494" y="995" on="1"/>
        <pt x="494" y="994" on="0"/>
        <pt x="494" y="1031" on="0"/>
        <pt x="485" y="1088" on="0"/>
        <pt x="464" y="1156" on="0"/>
        <pt x="422" y="1216" on="0"/>
        <pt x="355" y="1261" on="0"/>
        <pt x="305" y="1266" on="1"/>
        <pt x="299" y="1101" on="0"/>
        <pt x="288" y="773" on="0"/>
        <pt x="285" y="608" on="1"/>
        <pt x="321" y="621" on="0"/>
        <pt x="378" y="669" on="0"/>
        <pt x="421" y="728" on="0"/>
        <pt x="451" y="795" on="0"/>
        <pt x="462" y="828" on="1"/>
        <pt x="487" y="905" on="0"/>
      </contour>
      <contour>
        <pt x="438" y="332" on="1"/>
        <pt x="436" y="381" on="0"/>
        <pt x="418" y="421" on="1"/>
        <pt x="410" y="438" on="0"/>
        <pt x="388" y="473" on="0"/>
        <pt x="355" y="502" on="0"/>
        <pt x="311" y="523" on="0"/>
        <pt x="283" y="528" on="1"/>
        <pt x="280" y="423" on="0"/>
        <pt x="276" y="216" on="0"/>
        <pt x="276" y="111" on="1"/>
        <pt x="306" y="122" on="0"/>
        <pt x="352" y="153" on="0"/>
        <pt x="386" y="188" on="0"/>
        <pt x="409" y="226" on="0"/>
        <pt x="417" y="244" on="1"/>
        <pt x="435" y="286" on="0"/>
      </contour>
    </TTGlyph>
    <TTGlyph name="C" xMin="39" yMin="-23" xMax="629" yMax="1456">
      <contour>
        <pt x="629" y="25" on="1"/>
        <pt x="590" y="7" on="0"/>
        <pt x="514" y="-12" on="0"/>
        <pt x="484" y="-17" on="1"/>
        <pt x="449" y="-22" on="0"/>
        <pt x="416" y="-23" on="1"/>
        <pt x="380" y="-23" on="0"/>
        <pt x="297" y="3" on="0"/>
        <pt x="213" y="66" on="0"/>
        <pt x="135" y="175" on="0"/>
        <pt x="75" y="340" on="0"/>
        <pt x="39" y="570" on="0"/>
        <pt x="39" y="723" on="1"/>
        <pt x="39" y="876" on="0"/>
        <pt x="82" y="1104" on="0"/>
        <pt x="151" y="1267" on="0"/>
        <pt x="238" y="1372" on="0"/>
        <pt x="328" y="1433" on="0"/>
        <pt x="413" y="1456" on="0"/>
        <pt x="444" y="1456" on="1"/>
        <pt x="473" y="1455" on="0"/>
        <pt x="501" y="1450" on="1"/>
        <pt x="525" y="1445" on="0"/>
        <pt x="578" y="1425" on="0"/>
        <pt x="598" y="1407" on="1"/>
        <pt x="578" y="1206" on="1"/>
        <pt x="550" y="1220" on="0"/>
        <pt x="501" y="1233" on="0"/>
        <pt x="479" y="1233" on="1"/>
        <pt x="437" y="1233" on="0"/>
        <pt x="372" y="1188" on="0"/>
        <pt x="325" y="1114" on="0"/>
        <pt x="292" y="1020" on="0"/>
        <pt x="282" y="971" on="1"/>
        <pt x="257" y="856" on="0"/>
        <pt x="254" y="709" on="1"/>
        <pt x="257" y="563" on="0"/>
        <pt x="283" y="449" on="1"/>
        <pt x="294" y="400" on="0"/>
        <pt x="327" y="307" on="0"/>
        <pt x="375" y="234" on="0"/>
        <pt x="440" y="190" on="0"/>
        <pt x="483" y="190" on="1"/>
        <pt x="530" y="190" on="0"/>
        <pt x="592" y="223" on="1"/>
      </contour>
    </TTGlyph>
    <TTGlyph name="Cacute" xMin="39" yMin="-23" xMax="694" yMax="1912">
      <component glyphName="C" x="0" y="0" flags="0x204"/>
      <component glyphName="acute" x="336" y="317" flags="0x4"/>
    </TTGlyph>
    <TTGlyph name="Ccaron" xMin="39" yMin="-23" xMax="629" yMax="1898">
      <component glyphName="C" x="0" y="0" flags="0x204"/>
      <component glyphName="caron" x="133" y="317" flags="0x4"/>
    </TTGlyph>
    <TTGlyph name="Ccedilla" xMin="39" yMin="-361" xMax="629" yMax="1456">
      <contour>
        <pt x="467" y="-213" on="1"/>
        <pt x="467" y="-243" on="0"/>
        <pt x="445" y="-292" on="0"/>
        <pt x="407" y="-329" on="0"/>
        <pt x="356" y="-352" on="0"/>
        <pt x="328" y="-356" on="1"/>
        <pt x="298" y="-361" on="0"/>
        <pt x="251" y="-358" on="0"/>
        <pt x="234" y="-353" on="1"/>
        <pt x="215" y="-348" on="0"/>
        <pt x="201" y="-340" on="1"/>
        <pt x="201" y="-229" on="1"/>
        <pt x="205" y="-234" on="0"/>
        <pt x="226" y="-242" on="0"/>
        <pt x="250" y="-247" on="0"/>
        <pt x="274" y="-250" on="0"/>
        <pt x="281" y="-250" on="1"/>
        <pt x="304" y="-250" on="0"/>
        <pt x="338" y="-233" on="0"/>
        <pt x="338" y="-205" on="1"/>
        <pt x="338" y="-192" on="0"/>
        <pt x="325" y="-174" on="0"/>
        <pt x="305" y="-163" on="0"/>
        <pt x="281" y="-158" on="0"/>
        <pt x="270" y="-158" on="1"/>
        <pt x="256" y="-158" on="0"/>
        <pt x="227" y="-161" on="0"/>
        <pt x="213" y="-166" on="1"/>
        <pt x="283" y="16" on="1"/>
        <pt x="238" y="43" on="0"/>
        <pt x="150" y="146" on="0"/>
        <pt x="81" y="315" on="0"/>
        <pt x="39" y="557" on="0"/>
        <pt x="39" y="723" on="1"/>
        <pt x="39" y="876" on="0"/>
        <pt x="82" y="1104" on="0"/>
        <pt x="151" y="1267" on="0"/>
        <pt x="238" y="1372" on="0"/>
        <pt x="328" y="1433" on="0"/>
        <pt x="413" y="1456" on="0"/>
        <pt x="444" y="1456" on="1"/>
        <pt x="473" y="1455" on="0"/>
        <pt x="501" y="1450" on="1"/>
        <pt x="525" y="1445" on="0"/>
        <pt x="578" y="1425" on="0"/>
        <pt x="598" y="1407" on="1"/>
        <pt x="578" y="1206" on="1"/>
        <pt x="550" y="1220" on="0"/>
        <pt x="501" y="1233" on="0"/>
        <pt x="479" y="1233" on="1"/>
        <pt x="437" y="1233" on="0"/>
        <pt x="372" y="1188" on="0"/>
        <pt x="325" y="1114" on="0"/>
        <pt x="292" y="1020" on="0"/>
        <pt x="282" y="971" on="1"/>
        <pt x="257" y="856" on="0"/>
        <pt x="254" y="709" on="1"/>
        <pt x="257" y="563" on="0"/>
        <pt x="283" y="449" on="1"/>
        <pt x="294" y="400" on="0"/>
        <pt x="327" y="307" on="0"/>
        <pt x="375" y="234" on="0"/>
        <pt x="440" y="190" on="0"/>
        <pt x="483" y="190" on="1"/>
        <pt x="530" y="190" on="0"/>
        <pt x="592" y="223" on="1"/>
        <pt x="629" y="25" on="1"/>
        <pt x="590" y="7" on="0"/>
        <pt x="514" y="-12" on="0"/>
        <pt x="484" y="-17" on="1"/>
        <pt x="449" y="-22" on="0"/>
        <pt x="416" y="-23" on="1"/>
        <pt x="400" y="-23" on="0"/>
        <pt x="369" y="-17" on="0"/>
        <pt x="352" y="-12" on="1"/>
        <pt x="336" y="-82" on="1"/>
        <pt x="365" y="-81" on="0"/>
        <pt x="413" y="-100" on="0"/>
        <pt x="448" y="-135" on="0"/>
        <pt x="467" y="-184" on="0"/>
      </contour>
    </TTGlyph>
    <TTGlyph name="Ccircumflex" xMin="39" yMin="-23" xMax="629" yMax="1898">
      <component glyphName="C" x="0" y="0" flags="0x204"/>
      <component glyphName="circumflex" x="129" y="317" flags="0x4"/>
    </TTGlyph>
    <TTGlyph name="Cdotaccent" xMin="39" yMin="-23" xMax="629" yMax="1718">
      <component glyphName="C" x="0" y="0" flags="0x204"/>
      <component glyphName="dotaccent" x="260" y="317" flags="0x4"/>
    </TTGlyph>
    <TTGlyph name="D" xMin="59" yMin="-29" xMax="696" yMax="1446">
      <contour>
        <pt x="696" y="680" on="1"/>
        <pt x="696" y="525" on="0"/>
        <pt x="651" y="300" on="0"/>
        <pt x="577" y="142" on="0"/>
        <pt x="484" y="44" on="0"/>
        <pt x="388" y="-10" on="0"/>
        <pt x="298" y="-29" on="0"/>
        <pt x="264" y="-29" on="1"/>
        <pt x="59" y="-12" on="1"/>
        <pt x="72" y="192" on="0"/>
        <pt x="86" y="605" on="0"/>
        <pt x="86" y="815" on="1"/>
        <pt x="86" y="974" on="0"/>
        <pt x="78" y="1286" on="0"/>
        <pt x="70" y="1442" on="1"/>
        <pt x="94" y="1444" on="0"/>
        <pt x="140" y="1446" on="0"/>
        <pt x="162" y="1446" on="1"/>
        <pt x="328" y="1446" on="0"/>
        <pt x="536" y="1333" on="0"/>
        <pt x="653" y="1130" on="0"/>
        <pt x="696" y="849" on="0"/>
      </contour>
      <contour>
        <pt x="492" y="707" on="1"/>
        <pt x="492" y="756" on="0"/>
        <pt x="488" y="867" on="0"/>
        <pt x="475" y="977" on="0"/>
        <pt x="449" y="1081" on="0"/>
        <pt x="407" y="1168" on="0"/>
        <pt x="346" y="1230" on="0"/>
        <pt x="303" y="1243" on="1"/>
        <pt x="297" y="1133" on="0"/>
        <pt x="288" y="924" on="0"/>
        <pt x="282" y="720" on="0"/>
        <pt x="279" y="519" on="0"/>
        <pt x="279" y="418" on="1"/>
        <pt x="279" y="352" on="0"/>
        <pt x="279" y="217" on="0"/>
        <pt x="281" y="147" on="1"/>
        <pt x="327" y="152" on="0"/>
        <pt x="395" y="212" on="0"/>
        <pt x="442" y="303" on="0"/>
        <pt x="471" y="418" on="0"/>
        <pt x="487" y="539" on="0"/>
        <pt x="492" y="657" on="0"/>
      </contour>
    </TTGlyph>
    <TTGlyph name="Dcaron" xMin="59" yMin="-29" xMax="696" yMax="1898">
      <component glyphName="D" x="0" y="0" flags="0x204"/>
      <component glyphName="caron" x="102" y="317" flags="0x4"/>
    </TTGlyph>
    <TTGlyph name="Dcroat" xMin="2" yMin="-29" xMax="721" yMax="1449">
      <component glyphName="Eth" x="0" y="0" flags="0x204"/>
    </TTGlyph>
    <TTGlyph name="Delta" xMin="25" yMin="4" xMax="739" yMax="1432">
      <contour>
        <pt x="25" y="4" on="1"/>
        <pt x="86" y="361" on="0"/>
        <pt x="186" y="1071" on="0"/>
        <pt x="221" y="1432" on="1"/>
        <pt x="522" y="1427" on="1"/>
        <pt x="560" y="1070" on="0"/>
        <pt x="667" y="365" on="0"/>
        <pt x="739" y="8" on="1"/>
      </contour>
      <contour>
        <pt x="373" y="1155" on="1"/>
        <pt x="347" y="925" on="0"/>
        <pt x="304" y="456" on="0"/>
        <pt x="287" y="229" on="1"/>
        <pt x="471" y="217" on="1"/>
      </contour>
    </TTGlyph>
    <TTGlyph name="E" xMin="66" yMin="-8" xMax="590" yMax="1440">
      <contour>
        <pt x="473" y="535" on="1"/>
        <pt x="442" y="537" on="0"/>
        <pt x="378" y="539" on="0"/>
        <pt x="346" y="539" on="1"/>
        <pt x="328" y="539" on="0"/>
        <pt x="289" y="537" on="0"/>
        <pt x="270" y="537" on="1"/>
        <pt x="266" y="180" on="1"/>
        <pt x="348" y="182" on="0"/>
        <pt x="503" y="194" on="0"/>
        <pt x="590" y="207" on="1"/>
        <pt x="590" y="-2" on="1"/>
        <pt x="534" y="0" on="0"/>
        <pt x="429" y="2" on="0"/>
        <pt x="377" y="2" on="1"/>
        <pt x="299" y="2" on="0"/>
        <pt x="147" y="-3" on="0"/>
        <pt x="66" y="-8" on="1"/>
        <pt x="75" y="178" on="0"/>
        <pt x="86" y="543" on="0"/>
        <pt x="86" y="729" on="1"/>
        <pt x="86" y="907" on="0"/>
        <pt x="77" y="1258" on="0"/>
        <pt x="66" y="1436" on="1"/>
        <pt x="184" y="1427" on="0"/>
        <pt x="291" y="1427" on="1"/>
        <pt x="359" y="1427" on="0"/>
        <pt x="494" y="1434" on="0"/>
        <pt x="571" y="1440" on="1"/>
        <pt x="571" y="1210" on="1"/>
        <pt x="509" y="1221" on="0"/>
        <pt x="388" y="1233" on="0"/>
        <pt x="328" y="1233" on="1"/>
        <pt x="289" y="1233" on="1"/>
        <pt x="279" y="1108" on="0"/>
        <pt x="272" y="860" on="0"/>
        <pt x="270" y="735" on="1"/>
        <pt x="296" y="733" on="0"/>
        <pt x="349" y="733" on="0"/>
        <pt x="377" y="733" on="1"/>
        <pt x="400" y="733" on="0"/>
        <pt x="448" y="733" on="0"/>
        <pt x="473" y="735" on="1"/>
      </contour>
    </TTGlyph>
    <TTGlyph name="Eacute" xMin="66" yMin="-8" xMax="590" yMax="1888">
      <component glyphName="E" x="0" y="0" flags="0x204"/>
      <component glyphName="acute" x="219" y="293" flags="0x4"/>
    </TTGlyph>
    <TTGlyph name="Ebreve" xMin="66" yMin="-8" xMax="590" yMax="1845">
      <component glyphName="E" x="0" y="0" flags="0x204"/>
      <component glyphName="breve" x="98" y="315" flags="0x4"/>
    </TTGlyph>
    <TTGlyph name="Ecaron" xMin="66" yMin="-8" xMax="590" yMax="1874">
      <component glyphName="E" x="0" y="0" flags="0x204"/>
      <component glyphName="caron" x="86" y="293" flags="0x4"/>
    </TTGlyph>
    <TTGlyph name="Ecircumflex" xMin="66" yMin="-8" xMax="590" yMax="1874">
      <component glyphName="E" x="0" y="0" flags="0x204"/>
      <component glyphName="circumflex" x="100" y="293" flags="0x4"/>
    </TTGlyph>
    <TTGlyph name="Edieresis" xMin="66" yMin="-8" xMax="590" yMax="1698">
      <component glyphName="E" x="0" y="0" flags="0x204"/>
      <component glyphName="dieresis" x="86" y="297" flags="0x4"/>
    </TTGlyph>
    <TTGlyph name="Edotaccent" xMin="66" yMin="-8" xMax="590" yMax="1694">
      <component glyphName="E" x="0" y="0" flags="0x204"/>
      <component glyphName="dotaccent" x="217" y="293" flags="0x4"/>
    </TTGlyph>
    <TTGlyph name="Egrave" xMin="0" yMin="-8" xMax="590" yMax="1894">
      <component glyphName="E" x="0" y="0" flags="0x204"/>
      <component glyphName="grave" x="0" y="299" flags="0x4"/>
    </TTGlyph>
    <TTGlyph name="Emacron" xMin="66" yMin="-8" xMax="590" yMax="1681">
      <component glyphName="E" x="0" y="0" flags="0x204"/>
      <component glyphName="macron" x="82" y="270" flags="0x4"/>
    </TTGlyph>
    <TTGlyph name="Eng" xMin="66" yMin="-356" xMax="791" yMax="1448">
      <contour>
        <pt x="791" y="1442" on="1"/>
        <pt x="778" y="1241" on="0"/>
        <pt x="764" y="846" on="0"/>
        <pt x="764" y="647" on="1"/>
        <pt x="764" y="580" on="0"/>
        <pt x="768" y="455" on="0"/>
        <pt x="774" y="328" on="0"/>
        <pt x="779" y="194" on="0"/>
        <pt x="780" y="119" on="1"/>
        <pt x="780" y="74" on="0"/>
        <pt x="766" y="-29" on="0"/>
        <pt x="737" y="-132" on="0"/>
        <pt x="691" y="-229" on="0"/>
        <pt x="627" y="-305" on="0"/>
        <pt x="542" y="-353" on="0"/>
        <pt x="489" y="-356" on="1"/>
        <pt x="484" y="-356" on="0"/>
        <pt x="442" y="-355" on="0"/>
        <pt x="382" y="-348" on="0"/>
        <pt x="312" y="-332" on="0"/>
        <pt x="281" y="-317" on="1"/>
        <pt x="309" y="-143" on="1"/>
        <pt x="332" y="-156" on="0"/>
        <pt x="380" y="-166" on="0"/>
        <pt x="401" y="-166" on="1"/>
        <pt x="445" y="-166" on="0"/>
        <pt x="512" y="-147" on="0"/>
        <pt x="558" y="-100" on="0"/>
        <pt x="582" y="-19" on="0"/>
        <pt x="582" y="43" on="1"/>
        <pt x="542" y="173" on="0"/>
        <pt x="465" y="430" on="0"/>
        <pt x="389" y="684" on="0"/>
        <pt x="310" y="936" on="0"/>
        <pt x="268" y="1061" on="1"/>
        <pt x="271" y="800" on="0"/>
        <pt x="284" y="281" on="0"/>
        <pt x="301" y="23" on="1"/>
        <pt x="70" y="25" on="1"/>
        <pt x="82" y="344" on="0"/>
        <pt x="82" y="666" on="1"/>
        <pt x="82" y="864" on="0"/>
        <pt x="74" y="1252" on="0"/>
        <pt x="66" y="1448" on="1"/>
        <pt x="346" y="1442" on="1"/>
        <pt x="397" y="1222" on="0"/>
        <pt x="513" y="768" on="0"/>
        <pt x="578" y="547" on="1"/>
        <pt x="571" y="773" on="0"/>
        <pt x="544" y="1226" on="0"/>
        <pt x="528" y="1444" on="1"/>
      </contour>
    </TTGlyph>
    <TTGlyph name="Eogonek" xMin="66" yMin="-354" xMax="590" yMax="1440">
      <contour>
        <pt x="590" y="-260" on="1"/>
        <pt x="542" y="-307" on="0"/>
        <pt x="456" y="-354" on="0"/>
        <pt x="403" y="-354" on="1"/>
        <pt x="373" y="-354" on="0"/>
        <pt x="324" y="-330" on="0"/>
        <pt x="288" y="-290" on="0"/>
        <pt x="268" y="-238" on="0"/>
        <pt x="268" y="-209" on="1"/>
        <pt x="268" y="-191" on="0"/>
        <pt x="277" y="-145" on="0"/>
        <pt x="299" y="-91" on="0"/>
        <pt x="339" y="-30" on="0"/>
        <pt x="371" y="2" on="1"/>
        <pt x="295" y="2" on="0"/>
        <pt x="146" y="-3" on="0"/>
        <pt x="66" y="-8" on="1"/>
        <pt x="75" y="178" on="0"/>
        <pt x="86" y="543" on="0"/>
        <pt x="86" y="729" on="1"/>
        <pt x="86" y="907" on="0"/>
        <pt x="77" y="1258" on="0"/>
        <pt x="66" y="1436" on="1"/>
        <pt x="184" y="1427" on="0"/>
        <pt x="291" y="1427" on="1"/>
        <pt x="359" y="1427" on="0"/>
        <pt x="494" y="1434" on="0"/>
        <pt x="571" y="1440" on="1"/>
        <pt x="571" y="1210" on="1"/>
        <pt x="509" y="1221" on="0"/>
        <pt x="388" y="1233" on="0"/>
        <pt x="328" y="1233" on="1"/>
        <pt x="289" y="1233" on="1"/>
        <pt x="279" y="1108" on="0"/>
        <pt x="272" y="860" on="0"/>
        <pt x="270" y="735" on="1"/>
        <pt x="296" y="733" on="0"/>
        <pt x="349" y="733" on="0"/>
        <pt x="377" y="733" on="1"/>
        <pt x="400" y="733" on="0"/>
        <pt x="448" y="733" on="0"/>
        <pt x="473" y="735" on="1"/>
        <pt x="473" y="535" on="1"/>
        <pt x="442" y="537" on="0"/>
        <pt x="378" y="539" on="0"/>
        <pt x="346" y="539" on="1"/>
        <pt x="328" y="539" on="0"/>
        <pt x="289" y="537" on="0"/>
        <pt x="270" y="537" on="1"/>
        <pt x="266" y="180" on="1"/>
        <pt x="348" y="182" on="0"/>
        <pt x="503" y="194" on="0"/>
        <pt x="590" y="207" on="1"/>
        <pt x="590" y="-2" on="1"/>
        <pt x="561" y="0" on="0"/>
        <pt x="505" y="0" on="0"/>
        <pt x="477" y="0" on="1"/>
        <pt x="462" y="-15" on="0"/>
        <pt x="429" y="-57" on="0"/>
        <pt x="401" y="-104" on="0"/>
        <pt x="383" y="-156" on="0"/>
        <pt x="383" y="-182" on="1"/>
        <pt x="383" y="-199" on="0"/>
        <pt x="404" y="-217" on="0"/>
        <pt x="420" y="-217" on="1"/>
        <pt x="449" y="-217" on="0"/>
        <pt x="491" y="-177" on="0"/>
        <pt x="510" y="-156" on="1"/>
      </contour>
    </TTGlyph>
    <TTGlyph name="Eth" xMin="2" yMin="-29" xMax="721" yMax="1449">
      <contour>
        <pt x="721" y="680" on="1"/>
        <pt x="721" y="525" on="0"/>
        <pt x="676" y="300" on="0"/>
        <pt x="602" y="142" on="0"/>
        <pt x="509" y="44" on="0"/>
        <pt x="413" y="-10" on="0"/>
        <pt x="323" y="-29" on="0"/>
        <pt x="289" y="-29" on="1"/>
        <pt x="84" y="-12" on="1"/>
        <pt x="93" y="133" on="0"/>
        <pt x="105" y="425" on="0"/>
        <pt x="109" y="573" on="1"/>
        <pt x="2" y="573" on="1"/>
        <pt x="2" y="774" on="1"/>
        <pt x="111" y="770" on="1"/>
        <pt x="111" y="940" on="0"/>
        <pt x="103" y="1275" on="0"/>
        <pt x="94" y="1442" on="1"/>
        <pt x="167" y="1449" on="0"/>
        <pt x="282" y="1442" on="0"/>
        <pt x="323" y="1435" on="1"/>
        <pt x="371" y="1427" on="0"/>
        <pt x="406" y="1415" on="1"/>
        <pt x="435" y="1403" on="0"/>
        <pt x="504" y="1370" on="0"/>
        <pt x="574" y="1310" on="0"/>
        <pt x="640" y="1211" on="0"/>
        <pt x="690" y="1055" on="0"/>
        <pt x="721" y="833" on="0"/>
      </contour>
      <contour>
        <pt x="428" y="575" on="1"/>
        <pt x="303" y="575" on="1"/>
        <pt x="301" y="469" on="0"/>
        <pt x="302" y="259" on="0"/>
        <pt x="305" y="147" on="1"/>
        <pt x="352" y="153" on="0"/>
        <pt x="419" y="213" on="0"/>
        <pt x="466" y="304" on="0"/>
        <pt x="495" y="418" on="0"/>
        <pt x="511" y="539" on="0"/>
        <pt x="516" y="657" on="0"/>
        <pt x="516" y="707" on="1"/>
        <pt x="516" y="756" on="0"/>
        <pt x="512" y="867" on="0"/>
        <pt x="499" y="977" on="0"/>
        <pt x="474" y="1081" on="0"/>
        <pt x="432" y="1168" on="0"/>
        <pt x="371" y="1230" on="0"/>
        <pt x="328" y="1243" on="1"/>
        <pt x="320" y="1116" on="0"/>
        <pt x="310" y="880" on="0"/>
        <pt x="307" y="764" on="1"/>
        <pt x="428" y="760" on="1"/>
      </contour>
    </TTGlyph>
    <TTGlyph name="Euro" xMin="27" yMin="-23" xMax="784" yMax="1456">
      <contour>
        <pt x="203" y="895" on="1"/>
        <pt x="215" y="1011" on="0"/>
        <pt x="267" y="1185" on="0"/>
        <pt x="336" y="1309" on="0"/>
        <pt x="417" y="1390" on="0"/>
        <pt x="497" y="1437" on="0"/>
        <pt x="572" y="1456" on="0"/>
        <pt x="600" y="1456" on="1"/>
        <pt x="629" y="1455" on="0"/>
        <pt x="657" y="1450" on="1"/>
        <pt x="681" y="1445" on="0"/>
        <pt x="734" y="1425" on="0"/>
        <pt x="754" y="1407" on="1"/>
        <pt x="733" y="1206" on="1"/>
        <pt x="705" y="1220" on="0"/>
        <pt x="657" y="1233" on="0"/>
        <pt x="635" y="1233" on="1"/>
        <pt x="585" y="1233" on="0"/>
        <pt x="514" y="1172" on="0"/>
        <pt x="465" y="1076" on="0"/>
        <pt x="435" y="959" on="0"/>
        <pt x="426" y="903" on="1"/>
        <pt x="625" y="909" on="1"/>
        <pt x="573" y="748" on="1"/>
        <pt x="410" y="748" on="1"/>
        <pt x="410" y="709" on="1"/>
        <pt x="409" y="704" on="0"/>
        <pt x="409" y="700" on="1"/>
        <pt x="409" y="696" on="0"/>
        <pt x="409" y="686" on="0"/>
        <pt x="410" y="680" on="1"/>
        <pt x="559" y="684" on="1"/>
        <pt x="508" y="522" on="1"/>
        <pt x="424" y="522" on="1"/>
        <pt x="432" y="466" on="0"/>
        <pt x="463" y="348" on="0"/>
        <pt x="514" y="252" on="0"/>
        <pt x="588" y="190" on="0"/>
        <pt x="639" y="190" on="1"/>
        <pt x="686" y="190" on="0"/>
        <pt x="748" y="223" on="1"/>
        <pt x="784" y="25" on="1"/>
        <pt x="746" y="7" on="0"/>
        <pt x="669" y="-12" on="0"/>
        <pt x="639" y="-17" on="1"/>
        <pt x="603" y="-22" on="0"/>
        <pt x="571" y="-23" on="1"/>
        <pt x="524" y="-23" on="0"/>
        <pt x="411" y="23" on="0"/>
        <pt x="305" y="144" on="0"/>
        <pt x="221" y="356" on="0"/>
        <pt x="203" y="522" on="1"/>
        <pt x="27" y="522" on="1"/>
        <pt x="59" y="670" on="1"/>
        <pt x="195" y="674" on="1"/>
        <pt x="195" y="723" on="1"/>
        <pt x="195" y="748" on="1"/>
        <pt x="90" y="748" on="1"/>
        <pt x="125" y="893" on="1"/>
      </contour>
    </TTGlyph>
    <TTGlyph name="F" xMin="66" yMin="-8" xMax="571" yMax="1440">
      <contour>
        <pt x="473" y="535" on="1"/>
        <pt x="442" y="537" on="0"/>
        <pt x="378" y="539" on="0"/>
        <pt x="346" y="539" on="1"/>
        <pt x="329" y="539" on="0"/>
        <pt x="293" y="537" on="0"/>
        <pt x="276" y="537" on="1"/>
        <pt x="289" y="-8" on="1"/>
        <pt x="266" y="-5" on="0"/>
        <pt x="213" y="-4" on="0"/>
        <pt x="188" y="-4" on="1"/>
        <pt x="163" y="-4" on="0"/>
        <pt x="120" y="-5" on="0"/>
        <pt x="103" y="-6" on="1"/>
        <pt x="84" y="-7" on="0"/>
        <pt x="66" y="-8" on="1"/>
        <pt x="75" y="178" on="0"/>
        <pt x="86" y="543" on="0"/>
        <pt x="86" y="729" on="1"/>
        <pt x="86" y="907" on="0"/>
        <pt x="77" y="1258" on="0"/>
        <pt x="66" y="1436" on="1"/>
        <pt x="184" y="1427" on="0"/>
        <pt x="291" y="1427" on="1"/>
        <pt x="359" y="1427" on="0"/>
        <pt x="494" y="1434" on="0"/>
        <pt x="571" y="1440" on="1"/>
        <pt x="571" y="1210" on="1"/>
        <pt x="509" y="1221" on="0"/>
        <pt x="388" y="1233" on="0"/>
        <pt x="328" y="1233" on="1"/>
        <pt x="289" y="1233" on="1"/>
        <pt x="281" y="1121" on="0"/>
        <pt x="276" y="893" on="0"/>
        <pt x="276" y="774" on="1"/>
        <pt x="276" y="735" on="1"/>
        <pt x="301" y="733" on="0"/>
        <pt x="351" y="733" on="0"/>
        <pt x="377" y="733" on="1"/>
        <pt x="400" y="733" on="0"/>
        <pt x="448" y="733" on="0"/>
        <pt x="473" y="735" on="1"/>
      </contour>
    </TTGlyph>
    <TTGlyph name="G" xMin="39" yMin="-23" xMax="635" yMax="1456">
      <contour>
        <pt x="635" y="717" on="1"/>
        <pt x="630" y="681" on="0"/>
        <pt x="619" y="589" on="0"/>
        <pt x="611" y="484" on="0"/>
        <pt x="606" y="369" on="0"/>
        <pt x="606" y="311" on="1"/>
        <pt x="606" y="298" on="0"/>
        <pt x="609" y="249" on="0"/>
        <pt x="613" y="190" on="0"/>
        <pt x="618" y="127" on="0"/>
        <pt x="623" y="72" on="0"/>
        <pt x="627" y="32" on="0"/>
        <pt x="629" y="25" on="1"/>
        <pt x="590" y="7" on="0"/>
        <pt x="514" y="-12" on="0"/>
        <pt x="484" y="-17" on="1"/>
        <pt x="449" y="-22" on="0"/>
        <pt x="416" y="-23" on="1"/>
        <pt x="380" y="-23" on="0"/>
        <pt x="297" y="3" on="0"/>
        <pt x="213" y="66" on="0"/>
        <pt x="135" y="175" on="0"/>
        <pt x="75" y="340" on="0"/>
        <pt x="39" y="570" on="0"/>
        <pt x="39" y="723" on="1"/>
        <pt x="39" y="876" on="0"/>
        <pt x="82" y="1104" on="0"/>
        <pt x="151" y="1267" on="0"/>
        <pt x="238" y="1372" on="0"/>
        <pt x="328" y="1433" on="0"/>
        <pt x="413" y="1456" on="0"/>
        <pt x="444" y="1456" on="1"/>
        <pt x="473" y="1455" on="0"/>
        <pt x="501" y="1450" on="1"/>
        <pt x="525" y="1445" on="0"/>
        <pt x="578" y="1425" on="0"/>
        <pt x="598" y="1407" on="1"/>
        <pt x="578" y="1206" on="1"/>
        <pt x="550" y="1220" on="0"/>
        <pt x="501" y="1233" on="0"/>
        <pt x="479" y="1233" on="1"/>
        <pt x="437" y="1233" on="0"/>
        <pt x="372" y="1188" on="0"/>
        <pt x="325" y="1114" on="0"/>
        <pt x="292" y="1020" on="0"/>
        <pt x="282" y="971" on="1"/>
        <pt x="257" y="856" on="0"/>
        <pt x="254" y="709" on="1"/>
        <pt x="257" y="582" on="0"/>
        <pt x="277" y="476" on="1"/>
        <pt x="286" y="431" on="0"/>
        <pt x="313" y="341" on="0"/>
        <pt x="352" y="264" on="0"/>
        <pt x="405" y="208" on="0"/>
        <pt x="440" y="197" on="1"/>
        <pt x="438" y="327" on="0"/>
        <pt x="417" y="583" on="0"/>
        <pt x="397" y="713" on="1"/>
      </contour>
    </TTGlyph>
    <TTGlyph name="Gbreve" xMin="39" yMin="-23" xMax="635" yMax="1872">
      <component glyphName="G" x="0" y="0" flags="0x204"/>
      <component glyphName="breve" x="180" y="342" flags="0x4"/>
    </TTGlyph>
    <TTGlyph name="Gcircumflex" xMin="39" yMin="-23" xMax="635" yMax="1888">
      <component glyphName="G" x="0" y="0" flags="0x204"/>
      <component glyphName="circumflex" x="143" y="307" flags="0x4"/>
    </TTGlyph>
    <TTGlyph name="Gcommaaccent" xMin="39" yMin="-353" xMax="635" yMax="1456">
      <component glyphName="G" x="0" y="0" flags="0x204"/>
      <component glyphName="uni0326" x="246" y="-17" flags="0x4"/>
    </TTGlyph>
    <TTGlyph name="Gdotaccent" xMin="39" yMin="-23" xMax="635" yMax="1716">
      <component glyphName="G" x="0" y="0" flags="0x204"/>
      <component glyphName="dotaccent" x="295" y="315" flags="0x4"/>
    </TTGlyph>
    <TTGlyph name="H" xMin="66" yMin="8" xMax="774" yMax="1436">
      <contour>
        <pt x="332" y="1436" on="1"/>
        <pt x="322" y="1238" on="0"/>
        <pt x="308" y="849" on="0"/>
        <pt x="305" y="653" on="1"/>
        <pt x="330" y="651" on="0"/>
        <pt x="381" y="651" on="0"/>
        <pt x="406" y="651" on="1"/>
        <pt x="438" y="651" on="0"/>
        <pt x="505" y="653" on="0"/>
        <pt x="539" y="655" on="1"/>
        <pt x="541" y="699" on="0"/>
        <pt x="541" y="784" on="0"/>
        <pt x="541" y="829" on="1"/>
        <pt x="541" y="981" on="0"/>
        <pt x="535" y="1283" on="0"/>
        <pt x="528" y="1436" on="1"/>
        <pt x="774" y="1436" on="1"/>
        <pt x="756" y="1195" on="0"/>
        <pt x="737" y="720" on="0"/>
        <pt x="737" y="479" on="1"/>
        <pt x="737" y="361" on="0"/>
        <pt x="743" y="127" on="0"/>
        <pt x="748" y="8" on="1"/>
        <pt x="520" y="8" on="1"/>
        <pt x="525" y="127" on="0"/>
        <pt x="533" y="363" on="0"/>
        <pt x="537" y="481" on="1"/>
        <pt x="480" y="484" on="0"/>
        <pt x="367" y="489" on="0"/>
        <pt x="311" y="489" on="1"/>
        <pt x="303" y="489" on="1"/>
        <pt x="303" y="283" on="1"/>
        <pt x="303" y="213" on="0"/>
        <pt x="303" y="77" on="0"/>
        <pt x="305" y="8" on="1"/>
        <pt x="76" y="8" on="1"/>
        <pt x="81" y="152" on="0"/>
        <pt x="84" y="433" on="0"/>
        <pt x="84" y="575" on="1"/>
        <pt x="84" y="1005" on="0"/>
        <pt x="66" y="1436" on="1"/>
      </contour>
    </TTGlyph>
    <TTGlyph name="Hbar" xMin="10" yMin="8" xMax="817" yMax="1436">
      <contour>
        <pt x="80" y="922" on="1"/>
        <pt x="78" y="1052" on="0"/>
        <pt x="71" y="1306" on="0"/>
        <pt x="66" y="1436" on="1"/>
        <pt x="332" y="1436" on="1"/>
        <pt x="326" y="1305" on="0"/>
        <pt x="314" y="1050" on="0"/>
        <pt x="311" y="920" on="1"/>
        <pt x="541" y="915" on="1"/>
        <pt x="539" y="1045" on="0"/>
        <pt x="533" y="1305" on="0"/>
        <pt x="528" y="1436" on="1"/>
        <pt x="774" y="1436" on="1"/>
        <pt x="763" y="1303" on="0"/>
        <pt x="748" y="1042" on="0"/>
        <pt x="743" y="911" on="1"/>
        <pt x="817" y="911" on="1"/>
        <pt x="817" y="756" on="1"/>
        <pt x="739" y="756" on="1"/>
        <pt x="737" y="687" on="0"/>
        <pt x="737" y="548" on="0"/>
        <pt x="737" y="479" on="1"/>
        <pt x="737" y="361" on="0"/>
        <pt x="743" y="127" on="0"/>
        <pt x="748" y="8" on="1"/>
        <pt x="520" y="8" on="1"/>
        <pt x="525" y="127" on="0"/>
        <pt x="533" y="363" on="0"/>
        <pt x="537" y="481" on="1"/>
        <pt x="480" y="484" on="0"/>
        <pt x="367" y="489" on="0"/>
        <pt x="311" y="489" on="1"/>
        <pt x="303" y="489" on="1"/>
        <pt x="303" y="283" on="1"/>
        <pt x="303" y="213" on="0"/>
        <pt x="303" y="77" on="0"/>
        <pt x="305" y="8" on="1"/>
        <pt x="76" y="8" on="1"/>
        <pt x="81" y="152" on="0"/>
        <pt x="84" y="433" on="0"/>
        <pt x="84" y="575" on="1"/>
        <pt x="84" y="756" on="1"/>
        <pt x="10" y="756" on="1"/>
        <pt x="10" y="924" on="1"/>
      </contour>
      <contour>
        <pt x="539" y="655" on="1"/>
        <pt x="539" y="680" on="0"/>
        <pt x="541" y="730" on="0"/>
        <pt x="541" y="756" on="1"/>
        <pt x="307" y="756" on="1"/>
        <pt x="305" y="730" on="0"/>
        <pt x="305" y="678" on="0"/>
        <pt x="305" y="653" on="1"/>
        <pt x="330" y="651" on="0"/>
        <pt x="381" y="651" on="0"/>
        <pt x="406" y="651" on="1"/>
        <pt x="438" y="651" on="0"/>
        <pt x="505" y="653" on="0"/>
      </contour>
    </TTGlyph>
    <TTGlyph name="Hcircumflex" xMin="66" yMin="8" xMax="774" yMax="1880">
      <component glyphName="H" x="0" y="0" flags="0x204"/>
      <component glyphName="circumflex" x="209" y="299" flags="0x4"/>
    </TTGlyph>
    <TTGlyph name="I" xMin="33" yMin="8" xMax="473" yMax="1442">
      <contour>
        <pt x="463" y="14" on="1"/>
        <pt x="423" y="16" on="0"/>
        <pt x="343" y="18" on="0"/>
        <pt x="303" y="18" on="1"/>
        <pt x="237" y="18" on="0"/>
        <pt x="105" y="13" on="0"/>
        <pt x="39" y="8" on="1"/>
        <pt x="41" y="223" on="1"/>
        <pt x="64" y="220" on="0"/>
        <pt x="110" y="217" on="0"/>
        <pt x="133" y="215" on="1"/>
        <pt x="139" y="370" on="0"/>
        <pt x="150" y="677" on="0"/>
        <pt x="150" y="831" on="1"/>
        <pt x="150" y="934" on="0"/>
        <pt x="144" y="1135" on="0"/>
        <pt x="141" y="1237" on="1"/>
        <pt x="115" y="1237" on="0"/>
        <pt x="61" y="1235" on="0"/>
        <pt x="33" y="1233" on="1"/>
        <pt x="35" y="1442" on="1"/>
        <pt x="112" y="1437" on="0"/>
        <pt x="266" y="1432" on="0"/>
        <pt x="344" y="1432" on="1"/>
        <pt x="372" y="1432" on="0"/>
        <pt x="428" y="1432" on="0"/>
        <pt x="457" y="1434" on="1"/>
        <pt x="451" y="1235" on="1"/>
        <pt x="428" y="1235" on="0"/>
        <pt x="383" y="1237" on="0"/>
        <pt x="360" y="1237" on="1"/>
        <pt x="346" y="1057" on="0"/>
        <pt x="334" y="702" on="0"/>
        <pt x="334" y="522" on="1"/>
        <pt x="334" y="365" on="0"/>
        <pt x="340" y="209" on="1"/>
        <pt x="372" y="209" on="0"/>
        <pt x="439" y="211" on="0"/>
        <pt x="473" y="213" on="1"/>
      </contour>
    </TTGlyph>
    <TTGlyph name="IJ" xMin="33" yMin="-14" xMax="1022" yMax="1444">
      <component glyphName="I" x="0" y="0" flags="0x4"/>
      <component glyphName="J" x="498" y="0" flags="0x4"/>
    </TTGlyph>
    <TTGlyph name="Iacute" xMin="33" yMin="8" xMax="581" yMax="1882">
      <component glyphName="I" x="0" y="0" flags="0x204"/>
      <component glyphName="acute" x="223" y="287" flags="0x4"/>
    </TTGlyph>
    <TTGlyph name="Ibreve" xMin="33" yMin="8" xMax="487" yMax="1852">
      <component glyphName="I" x="0" y="0" flags="0x204"/>
      <component glyphName="breve" x="41" y="322" flags="0x4"/>
    </TTGlyph>
    <TTGlyph name="Icircumflex" xMin="27" yMin="8" xMax="480" yMax="1884">
      <component glyphName="I" x="0" y="0" flags="0x204"/>
      <component glyphName="circumflex" x="27" y="303" flags="0x4"/>
    </TTGlyph>
    <TTGlyph name="Idieresis" xMin="12" yMin="8" xMax="495" yMax="1714">
      <component glyphName="I" x="0" y="0" flags="0x204"/>
      <component glyphName="dieresis" x="12" y="313" flags="0x4"/>
    </TTGlyph>
    <TTGlyph name="Idotaccent" xMin="33" yMin="8" xMax="473" yMax="1698">
      <component glyphName="I" x="0" y="0" flags="0x204"/>
      <component glyphName="dotaccent" x="145" y="297" flags="0x4"/>
    </TTGlyph>
    <TTGlyph name="Igrave" xMin="-75" yMin="8" xMax="473" yMax="1894">
      <component glyphName="I" x="0" y="0" flags="0x204"/>
      <component glyphName="grave" x="-75" y="299" flags="0x4"/>
    </TTGlyph>
    <TTGlyph name="Imacron" xMin="14" yMin="8" xMax="483" yMax="1694">
      <component glyphName="I" x="0" y="0" flags="0x204"/>
      <component glyphName="macron" x="14" y="283" flags="0x4"/>
    </TTGlyph>
    <TTGlyph name="Iogonek" xMin="33" yMin="-344" xMax="473" yMax="1442">
      <contour>
        <pt x="406" y="-250" on="1"/>
        <pt x="358" y="-296" on="0"/>
        <pt x="272" y="-344" on="0"/>
        <pt x="219" y="-344" on="1"/>
        <pt x="189" y="-344" on="0"/>
        <pt x="139" y="-320" on="0"/>
        <pt x="104" y="-279" on="0"/>
        <pt x="84" y="-227" on="0"/>
        <pt x="84" y="-199" on="1"/>
        <pt x="84" y="-181" on="0"/>
        <pt x="93" y="-133" on="0"/>
        <pt x="117" y="-78" on="0"/>
        <pt x="158" y="-16" on="0"/>
        <pt x="190" y="16" on="1"/>
        <pt x="39" y="8" on="1"/>
        <pt x="41" y="223" on="1"/>
        <pt x="64" y="220" on="0"/>
        <pt x="110" y="217" on="0"/>
        <pt x="133" y="215" on="1"/>
        <pt x="139" y="370" on="0"/>
        <pt x="150" y="677" on="0"/>
        <pt x="150" y="831" on="1"/>
        <pt x="150" y="934" on="0"/>
        <pt x="144" y="1135" on="0"/>
        <pt x="141" y="1237" on="1"/>
        <pt x="115" y="1237" on="0"/>
        <pt x="61" y="1235" on="0"/>
        <pt x="33" y="1233" on="1"/>
        <pt x="35" y="1442" on="1"/>
        <pt x="112" y="1437" on="0"/>
        <pt x="266" y="1432" on="0"/>
        <pt x="344" y="1432" on="1"/>
        <pt x="372" y="1432" on="0"/>
        <pt x="428" y="1432" on="0"/>
        <pt x="457" y="1434" on="1"/>
        <pt x="451" y="1235" on="1"/>
        <pt x="428" y="1235" on="0"/>
        <pt x="383" y="1237" on="0"/>
        <pt x="360" y="1237" on="1"/>
        <pt x="346" y="1057" on="0"/>
        <pt x="334" y="702" on="0"/>
        <pt x="334" y="522" on="1"/>
        <pt x="334" y="365" on="0"/>
        <pt x="340" y="209" on="1"/>
        <pt x="372" y="209" on="0"/>
        <pt x="439" y="211" on="0"/>
        <pt x="473" y="213" on="1"/>
        <pt x="463" y="14" on="1"/>
        <pt x="423" y="16" on="0"/>
        <pt x="343" y="18" on="0"/>
        <pt x="303" y="18" on="1"/>
        <pt x="299" y="18" on="1"/>
        <pt x="284" y="3" on="0"/>
        <pt x="249" y="-40" on="0"/>
        <pt x="219" y="-90" on="0"/>
        <pt x="199" y="-145" on="0"/>
        <pt x="199" y="-172" on="1"/>
        <pt x="199" y="-189" on="0"/>
        <pt x="220" y="-207" on="0"/>
        <pt x="236" y="-207" on="1"/>
        <pt x="265" y="-207" on="0"/>
        <pt x="307" y="-167" on="0"/>
        <pt x="326" y="-145" on="1"/>
      </contour>
    </TTGlyph>
    <TTGlyph name="Itilde" xMin="-44" yMin="8" xMax="546" yMax="1766">
      <component glyphName="I" x="0" y="0" flags="0x204"/>
      <component glyphName="tilde" x="-44" y="279" flags="0x4"/>
    </TTGlyph>
    <TTGlyph name="J" xMin="8" yMin="-14" xMax="524" yMax="1444">
      <contour>
        <pt x="524" y="1444" on="1"/>
        <pt x="518" y="1202" on="0"/>
        <pt x="512" y="837" on="0"/>
        <pt x="510" y="712" on="1"/>
        <pt x="508" y="566" on="0"/>
        <pt x="508" y="461" on="1"/>
        <pt x="506" y="333" on="0"/>
        <pt x="449" y="154" on="0"/>
        <pt x="364" y="41" on="0"/>
        <pt x="262" y="-12" on="0"/>
        <pt x="217" y="-14" on="1"/>
        <pt x="212" y="-14" on="0"/>
        <pt x="170" y="-13" on="0"/>
        <pt x="109" y="-6" on="0"/>
        <pt x="39" y="10" on="0"/>
        <pt x="8" y="25" on="1"/>
        <pt x="37" y="199" on="1"/>
        <pt x="60" y="186" on="0"/>
        <pt x="107" y="176" on="0"/>
        <pt x="129" y="176" on="1"/>
        <pt x="187" y="176" on="0"/>
        <pt x="262" y="211" on="0"/>
        <pt x="306" y="302" on="0"/>
        <pt x="322" y="458" on="0"/>
        <pt x="322" y="580" on="1"/>
        <pt x="322" y="600" on="0"/>
        <pt x="322" y="631" on="0"/>
        <pt x="322" y="677" on="0"/>
        <pt x="320" y="754" on="0"/>
        <pt x="316" y="888" on="0"/>
        <pt x="310" y="1092" on="0"/>
        <pt x="305" y="1243" on="1"/>
        <pt x="147" y="1243" on="1"/>
        <pt x="147" y="1440" on="1"/>
      </contour>
    </TTGlyph>
    <TTGlyph name="Jcircumflex" xMin="8" yMin="-14" xMax="590" yMax="1884">
      <component glyphName="J" x="0" y="0" flags="0x204"/>
      <component glyphName="circumflex" x="137" y="303" flags="0x4"/>
    </TTGlyph>
    <TTGlyph name="K" xMin="66" yMin="4" xMax="741" yMax="1448">
      <contour>
        <pt x="303" y="1444" on="1"/>
        <pt x="288" y="1254" on="0"/>
        <pt x="271" y="881" on="0"/>
        <pt x="268" y="694" on="1"/>
        <pt x="339" y="881" on="0"/>
        <pt x="463" y="1256" on="0"/>
        <pt x="522" y="1448" on="1"/>
        <pt x="741" y="1432" on="1"/>
        <pt x="656" y="1235" on="0"/>
        <pt x="502" y="841" on="0"/>
        <pt x="434" y="639" on="1"/>
        <pt x="493" y="480" on="0"/>
        <pt x="631" y="177" on="0"/>
        <pt x="709" y="29" on="1"/>
        <pt x="487" y="4" on="1"/>
        <pt x="438" y="151" on="0"/>
        <pt x="328" y="434" on="0"/>
        <pt x="266" y="573" on="1"/>
        <pt x="266" y="449" on="1"/>
        <pt x="266" y="230" on="0"/>
        <pt x="272" y="14" on="1"/>
        <pt x="66" y="16" on="1"/>
        <pt x="72" y="220" on="0"/>
        <pt x="80" y="626" on="0"/>
        <pt x="80" y="831" on="1"/>
        <pt x="80" y="984" on="0"/>
        <pt x="75" y="1289" on="0"/>
        <pt x="72" y="1444" on="1"/>
      </contour>
    </TTGlyph>
    <TTGlyph name="Kcommaaccent" xMin="66" yMin="-336" xMax="741" yMax="1448">
      <component glyphName="K" x="0" y="0" flags="0x204"/>
      <component glyphName="uni0326" x="211" y="0" flags="0x4"/>
    </TTGlyph>
    <TTGlyph name="L" xMin="66" yMin="-8" xMax="590" yMax="1440">
      <contour>
        <pt x="590" y="-2" on="1"/>
        <pt x="534" y="0" on="0"/>
        <pt x="429" y="2" on="0"/>
        <pt x="377" y="2" on="1"/>
        <pt x="299" y="2" on="0"/>
        <pt x="147" y="-3" on="0"/>
        <pt x="66" y="-8" on="1"/>
        <pt x="75" y="178" on="0"/>
        <pt x="86" y="543" on="0"/>
        <pt x="86" y="729" on="1"/>
        <pt x="86" y="907" on="0"/>
        <pt x="77" y="1258" on="0"/>
        <pt x="66" y="1436" on="1"/>
        <pt x="76" y="1435" on="0"/>
        <pt x="89" y="1435" on="1"/>
        <pt x="100" y="1434" on="0"/>
        <pt x="132" y="1434" on="0"/>
        <pt x="152" y="1434" on="1"/>
        <pt x="184" y="1434" on="0"/>
        <pt x="259" y="1437" on="0"/>
        <pt x="297" y="1440" on="1"/>
        <pt x="284" y="1296" on="0"/>
        <pt x="273" y="978" on="0"/>
        <pt x="270" y="653" on="0"/>
        <pt x="269" y="330" on="0"/>
        <pt x="266" y="180" on="1"/>
        <pt x="348" y="182" on="0"/>
        <pt x="503" y="194" on="0"/>
        <pt x="590" y="207" on="1"/>
      </contour>
    </TTGlyph>
    <TTGlyph name="Lacute" xMin="66" yMin="-8" xMax="590" yMax="1912">
      <component glyphName="L" x="0" y="0" flags="0x204"/>
      <component glyphName="acute" x="143" y="317" flags="0x4"/>
    </TTGlyph>
    <TTGlyph name="Lcaron" xMin="66" yMin="-8" xMax="590" yMax="1593">
      <component glyphName="L" x="0" y="0" flags="0x204"/>
      <component glyphName="uni0315" x="309" y="217" flags="0x4"/>
    </TTGlyph>
    <TTGlyph name="Lcommaaccent" xMin="66" yMin="-336" xMax="590" yMax="1440">
      <component glyphName="L" x="0" y="0" flags="0x204"/>
      <component glyphName="uni0326" x="150" y="0" flags="0x4"/>
    </TTGlyph>
    <TTGlyph name="Ldot" xMin="66" yMin="-8" xMax="817" yMax="1440">
      <component glyphName="L" x="0" y="0" flags="0x4"/>
      <component glyphName="periodcentered" x="518" y="0" flags="0x4"/>
    </TTGlyph>
    <TTGlyph name="Lslash" xMin="-8" yMin="-8" xMax="623" yMax="1440">
      <contour>
        <pt x="461" y="707" on="1"/>
        <pt x="303" y="627" on="1"/>
        <pt x="299" y="180" on="1"/>
        <pt x="381" y="182" on="0"/>
        <pt x="536" y="194" on="0"/>
        <pt x="623" y="207" on="1"/>
        <pt x="623" y="-2" on="1"/>
        <pt x="554" y="1" on="0"/>
        <pt x="423" y="3" on="0"/>
        <pt x="295" y="2" on="0"/>
        <pt x="166" y="-4" on="0"/>
        <pt x="98" y="-8" on="1"/>
        <pt x="106" y="128" on="0"/>
        <pt x="115" y="398" on="0"/>
        <pt x="117" y="535" on="1"/>
        <pt x="41" y="496" on="1"/>
        <pt x="-8" y="684" on="1"/>
        <pt x="119" y="741" on="1"/>
        <pt x="119" y="916" on="0"/>
        <pt x="108" y="1261" on="0"/>
        <pt x="98" y="1436" on="1"/>
        <pt x="133" y="1434" on="0"/>
        <pt x="172" y="1434" on="1"/>
        <pt x="205" y="1434" on="0"/>
        <pt x="288" y="1436" on="0"/>
        <pt x="330" y="1440" on="1"/>
        <pt x="317" y="1297" on="0"/>
        <pt x="305" y="988" on="0"/>
        <pt x="303" y="827" on="1"/>
        <pt x="418" y="881" on="1"/>
      </contour>
    </TTGlyph>
    <TTGlyph name="M" xMin="41" yMin="-12" xMax="1010" yMax="1427">
      <contour>
        <pt x="774" y="-2" on="1"/>
        <pt x="777" y="151" on="0"/>
        <pt x="781" y="309" on="1"/>
        <pt x="782" y="376" on="0"/>
        <pt x="785" y="526" on="0"/>
        <pt x="787" y="680" on="0"/>
        <pt x="788" y="834" on="0"/>
        <pt x="788" y="905" on="1"/>
        <pt x="788" y="952" on="0"/>
        <pt x="788" y="1037" on="0"/>
        <pt x="786" y="1075" on="1"/>
        <pt x="774" y="1001" on="0"/>
        <pt x="737" y="768" on="0"/>
        <pt x="697" y="487" on="0"/>
        <pt x="658" y="173" on="0"/>
        <pt x="643" y="18" on="1"/>
        <pt x="453" y="23" on="1"/>
        <pt x="429" y="179" on="0"/>
        <pt x="384" y="481" on="0"/>
        <pt x="343" y="753" on="0"/>
        <pt x="309" y="985" on="0"/>
        <pt x="297" y="1071" on="1"/>
        <pt x="297" y="723" on="1"/>
        <pt x="297" y="615" on="0"/>
        <pt x="299" y="396" on="0"/>
        <pt x="302" y="202" on="0"/>
        <pt x="308" y="47" on="0"/>
        <pt x="313" y="4" on="1"/>
        <pt x="41" y="-12" on="1"/>
        <pt x="56" y="73" on="0"/>
        <pt x="75" y="285" on="0"/>
        <pt x="86" y="517" on="0"/>
        <pt x="90" y="757" on="0"/>
        <pt x="90" y="870" on="1"/>
        <pt x="90" y="986" on="0"/>
        <pt x="87" y="1188" on="0"/>
        <pt x="85" y="1264" on="1"/>
        <pt x="82" y="1353" on="0"/>
        <pt x="80" y="1427" on="1"/>
        <pt x="112" y="1422" on="0"/>
        <pt x="182" y="1415" on="0"/>
        <pt x="250" y="1411" on="0"/>
        <pt x="314" y="1409" on="0"/>
        <pt x="340" y="1409" on="1"/>
        <pt x="357" y="1409" on="0"/>
        <pt x="386" y="1409" on="0"/>
        <pt x="397" y="1410" on="1"/>
        <pt x="409" y="1410" on="0"/>
        <pt x="418" y="1411" on="1"/>
        <pt x="466" y="1079" on="0"/>
        <pt x="532" y="623" on="0"/>
        <pt x="551" y="504" on="1"/>
        <pt x="562" y="580" on="0"/>
        <pt x="583" y="741" on="0"/>
        <pt x="601" y="899" on="0"/>
        <pt x="616" y="1050" on="0"/>
        <pt x="622" y="1117" on="1"/>
        <pt x="636" y="1275" on="0"/>
        <pt x="647" y="1423" on="1"/>
        <pt x="669" y="1421" on="0"/>
        <pt x="695" y="1419" on="1"/>
        <pt x="718" y="1417" on="0"/>
        <pt x="781" y="1415" on="0"/>
        <pt x="819" y="1415" on="1"/>
        <pt x="857" y="1415" on="0"/>
        <pt x="945" y="1418" on="0"/>
        <pt x="993" y="1423" on="1"/>
        <pt x="981" y="1049" on="0"/>
        <pt x="981" y="776" on="1"/>
        <pt x="981" y="575" on="0"/>
        <pt x="990" y="285" on="0"/>
        <pt x="995" y="190" on="1"/>
        <pt x="1001" y="78" on="0"/>
        <pt x="1010" y="4" on="1"/>
      </contour>
    </TTGlyph>
    <TTGlyph name="N" xMin="66" yMin="23" xMax="791" yMax="1448">
      <contour>
        <pt x="791" y="1442" on="1"/>
        <pt x="778" y="1241" on="0"/>
        <pt x="764" y="846" on="0"/>
        <pt x="764" y="647" on="1"/>
        <pt x="764" y="492" on="0"/>
        <pt x="773" y="190" on="0"/>
        <pt x="784" y="37" on="1"/>
        <pt x="582" y="43" on="1"/>
        <pt x="542" y="173" on="0"/>
        <pt x="465" y="430" on="0"/>
        <pt x="389" y="684" on="0"/>
        <pt x="310" y="936" on="0"/>
        <pt x="268" y="1061" on="1"/>
        <pt x="271" y="800" on="0"/>
        <pt x="284" y="281" on="0"/>
        <pt x="301" y="23" on="1"/>
        <pt x="70" y="25" on="1"/>
        <pt x="82" y="344" on="0"/>
        <pt x="82" y="666" on="1"/>
        <pt x="82" y="864" on="0"/>
        <pt x="74" y="1252" on="0"/>
        <pt x="66" y="1448" on="1"/>
        <pt x="346" y="1442" on="1"/>
        <pt x="397" y="1222" on="0"/>
        <pt x="513" y="768" on="0"/>
        <pt x="578" y="547" on="1"/>
        <pt x="571" y="773" on="0"/>
        <pt x="544" y="1226" on="0"/>
        <pt x="528" y="1444" on="1"/>
      </contour>
    </TTGlyph>
    <TTGlyph name="Nacute" xMin="66" yMin="23" xMax="791" yMax="1894">
      <component glyphName="N" x="0" y="0" flags="0x204"/>
      <component glyphName="acute" x="367" y="299" flags="0x4"/>
    </TTGlyph>
    <TTGlyph name="Ncaron" xMin="66" yMin="23" xMax="791" yMax="1903">
      <component glyphName="N" x="0" y="0" flags="0x204"/>
      <component glyphName="caron" x="199" y="322" flags="0x4"/>
    </TTGlyph>
    <TTGlyph name="Ncommaaccent" xMin="66" yMin="-293" xMax="791" yMax="1448">
      <component glyphName="N" x="0" y="0" flags="0x204"/>
      <component glyphName="uni0326" x="272" y="43" flags="0x4"/>
    </TTGlyph>
    <TTGlyph name="Ntilde" xMin="66" yMin="23" xMax="791" yMax="1784">
      <component glyphName="N" x="0" y="0" flags="0x204"/>
      <component glyphName="tilde" x="133" y="297" flags="0x4"/>
    </TTGlyph>
    <TTGlyph name="O" xMin="41" yMin="-35" xMax="743" yMax="1458">
      <contour>
        <pt x="743" y="700" on="1"/>
        <pt x="743" y="499" on="0"/>
        <pt x="688" y="219" on="0"/>
        <pt x="594" y="44" on="0"/>
        <pt x="466" y="-35" on="0"/>
        <pt x="393" y="-35" on="1"/>
        <pt x="320" y="-35" on="0"/>
        <pt x="192" y="40" on="0"/>
        <pt x="96" y="212" on="0"/>
        <pt x="41" y="494" on="0"/>
        <pt x="41" y="700" on="1"/>
        <pt x="41" y="907" on="0"/>
        <pt x="96" y="1196" on="0"/>
        <pt x="192" y="1377" on="0"/>
        <pt x="320" y="1458" on="0"/>
        <pt x="393" y="1458" on="1"/>
        <pt x="466" y="1458" on="0"/>
        <pt x="594" y="1379" on="0"/>
        <pt x="688" y="1199" on="0"/>
        <pt x="743" y="910" on="0"/>
      </contour>
      <contour>
        <pt x="520" y="700" on="1"/>
        <pt x="520" y="857" on="0"/>
        <pt x="500" y="1073" on="0"/>
        <pt x="465" y="1208" on="0"/>
        <pt x="419" y="1268" on="0"/>
        <pt x="393" y="1268" on="1"/>
        <pt x="366" y="1268" on="0"/>
        <pt x="319" y="1207" on="0"/>
        <pt x="284" y="1072" on="0"/>
        <pt x="264" y="855" on="0"/>
        <pt x="264" y="700" on="1"/>
        <pt x="264" y="546" on="0"/>
        <pt x="284" y="337" on="0"/>
        <pt x="319" y="210" on="0"/>
        <pt x="366" y="156" on="0"/>
        <pt x="393" y="156" on="1"/>
        <pt x="419" y="156" on="0"/>
        <pt x="465" y="213" on="0"/>
        <pt x="500" y="342" on="0"/>
        <pt x="520" y="550" on="0"/>
      </contour>
    </TTGlyph>
    <TTGlyph name="OE" xMin="41" yMin="-35" xMax="1071" yMax="1458">
      <contour>
        <pt x="1071" y="-2" on="1"/>
        <pt x="933" y="4" on="0"/>
        <pt x="682" y="1" on="0"/>
        <pt x="547" y="-8" on="1"/>
        <pt x="547" y="16" on="1"/>
        <pt x="479" y="-35" on="0"/>
        <pt x="393" y="-35" on="1"/>
        <pt x="320" y="-35" on="0"/>
        <pt x="192" y="40" on="0"/>
        <pt x="96" y="212" on="0"/>
        <pt x="41" y="494" on="0"/>
        <pt x="41" y="700" on="1"/>
        <pt x="41" y="907" on="0"/>
        <pt x="96" y="1196" on="0"/>
        <pt x="192" y="1377" on="0"/>
        <pt x="320" y="1458" on="0"/>
        <pt x="393" y="1458" on="1"/>
        <pt x="435" y="1458" on="0"/>
        <pt x="514" y="1433" on="0"/>
        <pt x="549" y="1405" on="1"/>
        <pt x="547" y="1413" on="0"/>
        <pt x="547" y="1428" on="0"/>
        <pt x="547" y="1436" on="1"/>
        <pt x="615" y="1431" on="0"/>
        <pt x="739" y="1427" on="0"/>
        <pt x="860" y="1428" on="0"/>
        <pt x="984" y="1434" on="0"/>
        <pt x="1053" y="1440" on="1"/>
        <pt x="1053" y="1210" on="1"/>
        <pt x="980" y="1224" on="0"/>
        <pt x="839" y="1235" on="0"/>
        <pt x="770" y="1233" on="1"/>
        <pt x="761" y="1108" on="0"/>
        <pt x="754" y="860" on="0"/>
        <pt x="752" y="735" on="1"/>
        <pt x="853" y="729" on="0"/>
        <pt x="954" y="735" on="1"/>
        <pt x="954" y="535" on="1"/>
        <pt x="905" y="537" on="0"/>
        <pt x="803" y="540" on="0"/>
        <pt x="752" y="537" on="1"/>
        <pt x="748" y="180" on="1"/>
        <pt x="829" y="182" on="0"/>
        <pt x="984" y="194" on="0"/>
        <pt x="1071" y="207" on="1"/>
      </contour>
      <contour>
        <pt x="520" y="700" on="1"/>
        <pt x="520" y="857" on="0"/>
        <pt x="500" y="1073" on="0"/>
        <pt x="465" y="1208" on="0"/>
        <pt x="419" y="1268" on="0"/>
        <pt x="393" y="1268" on="1"/>
        <pt x="366" y="1268" on="0"/>
        <pt x="319" y="1207" on="0"/>
        <pt x="284" y="1072" on="0"/>
        <pt x="264" y="855" on="0"/>
        <pt x="264" y="700" on="1"/>
        <pt x="264" y="546" on="0"/>
        <pt x="284" y="337" on="0"/>
        <pt x="319" y="210" on="0"/>
        <pt x="366" y="156" on="0"/>
        <pt x="393" y="156" on="1"/>
        <pt x="419" y="156" on="0"/>
        <pt x="465" y="213" on="0"/>
        <pt x="500" y="342" on="0"/>
        <pt x="520" y="550" on="0"/>
      </contour>
    </TTGlyph>
    <TTGlyph name="Oacute" xMin="41" yMin="-35" xMax="743" yMax="1917">
      <component glyphName="O" x="0" y="0" flags="0x204"/>
      <component glyphName="acute" x="377" y="322" flags="0x4"/>
    </TTGlyph>
    <TTGlyph name="Obreve" xMin="41" yMin="-35" xMax="743" yMax="1876">
      <component glyphName="O" x="0" y="0" flags="0x204"/>
      <component glyphName="breve" x="174" y="346" flags="0x4"/>
    </TTGlyph>
    <TTGlyph name="Ocircumflex" xMin="41" yMin="-35" xMax="743" yMax="1900">
      <component glyphName="O" x="0" y="0" flags="0x204"/>
      <component glyphName="circumflex" x="166" y="319" flags="0x4"/>
    </TTGlyph>
    <TTGlyph name="Odieresis" xMin="41" yMin="-35" xMax="743" yMax="1716">
      <component glyphName="O" x="0" y="0" flags="0x204"/>
      <component glyphName="dieresis" x="150" y="315" flags="0x4"/>
    </TTGlyph>
    <TTGlyph name="Ograve" xMin="41" yMin="-35" xMax="743" yMax="1906">
      <component glyphName="O" x="0" y="0" flags="0x204"/>
      <component glyphName="grave" x="49" y="311" flags="0x4"/>
    </TTGlyph>
    <TTGlyph name="Ohungarumlaut" xMin="41" yMin="-35" xMax="821" yMax="1903">
      <component glyphName="O" x="0" y="0" flags="0x204"/>
      <component glyphName="hungarumlaut" x="227" y="328" flags="0x4"/>
    </TTGlyph>
    <TTGlyph name="Omacron" xMin="41" yMin="-35" xMax="743" yMax="1708">
      <component glyphName="O" x="0" y="0" flags="0x204"/>
      <component glyphName="macron" x="158" y="297" flags="0x4"/>
    </TTGlyph>
    <TTGlyph name="Omega" xMin="43" yMin="2" xMax="756" yMax="1475">
      <contour>
        <pt x="727" y="18" on="1"/>
        <pt x="436" y="18" on="1"/>
        <pt x="430" y="301" on="1"/>
        <pt x="448" y="320" on="0"/>
        <pt x="475" y="382" on="0"/>
        <pt x="496" y="458" on="0"/>
        <pt x="509" y="543" on="0"/>
        <pt x="514" y="585" on="1"/>
        <pt x="525" y="683" on="0"/>
        <pt x="526" y="795" on="1"/>
        <pt x="526" y="891" on="0"/>
        <pt x="518" y="1068" on="0"/>
        <pt x="494" y="1205" on="0"/>
        <pt x="453" y="1286" on="0"/>
        <pt x="420" y="1286" on="1"/>
        <pt x="387" y="1286" on="0"/>
        <pt x="334" y="1218" on="0"/>
        <pt x="296" y="1092" on="0"/>
        <pt x="276" y="915" on="0"/>
        <pt x="276" y="807" on="1"/>
        <pt x="278" y="697" on="0"/>
        <pt x="289" y="599" on="1"/>
        <pt x="294" y="557" on="0"/>
        <pt x="308" y="472" on="0"/>
        <pt x="329" y="394" on="0"/>
        <pt x="358" y="329" on="0"/>
        <pt x="377" y="309" on="1"/>
        <pt x="377" y="2" on="1"/>
        <pt x="86" y="2" on="1"/>
        <pt x="86" y="221" on="1"/>
        <pt x="238" y="211" on="1"/>
        <pt x="240" y="287" on="1"/>
        <pt x="181" y="330" on="0"/>
        <pt x="105" y="461" on="0"/>
        <pt x="61" y="610" on="0"/>
        <pt x="43" y="765" on="0"/>
        <pt x="43" y="834" on="1"/>
        <pt x="43" y="1012" on="0"/>
        <pt x="97" y="1257" on="0"/>
        <pt x="196" y="1408" on="0"/>
        <pt x="335" y="1475" on="0"/>
        <pt x="420" y="1475" on="1"/>
        <pt x="514" y="1475" on="0"/>
        <pt x="643" y="1383" on="0"/>
        <pt x="722" y="1212" on="0"/>
        <pt x="756" y="971" on="0"/>
        <pt x="756" y="823" on="1"/>
        <pt x="756" y="742" on="0"/>
        <pt x="738" y="593" on="0"/>
        <pt x="694" y="459" on="0"/>
        <pt x="617" y="340" on="0"/>
        <pt x="559" y="289" on="1"/>
        <pt x="565" y="221" on="1"/>
        <pt x="727" y="236" on="1"/>
      </contour>
    </TTGlyph>
    <TTGlyph name="Oslash" xMin="41" yMin="-90" xMax="752" yMax="1493">
      <contour>
        <pt x="752" y="1477" on="1"/>
        <pt x="741" y="1446" on="0"/>
        <pt x="728" y="1408" on="1"/>
        <pt x="717" y="1376" on="0"/>
        <pt x="686" y="1285" on="0"/>
        <pt x="668" y="1231" on="1"/>
        <pt x="703" y="1140" on="0"/>
        <pt x="743" y="878" on="0"/>
        <pt x="743" y="700" on="1"/>
        <pt x="743" y="499" on="0"/>
        <pt x="688" y="219" on="0"/>
        <pt x="594" y="44" on="0"/>
        <pt x="466" y="-35" on="0"/>
        <pt x="393" y="-35" on="1"/>
        <pt x="361" y="-35" on="0"/>
        <pt x="298" y="-22" on="0"/>
        <pt x="270" y="-6" on="1"/>
        <pt x="248" y="-90" on="1"/>
        <pt x="217" y="-85" on="0"/>
        <pt x="185" y="-81" on="1"/>
        <pt x="158" y="-78" on="0"/>
        <pt x="93" y="-72" on="0"/>
        <pt x="63" y="-72" on="1"/>
        <pt x="43" y="-72" on="1"/>
        <pt x="62" y="-31" on="0"/>
        <pt x="107" y="79" on="0"/>
        <pt x="133" y="147" on="1"/>
        <pt x="90" y="235" on="0"/>
        <pt x="41" y="505" on="0"/>
        <pt x="41" y="700" on="1"/>
        <pt x="41" y="907" on="0"/>
        <pt x="96" y="1196" on="0"/>
        <pt x="192" y="1377" on="0"/>
        <pt x="320" y="1458" on="0"/>
        <pt x="393" y="1458" on="1"/>
        <pt x="433" y="1458" on="0"/>
        <pt x="509" y="1435" on="0"/>
        <pt x="543" y="1409" on="1"/>
        <pt x="548" y="1429" on="0"/>
        <pt x="557" y="1460" on="0"/>
        <pt x="560" y="1471" on="1"/>
        <pt x="564" y="1483" on="0"/>
        <pt x="567" y="1493" on="1"/>
      </contour>
      <contour>
        <pt x="264" y="700" on="1"/>
        <pt x="264" y="654" on="0"/>
        <pt x="266" y="574" on="0"/>
        <pt x="268" y="537" on="1"/>
        <pt x="296" y="621" on="0"/>
        <pt x="351" y="790" on="0"/>
        <pt x="403" y="955" on="0"/>
        <pt x="450" y="1109" on="0"/>
        <pt x="471" y="1178" on="1"/>
        <pt x="456" y="1226" on="0"/>
        <pt x="415" y="1268" on="0"/>
        <pt x="393" y="1268" on="1"/>
        <pt x="366" y="1268" on="0"/>
        <pt x="319" y="1207" on="0"/>
        <pt x="284" y="1072" on="0"/>
        <pt x="264" y="855" on="0"/>
      </contour>
      <contour>
        <pt x="520" y="700" on="1"/>
        <pt x="520" y="722" on="0"/>
        <pt x="520" y="764" on="0"/>
        <pt x="518" y="784" on="1"/>
        <pt x="469" y="635" on="0"/>
        <pt x="372" y="333" on="0"/>
        <pt x="332" y="199" on="1"/>
        <pt x="346" y="176" on="0"/>
        <pt x="376" y="156" on="0"/>
        <pt x="393" y="156" on="1"/>
        <pt x="419" y="156" on="0"/>
        <pt x="465" y="213" on="0"/>
        <pt x="500" y="342" on="0"/>
        <pt x="520" y="550" on="0"/>
      </contour>
    </TTGlyph>
    <TTGlyph name="Oslashacute" xMin="41" yMin="-90" xMax="752" yMax="1902">
      <component glyphName="Oslash" x="0" y="0" flags="0x204"/>
      <component glyphName="acute" x="371" y="307" flags="0x4"/>
    </TTGlyph>
    <TTGlyph name="Otilde" xMin="41" yMin="-35" xMax="743" yMax="1782">
      <component glyphName="O" x="0" y="0" flags="0x204"/>
      <component glyphName="tilde" x="96" y="295" flags="0x4"/>
    </TTGlyph>
    <TTGlyph name="P" xMin="55" yMin="-8" xMax="662" yMax="1462">
      <contour>
        <pt x="662" y="993" on="1"/>
        <pt x="662" y="907" on="0"/>
        <pt x="617" y="742" on="0"/>
        <pt x="524" y="602" on="0"/>
        <pt x="382" y="495" on="0"/>
        <pt x="285" y="467" on="1"/>
        <pt x="287" y="346" on="0"/>
        <pt x="294" y="109" on="0"/>
        <pt x="299" y="-8" on="1"/>
        <pt x="55" y="-8" on="1"/>
        <pt x="71" y="219" on="0"/>
        <pt x="86" y="673" on="0"/>
        <pt x="86" y="903" on="1"/>
        <pt x="86" y="1036" on="0"/>
        <pt x="82" y="1301" on="0"/>
        <pt x="76" y="1436" on="1"/>
        <pt x="129" y="1452" on="0"/>
        <pt x="238" y="1462" on="0"/>
        <pt x="276" y="1462" on="1"/>
        <pt x="303" y="1462" on="0"/>
        <pt x="382" y="1450" on="0"/>
        <pt x="467" y="1415" on="0"/>
        <pt x="552" y="1352" on="0"/>
        <pt x="620" y="1247" on="0"/>
        <pt x="662" y="1097" on="0"/>
      </contour>
      <contour>
        <pt x="285" y="637" on="1"/>
        <pt x="318" y="649" on="0"/>
        <pt x="367" y="689" on="0"/>
        <pt x="404" y="738" on="0"/>
        <pt x="429" y="794" on="0"/>
        <pt x="437" y="821" on="1"/>
        <pt x="456" y="884" on="0"/>
        <pt x="459" y="958" on="1"/>
        <pt x="459" y="959" on="0"/>
        <pt x="458" y="1003" on="0"/>
        <pt x="449" y="1070" on="0"/>
        <pt x="429" y="1151" on="0"/>
        <pt x="394" y="1225" on="0"/>
        <pt x="339" y="1284" on="0"/>
        <pt x="299" y="1296" on="1"/>
        <pt x="291" y="1141" on="0"/>
        <pt x="285" y="830" on="0"/>
        <pt x="285" y="672" on="1"/>
      </contour>
    </TTGlyph>
    <TTGlyph name="Q" xMin="41" yMin="-274" xMax="743" yMax="1458">
      <contour>
        <pt x="528" y="-274" on="1"/>
        <pt x="514" y="-211" on="0"/>
        <pt x="472" y="-89" on="0"/>
        <pt x="444" y="-29" on="1"/>
        <pt x="420" y="-35" on="0"/>
        <pt x="393" y="-35" on="1"/>
        <pt x="320" y="-35" on="0"/>
        <pt x="192" y="40" on="0"/>
        <pt x="96" y="212" on="0"/>
        <pt x="41" y="494" on="0"/>
        <pt x="41" y="700" on="1"/>
        <pt x="41" y="907" on="0"/>
        <pt x="96" y="1196" on="0"/>
        <pt x="192" y="1377" on="0"/>
        <pt x="320" y="1458" on="0"/>
        <pt x="393" y="1458" on="1"/>
        <pt x="466" y="1458" on="0"/>
        <pt x="594" y="1379" on="0"/>
        <pt x="688" y="1199" on="0"/>
        <pt x="743" y="910" on="0"/>
        <pt x="743" y="700" on="1"/>
        <pt x="743" y="566" on="0"/>
        <pt x="718" y="353" on="0"/>
        <pt x="673" y="189" on="0"/>
        <pt x="608" y="74" on="0"/>
        <pt x="569" y="37" on="1"/>
        <pt x="601" y="-17" on="0"/>
        <pt x="678" y="-118" on="0"/>
        <pt x="721" y="-166" on="1"/>
      </contour>
      <contour>
        <pt x="520" y="700" on="1"/>
        <pt x="520" y="857" on="0"/>
        <pt x="500" y="1073" on="0"/>
        <pt x="465" y="1208" on="0"/>
        <pt x="419" y="1268" on="0"/>
        <pt x="393" y="1268" on="1"/>
        <pt x="366" y="1268" on="0"/>
        <pt x="319" y="1207" on="0"/>
        <pt x="284" y="1072" on="0"/>
        <pt x="264" y="855" on="0"/>
        <pt x="264" y="700" on="1"/>
        <pt x="264" y="546" on="0"/>
        <pt x="284" y="337" on="0"/>
        <pt x="319" y="210" on="0"/>
        <pt x="366" y="156" on="0"/>
        <pt x="393" y="156" on="1"/>
        <pt x="419" y="156" on="0"/>
        <pt x="465" y="213" on="0"/>
        <pt x="500" y="342" on="0"/>
        <pt x="520" y="550" on="0"/>
      </contour>
    </TTGlyph>
    <TTGlyph name="R" xMin="55" yMin="-12" xMax="694" yMax="1462">
      <contour>
        <pt x="653" y="1008" on="1"/>
        <pt x="653" y="941" on="0"/>
        <pt x="628" y="806" on="0"/>
        <pt x="572" y="681" on="0"/>
        <pt x="484" y="572" on="0"/>
        <pt x="420" y="530" on="1"/>
        <pt x="476" y="387" on="0"/>
        <pt x="611" y="124" on="0"/>
        <pt x="694" y="2" on="1"/>
        <pt x="444" y="-12" on="1"/>
        <pt x="274" y="471" on="1"/>
        <pt x="278" y="349" on="0"/>
        <pt x="290" y="109" on="0"/>
        <pt x="299" y="-8" on="1"/>
        <pt x="55" y="-8" on="1"/>
        <pt x="71" y="219" on="0"/>
        <pt x="86" y="673" on="0"/>
        <pt x="86" y="903" on="1"/>
        <pt x="86" y="1036" on="0"/>
        <pt x="82" y="1301" on="0"/>
        <pt x="76" y="1436" on="1"/>
        <pt x="129" y="1452" on="0"/>
        <pt x="238" y="1462" on="0"/>
        <pt x="276" y="1462" on="1"/>
        <pt x="303" y="1462" on="0"/>
        <pt x="380" y="1451" on="0"/>
        <pt x="464" y="1417" on="0"/>
        <pt x="547" y="1355" on="0"/>
        <pt x="612" y="1254" on="0"/>
        <pt x="653" y="1109" on="0"/>
      </contour>
      <contour>
        <pt x="272" y="633" on="1"/>
        <pt x="307" y="643" on="0"/>
        <pt x="360" y="682" on="0"/>
        <pt x="400" y="732" on="0"/>
        <pt x="427" y="788" on="0"/>
        <pt x="436" y="816" on="1"/>
        <pt x="456" y="881" on="0"/>
        <pt x="459" y="958" on="1"/>
        <pt x="459" y="960" on="0"/>
        <pt x="458" y="1005" on="0"/>
        <pt x="448" y="1073" on="0"/>
        <pt x="429" y="1153" on="0"/>
        <pt x="393" y="1228" on="0"/>
        <pt x="337" y="1286" on="0"/>
        <pt x="297" y="1298" on="1"/>
        <pt x="285" y="1141" on="0"/>
        <pt x="272" y="830" on="0"/>
        <pt x="272" y="672" on="1"/>
      </contour>
    </TTGlyph>
    <TTGlyph name="Racute" xMin="55" yMin="-12" xMax="694" yMax="1917">
      <component glyphName="R" x="0" y="0" flags="0x204"/>
      <component glyphName="acute" x="315" y="322" flags="0x4"/>
    </TTGlyph>
    <TTGlyph name="Rcaron" xMin="55" yMin="-12" xMax="694" yMax="1909">
      <component glyphName="R" x="0" y="0" flags="0x204"/>
      <component glyphName="caron" x="100" y="328" flags="0x4"/>
    </TTGlyph>
    <TTGlyph name="Rcommaaccent" xMin="55" yMin="-336" xMax="694" yMax="1462">
      <component glyphName="R" x="0" y="0" flags="0x204"/>
      <component glyphName="uni0326" x="195" y="0" flags="0x4"/>
    </TTGlyph>
    <TTGlyph name="S" xMin="23" yMin="-29" xMax="590" yMax="1460">
      <contour>
        <pt x="573" y="354" on="1"/>
        <pt x="573" y="275" on="0"/>
        <pt x="540" y="156" on="0"/>
        <pt x="487" y="71" on="0"/>
        <pt x="421" y="16" on="0"/>
        <pt x="352" y="-16" on="0"/>
        <pt x="289" y="-29" on="0"/>
        <pt x="266" y="-29" on="1"/>
        <pt x="254" y="-29" on="0"/>
        <pt x="212" y="-26" on="0"/>
        <pt x="158" y="-16" on="0"/>
        <pt x="93" y="3" on="0"/>
        <pt x="57" y="20" on="1"/>
        <pt x="68" y="272" on="1"/>
        <pt x="127" y="222" on="0"/>
        <pt x="220" y="188" on="0"/>
        <pt x="252" y="188" on="1"/>
        <pt x="314" y="188" on="0"/>
        <pt x="377" y="278" on="0"/>
        <pt x="377" y="350" on="1"/>
        <pt x="377" y="398" on="0"/>
        <pt x="330" y="517" on="0"/>
        <pt x="270" y="586" on="1"/>
        <pt x="229" y="634" on="0"/>
        <pt x="141" y="738" on="0"/>
        <pt x="69" y="856" on="0"/>
        <pt x="23" y="992" on="0"/>
        <pt x="23" y="1071" on="1"/>
        <pt x="23" y="1171" on="0"/>
        <pt x="78" y="1317" on="0"/>
        <pt x="170" y="1413" on="0"/>
        <pt x="289" y="1460" on="0"/>
        <pt x="354" y="1460" on="1"/>
        <pt x="411" y="1460" on="0"/>
        <pt x="530" y="1429" on="0"/>
        <pt x="590" y="1397" on="1"/>
        <pt x="571" y="1145" on="1"/>
        <pt x="545" y="1178" on="0"/>
        <pt x="488" y="1217" on="0"/>
        <pt x="435" y="1237" on="0"/>
        <pt x="390" y="1243" on="0"/>
        <pt x="375" y="1243" on="1"/>
        <pt x="346" y="1243" on="0"/>
        <pt x="297" y="1214" on="0"/>
        <pt x="262" y="1165" on="0"/>
        <pt x="242" y="1098" on="0"/>
        <pt x="242" y="1061" on="1"/>
        <pt x="242" y="1004" on="0"/>
        <pt x="291" y="912" on="0"/>
        <pt x="365" y="822" on="0"/>
        <pt x="450" y="727" on="0"/>
        <pt x="524" y="608" on="0"/>
        <pt x="573" y="455" on="0"/>
      </contour>
    </TTGlyph>
    <TTGlyph name="Sacute" xMin="23" yMin="-29" xMax="590" yMax="1917">
      <component glyphName="S" x="0" y="0" flags="0x204"/>
      <component glyphName="acute" x="229" y="322" flags="0x4"/>
    </TTGlyph>
    <TTGlyph name="Scaron" xMin="23" yMin="-29" xMax="590" yMax="1907">
      <component glyphName="S" x="0" y="0" flags="0x204"/>
      <component glyphName="caron" x="80" y="326" flags="0x4"/>
    </TTGlyph>
    <TTGlyph name="Scedilla" xMin="23" yMin="-361" xMax="590" yMax="1460">
      <contour>
        <pt x="416" y="-213" on="1"/>
        <pt x="416" y="-243" on="0"/>
        <pt x="394" y="-292" on="0"/>
        <pt x="355" y="-329" on="0"/>
        <pt x="304" y="-352" on="0"/>
        <pt x="276" y="-356" on="1"/>
        <pt x="246" y="-361" on="0"/>
        <pt x="200" y="-358" on="0"/>
        <pt x="183" y="-353" on="1"/>
        <pt x="164" y="-348" on="0"/>
        <pt x="150" y="-340" on="1"/>
        <pt x="150" y="-229" on="1"/>
        <pt x="154" y="-234" on="0"/>
        <pt x="175" y="-242" on="0"/>
        <pt x="199" y="-247" on="0"/>
        <pt x="222" y="-250" on="0"/>
        <pt x="229" y="-250" on="1"/>
        <pt x="252" y="-250" on="0"/>
        <pt x="287" y="-233" on="0"/>
        <pt x="287" y="-205" on="1"/>
        <pt x="287" y="-192" on="0"/>
        <pt x="274" y="-174" on="0"/>
        <pt x="254" y="-163" on="0"/>
        <pt x="230" y="-158" on="0"/>
        <pt x="219" y="-158" on="1"/>
        <pt x="205" y="-158" on="0"/>
        <pt x="176" y="-161" on="0"/>
        <pt x="162" y="-166" on="1"/>
        <pt x="215" y="-25" on="1"/>
        <pt x="184" y="-21" on="0"/>
        <pt x="104" y="-1" on="0"/>
        <pt x="57" y="20" on="1"/>
        <pt x="68" y="272" on="1"/>
        <pt x="127" y="222" on="0"/>
        <pt x="220" y="188" on="0"/>
        <pt x="252" y="188" on="1"/>
        <pt x="314" y="188" on="0"/>
        <pt x="377" y="278" on="0"/>
        <pt x="377" y="350" on="1"/>
        <pt x="377" y="398" on="0"/>
        <pt x="330" y="517" on="0"/>
        <pt x="270" y="586" on="1"/>
        <pt x="229" y="634" on="0"/>
        <pt x="141" y="738" on="0"/>
        <pt x="69" y="856" on="0"/>
        <pt x="23" y="992" on="0"/>
        <pt x="23" y="1071" on="1"/>
        <pt x="23" y="1171" on="0"/>
        <pt x="78" y="1317" on="0"/>
        <pt x="170" y="1413" on="0"/>
        <pt x="289" y="1460" on="0"/>
        <pt x="354" y="1460" on="1"/>
        <pt x="411" y="1460" on="0"/>
        <pt x="530" y="1429" on="0"/>
        <pt x="590" y="1397" on="1"/>
        <pt x="571" y="1145" on="1"/>
        <pt x="545" y="1178" on="0"/>
        <pt x="488" y="1217" on="0"/>
        <pt x="435" y="1237" on="0"/>
        <pt x="390" y="1243" on="0"/>
        <pt x="375" y="1243" on="1"/>
        <pt x="346" y="1243" on="0"/>
        <pt x="297" y="1214" on="0"/>
        <pt x="262" y="1165" on="0"/>
        <pt x="242" y="1098" on="0"/>
        <pt x="242" y="1061" on="1"/>
        <pt x="242" y="1004" on="0"/>
        <pt x="291" y="912" on="0"/>
        <pt x="365" y="822" on="0"/>
        <pt x="450" y="727" on="0"/>
        <pt x="524" y="608" on="0"/>
        <pt x="573" y="455" on="0"/>
        <pt x="573" y="354" on="1"/>
        <pt x="573" y="282" on="0"/>
        <pt x="546" y="173" on="0"/>
        <pt x="502" y="90" on="0"/>
        <pt x="445" y="33" on="0"/>
        <pt x="383" y="-4" on="0"/>
        <pt x="322" y="-23" on="0"/>
        <pt x="297" y="-27" on="1"/>
        <pt x="285" y="-82" on="1"/>
        <pt x="314" y="-81" on="0"/>
        <pt x="362" y="-100" on="0"/>
        <pt x="397" y="-135" on="0"/>
        <pt x="416" y="-184" on="0"/>
      </contour>
    </TTGlyph>
    <TTGlyph name="Scircumflex" xMin="23" yMin="-29" xMax="590" yMax="1892">
      <component glyphName="S" x="0" y="0" flags="0x204"/>
      <component glyphName="circumflex" x="82" y="311" flags="0x4"/>
    </TTGlyph>
    <TTGlyph name="T" xMin="16" yMin="-4" xMax="571" yMax="1434">
      <contour>
        <pt x="565" y="1227" on="1"/>
        <pt x="533" y="1229" on="0"/>
        <pt x="450" y="1231" on="0"/>
        <pt x="403" y="1231" on="1"/>
        <pt x="396" y="1138" on="0"/>
        <pt x="387" y="939" on="0"/>
        <pt x="381" y="734" on="0"/>
        <pt x="379" y="527" on="0"/>
        <pt x="379" y="426" on="1"/>
        <pt x="379" y="311" on="0"/>
        <pt x="382" y="96" on="0"/>
        <pt x="387" y="-4" on="1"/>
        <pt x="174" y="-4" on="1"/>
        <pt x="183" y="166" on="0"/>
        <pt x="193" y="550" on="0"/>
        <pt x="193" y="745" on="1"/>
        <pt x="193" y="872" on="0"/>
        <pt x="187" y="1114" on="0"/>
        <pt x="184" y="1229" on="1"/>
        <pt x="136" y="1229" on="0"/>
        <pt x="50" y="1227" on="0"/>
        <pt x="16" y="1225" on="1"/>
        <pt x="18" y="1434" on="1"/>
        <pt x="54" y="1431" on="0"/>
        <pt x="144" y="1428" on="0"/>
        <pt x="243" y="1426" on="0"/>
        <pt x="347" y="1425" on="0"/>
        <pt x="397" y="1425" on="1"/>
        <pt x="447" y="1425" on="0"/>
        <pt x="536" y="1425" on="0"/>
        <pt x="571" y="1427" on="1"/>
      </contour>
    </TTGlyph>
    <TTGlyph name="Tbar" xMin="16" yMin="-4" xMax="571" yMax="1434">
      <contour>
        <pt x="514" y="670" on="1"/>
        <pt x="379" y="670" on="1"/>
        <pt x="379" y="426" on="1"/>
        <pt x="379" y="311" on="0"/>
        <pt x="382" y="96" on="0"/>
        <pt x="387" y="-4" on="1"/>
        <pt x="174" y="-4" on="1"/>
        <pt x="182" y="149" on="0"/>
        <pt x="191" y="493" on="0"/>
        <pt x="193" y="670" on="1"/>
        <pt x="57" y="670" on="1"/>
        <pt x="57" y="842" on="1"/>
        <pt x="193" y="838" on="1"/>
        <pt x="184" y="1229" on="1"/>
        <pt x="136" y="1229" on="0"/>
        <pt x="50" y="1227" on="0"/>
        <pt x="16" y="1225" on="1"/>
        <pt x="18" y="1434" on="1"/>
        <pt x="54" y="1431" on="0"/>
        <pt x="144" y="1428" on="0"/>
        <pt x="243" y="1426" on="0"/>
        <pt x="347" y="1425" on="0"/>
        <pt x="397" y="1425" on="1"/>
        <pt x="447" y="1425" on="0"/>
        <pt x="536" y="1425" on="0"/>
        <pt x="571" y="1427" on="1"/>
        <pt x="565" y="1227" on="1"/>
        <pt x="533" y="1229" on="0"/>
        <pt x="450" y="1231" on="0"/>
        <pt x="403" y="1231" on="1"/>
        <pt x="395" y="1137" on="0"/>
        <pt x="386" y="937" on="0"/>
        <pt x="383" y="831" on="1"/>
        <pt x="514" y="829" on="1"/>
      </contour>
    </TTGlyph>
    <TTGlyph name="Tcaron" xMin="16" yMin="-4" xMax="571" yMax="1888">
      <component glyphName="T" x="0" y="0" flags="0x204"/>
      <component glyphName="caron" x="66" y="307" flags="0x4"/>
    </TTGlyph>
    <TTGlyph name="Tcommaaccent" xMin="16" yMin="-336" xMax="571" yMax="1434">
      <component glyphName="T" x="0" y="0" flags="0x204"/>
      <component glyphName="uni0326" x="139" y="0" flags="0x4"/>
    </TTGlyph>
    <TTGlyph name="Thorn" xMin="55" yMin="-8" xMax="667" yMax="1458">
      <contour>
        <pt x="659" y="631" on="1"/>
        <pt x="646" y="525" on="0"/>
        <pt x="603" y="434" on="1"/>
        <pt x="585" y="395" on="0"/>
        <pt x="531" y="317" on="0"/>
        <pt x="455" y="249" on="0"/>
        <pt x="356" y="196" on="0"/>
        <pt x="293" y="182" on="1"/>
        <pt x="295" y="136" on="0"/>
        <pt x="296" y="46" on="0"/>
        <pt x="299" y="-8" on="1"/>
        <pt x="55" y="-8" on="1"/>
        <pt x="80" y="352" on="0"/>
        <pt x="91" y="1092" on="0"/>
        <pt x="76" y="1458" on="1"/>
        <pt x="144" y="1453" on="0"/>
        <pt x="274" y="1448" on="0"/>
        <pt x="328" y="1448" on="1"/>
        <pt x="303" y="1176" on="1"/>
        <pt x="332" y="1174" on="1"/>
        <pt x="365" y="1171" on="0"/>
        <pt x="444" y="1145" on="0"/>
        <pt x="522" y="1092" on="0"/>
        <pt x="593" y="1009" on="0"/>
        <pt x="644" y="890" on="0"/>
        <pt x="667" y="732" on="0"/>
      </contour>
      <contour>
        <pt x="299" y="1012" on="1"/>
        <pt x="294" y="909" on="0"/>
        <pt x="288" y="736" on="0"/>
        <pt x="285" y="580" on="0"/>
        <pt x="285" y="431" on="0"/>
        <pt x="287" y="352" on="1"/>
        <pt x="319" y="364" on="0"/>
        <pt x="368" y="404" on="0"/>
        <pt x="404" y="454" on="0"/>
        <pt x="429" y="509" on="0"/>
        <pt x="437" y="536" on="1"/>
        <pt x="455" y="599" on="0"/>
        <pt x="459" y="672" on="1"/>
        <pt x="457" y="755" on="0"/>
        <pt x="439" y="825" on="1"/>
        <pt x="431" y="855" on="0"/>
        <pt x="408" y="914" on="0"/>
        <pt x="375" y="965" on="0"/>
        <pt x="329" y="1003" on="0"/>
      </contour>
    </TTGlyph>
    <TTGlyph name="U" xMin="45" yMin="-16" xMax="678" yMax="1448">
      <contour>
        <pt x="637" y="1448" on="1"/>
        <pt x="660" y="1244" on="0"/>
        <pt x="678" y="827" on="0"/>
        <pt x="678" y="600" on="1"/>
        <pt x="678" y="523" on="0"/>
        <pt x="665" y="372" on="0"/>
        <pt x="634" y="235" on="0"/>
        <pt x="583" y="118" on="0"/>
        <pt x="507" y="33" on="0"/>
        <pt x="403" y="-16" on="0"/>
        <pt x="336" y="-16" on="1"/>
        <pt x="276" y="-16" on="0"/>
        <pt x="186" y="29" on="0"/>
        <pt x="122" y="108" on="0"/>
        <pt x="79" y="215" on="0"/>
        <pt x="55" y="340" on="0"/>
        <pt x="45" y="476" on="0"/>
        <pt x="45" y="545" on="1"/>
        <pt x="45" y="753" on="0"/>
        <pt x="79" y="1180" on="0"/>
        <pt x="102" y="1409" on="1"/>
        <pt x="311" y="1405" on="1"/>
        <pt x="293" y="1190" on="0"/>
        <pt x="262" y="752" on="0"/>
        <pt x="262" y="520" on="1"/>
        <pt x="262" y="453" on="0"/>
        <pt x="270" y="333" on="0"/>
        <pt x="290" y="242" on="0"/>
        <pt x="321" y="188" on="0"/>
        <pt x="344" y="188" on="1"/>
        <pt x="371" y="188" on="0"/>
        <pt x="416" y="273" on="0"/>
        <pt x="447" y="412" on="0"/>
        <pt x="465" y="590" on="0"/>
        <pt x="465" y="682" on="1"/>
        <pt x="465" y="770" on="0"/>
        <pt x="462" y="948" on="0"/>
        <pt x="456" y="1131" on="0"/>
        <pt x="446" y="1322" on="0"/>
        <pt x="438" y="1425" on="1"/>
      </contour>
    </TTGlyph>
    <TTGlyph name="Uacute" xMin="45" yMin="-16" xMax="680" yMax="1896">
      <component glyphName="U" x="0" y="0" flags="0x204"/>
      <component glyphName="acute" x="322" y="301" flags="0x4"/>
    </TTGlyph>
    <TTGlyph name="Ubreve" xMin="45" yMin="-16" xMax="678" yMax="1852">
      <component glyphName="U" x="0" y="0" flags="0x204"/>
      <component glyphName="breve" x="152" y="322" flags="0x4"/>
    </TTGlyph>
    <TTGlyph name="Ucircumflex" xMin="45" yMin="-16" xMax="678" yMax="1880">
      <component glyphName="U" x="0" y="0" flags="0x204"/>
      <component glyphName="circumflex" x="135" y="299" flags="0x4"/>
    </TTGlyph>
    <TTGlyph name="Udieresis" xMin="45" yMin="-16" xMax="678" yMax="1704">
      <component glyphName="U" x="0" y="0" flags="0x204"/>
      <component glyphName="dieresis" x="119" y="303" flags="0x4"/>
    </TTGlyph>
    <TTGlyph name="Ugrave" xMin="45" yMin="-16" xMax="678" yMax="1884">
      <component glyphName="U" x="0" y="0" flags="0x204"/>
      <component glyphName="grave" x="72" y="289" flags="0x4"/>
    </TTGlyph>
    <TTGlyph name="Uhungarumlaut" xMin="45" yMin="-16" xMax="768" yMax="1888">
      <component glyphName="U" x="0" y="0" flags="0x204"/>
      <component glyphName="hungarumlaut" x="174" y="313" flags="0x4"/>
    </TTGlyph>
    <TTGlyph name="Umacron" xMin="45" yMin="-16" xMax="678" yMax="1702">
      <component glyphName="U" x="0" y="0" flags="0x204"/>
      <component glyphName="macron" x="135" y="291" flags="0x4"/>
    </TTGlyph>
    <TTGlyph name="Uogonek" xMin="45" yMin="-354" xMax="678" yMax="1448">
      <contour>
        <pt x="539" y="-260" on="1"/>
        <pt x="491" y="-307" on="0"/>
        <pt x="405" y="-354" on="0"/>
        <pt x="352" y="-354" on="1"/>
        <pt x="322" y="-354" on="0"/>
        <pt x="272" y="-330" on="0"/>
        <pt x="237" y="-290" on="0"/>
        <pt x="217" y="-238" on="0"/>
        <pt x="217" y="-209" on="1"/>
        <pt x="217" y="-175" on="0"/>
        <pt x="251" y="-73" on="0"/>
        <pt x="305" y="-14" on="1"/>
        <pt x="225" y="-6" on="0"/>
        <pt x="124" y="97" on="0"/>
        <pt x="66" y="254" on="0"/>
        <pt x="45" y="447" on="0"/>
        <pt x="45" y="545" on="1"/>
        <pt x="45" y="753" on="0"/>
        <pt x="79" y="1180" on="0"/>
        <pt x="102" y="1409" on="1"/>
        <pt x="311" y="1405" on="1"/>
        <pt x="293" y="1190" on="0"/>
        <pt x="262" y="752" on="0"/>
        <pt x="262" y="520" on="1"/>
        <pt x="262" y="453" on="0"/>
        <pt x="270" y="333" on="0"/>
        <pt x="290" y="242" on="0"/>
        <pt x="321" y="188" on="0"/>
        <pt x="344" y="188" on="1"/>
        <pt x="371" y="188" on="0"/>
        <pt x="416" y="273" on="0"/>
        <pt x="447" y="412" on="0"/>
        <pt x="465" y="590" on="0"/>
        <pt x="465" y="682" on="1"/>
        <pt x="465" y="770" on="0"/>
        <pt x="462" y="948" on="0"/>
        <pt x="456" y="1131" on="0"/>
        <pt x="446" y="1322" on="0"/>
        <pt x="438" y="1425" on="1"/>
        <pt x="637" y="1448" on="1"/>
        <pt x="660" y="1244" on="0"/>
        <pt x="678" y="827" on="0"/>
        <pt x="678" y="600" on="1"/>
        <pt x="678" y="498" on="0"/>
        <pt x="654" y="300" on="0"/>
        <pt x="595" y="136" on="0"/>
        <pt x="497" y="18" on="0"/>
        <pt x="422" y="-4" on="1"/>
        <pt x="407" y="-20" on="0"/>
        <pt x="376" y="-62" on="0"/>
        <pt x="349" y="-108" on="0"/>
        <pt x="332" y="-158" on="0"/>
        <pt x="332" y="-182" on="1"/>
        <pt x="332" y="-199" on="0"/>
        <pt x="353" y="-217" on="0"/>
        <pt x="369" y="-217" on="1"/>
        <pt x="398" y="-217" on="0"/>
        <pt x="440" y="-177" on="0"/>
        <pt x="459" y="-156" on="1"/>
      </contour>
    </TTGlyph>
    <TTGlyph name="Uring" xMin="45" yMin="-16" xMax="678" yMax="1864">
      <component glyphName="U" x="0" y="0" flags="0x204"/>
      <component glyphName="ring" x="178" y="297" flags="0x4"/>
    </TTGlyph>
    <TTGlyph name="Utilde" xMin="45" yMin="-16" xMax="678" yMax="1776">
      <component glyphName="U" x="0" y="0" flags="0x204"/>
      <component glyphName="tilde" x="76" y="289" flags="0x4"/>
    </TTGlyph>
    <TTGlyph name="V" xMin="8" yMin="-8" xMax="723" yMax="1432">
      <contour>
        <pt x="723" y="1415" on="1"/>
        <pt x="651" y="1058" on="0"/>
        <pt x="544" y="353" on="0"/>
        <pt x="506" y="-4" on="1"/>
        <pt x="205" y="-8" on="1"/>
        <pt x="170" y="352" on="0"/>
        <pt x="70" y="1062" on="0"/>
        <pt x="8" y="1419" on="1"/>
        <pt x="258" y="1423" on="1"/>
        <pt x="274" y="1123" on="0"/>
        <pt x="326" y="537" on="0"/>
        <pt x="358" y="242" on="1"/>
        <pt x="397" y="540" on="0"/>
        <pt x="457" y="1133" on="0"/>
        <pt x="475" y="1432" on="1"/>
      </contour>
    </TTGlyph>
    <TTGlyph name="W" xMin="37" yMin="-43" xMax="1047" yMax="1427">
      <contour>
        <pt x="1047" y="1401" on="1"/>
        <pt x="907" y="-39" on="1"/>
        <pt x="643" y="-39" on="1"/>
        <pt x="640" y="49" on="0"/>
        <pt x="633" y="204" on="0"/>
        <pt x="621" y="346" on="0"/>
        <pt x="606" y="482" on="0"/>
        <pt x="587" y="624" on="0"/>
        <pt x="563" y="777" on="0"/>
        <pt x="549" y="864" on="1"/>
        <pt x="530" y="752" on="0"/>
        <pt x="462" y="305" on="0"/>
        <pt x="414" y="-29" on="1"/>
        <pt x="137" y="-43" on="1"/>
        <pt x="37" y="1395" on="1"/>
        <pt x="289" y="1401" on="1"/>
        <pt x="288" y="1339" on="0"/>
        <pt x="288" y="1266" on="1"/>
        <pt x="287" y="1203" on="0"/>
        <pt x="287" y="1040" on="0"/>
        <pt x="287" y="948" on="1"/>
        <pt x="287" y="875" on="0"/>
        <pt x="287" y="725" on="0"/>
        <pt x="288" y="580" on="0"/>
        <pt x="289" y="446" on="0"/>
        <pt x="291" y="391" on="1"/>
        <pt x="428" y="1262" on="1"/>
        <pt x="659" y="1262" on="1"/>
        <pt x="768" y="432" on="1"/>
        <pt x="770" y="506" on="0"/>
        <pt x="775" y="671" on="0"/>
        <pt x="779" y="839" on="0"/>
        <pt x="782" y="1003" on="0"/>
        <pt x="784" y="1078" on="1"/>
        <pt x="788" y="1253" on="0"/>
        <pt x="791" y="1427" on="1"/>
      </contour>
    </TTGlyph>
    <TTGlyph name="Wacute" xMin="37" yMin="-43" xMax="1047" yMax="1757">
      <component glyphName="W" x="0" y="0" flags="0x204"/>
      <component glyphName="acute" x="502" y="162" flags="0x4"/>
    </TTGlyph>
    <TTGlyph name="Wcircumflex" xMin="37" yMin="-43" xMax="1047" yMax="1796">
      <component glyphName="W" x="0" y="0" flags="0x204"/>
      <component glyphName="circumflex" x="315" y="215" flags="0x4"/>
    </TTGlyph>
    <TTGlyph name="Wdieresis" xMin="37" yMin="-43" xMax="1047" yMax="1659">
      <component glyphName="W" x="0" y="0" flags="0x204"/>
      <component glyphName="dieresis" x="299" y="258" flags="0x4"/>
    </TTGlyph>
    <TTGlyph name="Wgrave" xMin="37" yMin="-43" xMax="1047" yMax="1757">
      <component glyphName="W" x="0" y="0" flags="0x204"/>
      <component glyphName="grave" x="233" y="162" flags="0x4"/>
    </TTGlyph>
    <TTGlyph name="X" xMin="4" yMin="-12" xMax="713" yMax="1436">
      <contour>
        <pt x="713" y="1415" on="1"/>
        <pt x="634" y="1238" on="0"/>
        <pt x="503" y="878" on="0"/>
        <pt x="446" y="692" on="1"/>
        <pt x="502" y="518" on="0"/>
        <pt x="631" y="184" on="0"/>
        <pt x="707" y="18" on="1"/>
        <pt x="469" y="-6" on="1"/>
        <pt x="352" y="373" on="1"/>
        <pt x="326" y="277" on="0"/>
        <pt x="279" y="85" on="0"/>
        <pt x="256" y="-12" on="1"/>
        <pt x="4" y="16" on="1"/>
        <pt x="72" y="187" on="0"/>
        <pt x="193" y="526" on="0"/>
        <pt x="250" y="702" on="1"/>
        <pt x="193" y="880" on="0"/>
        <pt x="72" y="1228" on="0"/>
        <pt x="6" y="1405" on="1"/>
        <pt x="238" y="1436" on="1"/>
        <pt x="264" y="1329" on="0"/>
        <pt x="317" y="1121" on="0"/>
        <pt x="346" y="1018" on="1"/>
        <pt x="377" y="1121" on="0"/>
        <pt x="436" y="1327" on="0"/>
        <pt x="465" y="1434" on="1"/>
      </contour>
    </TTGlyph>
    <TTGlyph name="Y" xMin="8" yMin="-8" xMax="727" yMax="1440">
      <contour>
        <pt x="727" y="1434" on="1"/>
        <pt x="647" y="1180" on="0"/>
        <pt x="508" y="663" on="0"/>
        <pt x="446" y="422" on="1"/>
        <pt x="446" y="360" on="1"/>
        <pt x="446" y="310" on="0"/>
        <pt x="449" y="221" on="0"/>
        <pt x="453" y="134" on="0"/>
        <pt x="460" y="43" on="0"/>
        <pt x="465" y="-8" on="1"/>
        <pt x="225" y="-8" on="1"/>
        <pt x="233" y="54" on="0"/>
        <pt x="245" y="161" on="0"/>
        <pt x="252" y="265" on="0"/>
        <pt x="256" y="375" on="0"/>
        <pt x="256" y="440" on="1"/>
        <pt x="228" y="555" on="0"/>
        <pt x="167" y="803" on="0"/>
        <pt x="103" y="1053" on="0"/>
        <pt x="39" y="1300" on="0"/>
        <pt x="8" y="1415" on="1"/>
        <pt x="258" y="1436" on="1"/>
        <pt x="262" y="1354" on="0"/>
        <pt x="281" y="1171" on="0"/>
        <pt x="307" y="981" on="0"/>
        <pt x="339" y="787" on="0"/>
        <pt x="356" y="694" on="1"/>
        <pt x="375" y="789" on="0"/>
        <pt x="412" y="986" on="0"/>
        <pt x="444" y="1178" on="0"/>
        <pt x="471" y="1360" on="0"/>
        <pt x="481" y="1440" on="1"/>
      </contour>
    </TTGlyph>
    <TTGlyph name="Yacute" xMin="8" yMin="-8" xMax="727" yMax="1855">
      <component glyphName="Y" x="0" y="0" flags="0x204"/>
      <component glyphName="acute" x="309" y="260" flags="0x4"/>
    </TTGlyph>
    <TTGlyph name="Ycircumflex" xMin="8" yMin="-8" xMax="727" yMax="1868">
      <component glyphName="Y" x="0" y="0" flags="0x204"/>
      <component glyphName="circumflex" x="129" y="287" flags="0x4"/>
    </TTGlyph>
    <TTGlyph name="Ydieresis" xMin="8" yMin="-8" xMax="727" yMax="1704">
      <component glyphName="Y" x="0" y="0" flags="0x204"/>
      <component glyphName="dieresis" x="125" y="303" flags="0x4"/>
    </TTGlyph>
    <TTGlyph name="Ygrave" xMin="8" yMin="-8" xMax="727" yMax="1874">
      <component glyphName="Y" x="0" y="0" flags="0x204"/>
      <component glyphName="grave" x="80" y="279" flags="0x4"/>
    </TTGlyph>
    <TTGlyph name="Z" xMin="-2" yMin="-2" xMax="592" yMax="1436">
      <contour>
        <pt x="592" y="1436" on="1"/>
        <pt x="502" y="1131" on="0"/>
        <pt x="349" y="527" on="0"/>
        <pt x="295" y="221" on="1"/>
        <pt x="307" y="219" on="0"/>
        <pt x="332" y="221" on="0"/>
        <pt x="346" y="221" on="1"/>
        <pt x="400" y="221" on="0"/>
        <pt x="505" y="226" on="0"/>
        <pt x="559" y="231" on="1"/>
        <pt x="563" y="-2" on="1"/>
        <pt x="458" y="9" on="0"/>
        <pt x="250" y="18" on="0"/>
        <pt x="141" y="18" on="1"/>
        <pt x="106" y="18" on="0"/>
        <pt x="33" y="18" on="0"/>
        <pt x="-2" y="16" on="1"/>
        <pt x="101" y="313" on="0"/>
        <pt x="275" y="921" on="0"/>
        <pt x="338" y="1241" on="1"/>
        <pt x="269" y="1238" on="0"/>
        <pt x="130" y="1224" on="0"/>
        <pt x="57" y="1214" on="1"/>
        <pt x="51" y="1434" on="1"/>
        <pt x="113" y="1431" on="0"/>
        <pt x="235" y="1427" on="0"/>
        <pt x="297" y="1427" on="1"/>
        <pt x="445" y="1427" on="0"/>
      </contour>
    </TTGlyph>
    <TTGlyph name="Zacute" xMin="-2" yMin="-2" xMax="614" yMax="1888">
      <component glyphName="Z" x="0" y="0" flags="0x204"/>
      <component glyphName="acute" x="256" y="293" flags="0x4"/>
    </TTGlyph>
    <TTGlyph name="Zcaron" xMin="-2" yMin="-2" xMax="592" yMax="1894">
      <component glyphName="Z" x="0" y="0" flags="0x204"/>
      <component glyphName="caron" x="88" y="313" flags="0x4"/>
    </TTGlyph>
    <TTGlyph name="Zdotaccent" xMin="-2" yMin="-2" xMax="592" yMax="1698">
      <component glyphName="Z" x="0" y="0" flags="0x204"/>
      <component glyphName="dotaccent" x="211" y="297" flags="0x4"/>
    </TTGlyph>
    <TTGlyph name="a" xMin="23" yMin="-8" xMax="653" yMax="1104">
      <contour>
        <pt x="653" y="637" on="1"/>
        <pt x="653" y="479" on="0"/>
        <pt x="650" y="163" on="0"/>
        <pt x="645" y="-8" on="1"/>
        <pt x="471" y="2" on="1"/>
        <pt x="471" y="137" on="1"/>
        <pt x="441" y="83" on="0"/>
        <pt x="365" y="26" on="0"/>
        <pt x="331" y="12" on="1"/>
        <pt x="291" y="-4" on="0"/>
        <pt x="252" y="-6" on="1"/>
        <pt x="204" y="-6" on="0"/>
        <pt x="120" y="37" on="0"/>
        <pt x="58" y="109" on="0"/>
        <pt x="23" y="202" on="0"/>
        <pt x="23" y="252" on="1"/>
        <pt x="23" y="309" on="0"/>
        <pt x="72" y="420" on="0"/>
        <pt x="131" y="465" on="1"/>
        <pt x="210" y="526" on="0"/>
        <pt x="326" y="608" on="0"/>
        <pt x="403" y="675" on="0"/>
        <pt x="440" y="736" on="0"/>
        <pt x="440" y="776" on="1"/>
        <pt x="440" y="842" on="0"/>
        <pt x="396" y="907" on="0"/>
        <pt x="360" y="907" on="1"/>
        <pt x="338" y="907" on="0"/>
        <pt x="307" y="884" on="0"/>
        <pt x="288" y="847" on="0"/>
        <pt x="279" y="802" on="0"/>
        <pt x="279" y="780" on="1"/>
        <pt x="279" y="765" on="0"/>
        <pt x="282" y="729" on="0"/>
        <pt x="287" y="709" on="1"/>
        <pt x="57" y="705" on="1"/>
        <pt x="55" y="722" on="0"/>
        <pt x="53" y="753" on="0"/>
        <pt x="53" y="768" on="1"/>
        <pt x="53" y="830" on="0"/>
        <pt x="95" y="951" on="0"/>
        <pt x="176" y="1046" on="0"/>
        <pt x="292" y="1104" on="0"/>
        <pt x="367" y="1104" on="1"/>
        <pt x="464" y="1104" on="0"/>
        <pt x="577" y="1023" on="0"/>
        <pt x="636" y="891" on="0"/>
        <pt x="653" y="724" on="0"/>
      </contour>
      <contour>
        <pt x="428" y="354" on="1"/>
        <pt x="433" y="379" on="0"/>
        <pt x="437" y="411" on="1"/>
        <pt x="441" y="438" on="0"/>
        <pt x="447" y="515" on="0"/>
        <pt x="449" y="563" on="1"/>
        <pt x="433" y="541" on="0"/>
        <pt x="403" y="507" on="0"/>
        <pt x="390" y="494" on="1"/>
        <pt x="375" y="479" on="0"/>
        <pt x="362" y="467" on="1"/>
        <pt x="339" y="448" on="0"/>
        <pt x="287" y="401" on="0"/>
        <pt x="244" y="349" on="0"/>
        <pt x="215" y="294" on="0"/>
        <pt x="215" y="268" on="1"/>
        <pt x="215" y="240" on="0"/>
        <pt x="253" y="193" on="0"/>
        <pt x="281" y="193" on="1"/>
        <pt x="302" y="193" on="0"/>
        <pt x="347" y="217" on="0"/>
        <pt x="388" y="261" on="0"/>
        <pt x="420" y="319" on="0"/>
      </contour>
    </TTGlyph>
    <TTGlyph name="aacute" xMin="23" yMin="-8" xMax="702" yMax="1563">
      <component glyphName="a" x="0" y="0" flags="0x204"/>
      <component glyphName="acute" x="344" y="-32" flags="0x4"/>
    </TTGlyph>
    <TTGlyph name="abreve" xMin="23" yMin="-8" xMax="653" yMax="1530">
      <component glyphName="a" x="0" y="0" flags="0x204"/>
      <component glyphName="breve" x="137" y="0" flags="0x4"/>
    </TTGlyph>
    <TTGlyph name="acircumflex" xMin="23" yMin="-8" xMax="653" yMax="1549">
      <component glyphName="a" x="0" y="0" flags="0x204"/>
      <component glyphName="circumflex" x="111" y="-32" flags="0x4"/>
    </TTGlyph>
    <TTGlyph name="acute" xMin="0" yMin="1186" xMax="358" yMax="1595">
      <contour>
        <pt x="197" y="1595" on="1"/>
        <pt x="222" y="1577" on="0"/>
        <pt x="279" y="1534" on="0"/>
        <pt x="303" y="1515" on="1"/>
        <pt x="331" y="1493" on="0"/>
        <pt x="358" y="1470" on="1"/>
        <pt x="94" y="1186" on="1"/>
        <pt x="0" y="1255" on="1"/>
      </contour>
    </TTGlyph>
    <TTGlyph name="adieresis" xMin="23" yMin="-8" xMax="653" yMax="1367">
      <component glyphName="a" x="0" y="0" flags="0x204"/>
      <component glyphName="dieresis" x="109" y="-34" flags="0x4"/>
    </TTGlyph>
    <TTGlyph name="ae" xMin="23" yMin="-25" xMax="1044" yMax="1104">
      <contour>
        <pt x="1044" y="27" on="1"/>
        <pt x="952" y="-5" on="0"/>
        <pt x="799" y="-25" on="0"/>
        <pt x="750" y="-25" on="1"/>
        <pt x="700" y="-25" on="0"/>
        <pt x="622" y="6" on="0"/>
        <pt x="561" y="62" on="0"/>
        <pt x="514" y="142" on="0"/>
        <pt x="496" y="190" on="1"/>
        <pt x="482" y="153" on="0"/>
        <pt x="447" y="97" on="0"/>
        <pt x="408" y="55" on="0"/>
        <pt x="366" y="27" on="0"/>
        <pt x="347" y="18" on="1"/>
        <pt x="301" y="-4" on="0"/>
        <pt x="252" y="-6" on="1"/>
        <pt x="204" y="-6" on="0"/>
        <pt x="120" y="37" on="0"/>
        <pt x="58" y="109" on="0"/>
        <pt x="23" y="202" on="0"/>
        <pt x="23" y="252" on="1"/>
        <pt x="23" y="309" on="0"/>
        <pt x="72" y="420" on="0"/>
        <pt x="131" y="465" on="1"/>
        <pt x="210" y="526" on="0"/>
        <pt x="326" y="608" on="0"/>
        <pt x="403" y="675" on="0"/>
        <pt x="440" y="736" on="0"/>
        <pt x="440" y="776" on="1"/>
        <pt x="440" y="842" on="0"/>
        <pt x="396" y="907" on="0"/>
        <pt x="360" y="907" on="1"/>
        <pt x="338" y="907" on="0"/>
        <pt x="307" y="884" on="0"/>
        <pt x="288" y="847" on="0"/>
        <pt x="279" y="802" on="0"/>
        <pt x="279" y="780" on="1"/>
        <pt x="279" y="765" on="0"/>
        <pt x="282" y="729" on="0"/>
        <pt x="287" y="709" on="1"/>
        <pt x="57" y="705" on="1"/>
        <pt x="55" y="722" on="0"/>
        <pt x="53" y="753" on="0"/>
        <pt x="53" y="768" on="1"/>
        <pt x="53" y="849" on="0"/>
        <pt x="97" y="962" on="0"/>
        <pt x="163" y="1036" on="0"/>
        <pt x="242" y="1079" on="0"/>
        <pt x="312" y="1099" on="0"/>
        <pt x="362" y="1104" on="0"/>
        <pt x="367" y="1104" on="1"/>
        <pt x="444" y="1104" on="0"/>
        <pt x="546" y="1053" on="0"/>
        <pt x="578" y="1008" on="1"/>
        <pt x="615" y="1054" on="0"/>
        <pt x="708" y="1104" on="0"/>
        <pt x="764" y="1104" on="1"/>
        <pt x="826" y="1104" on="0"/>
        <pt x="927" y="1042" on="0"/>
        <pt x="999" y="914" on="0"/>
        <pt x="1038" y="717" on="0"/>
        <pt x="1038" y="582" on="1"/>
        <pt x="1038" y="506" on="0"/>
        <pt x="1032" y="424" on="1"/>
        <pt x="678" y="377" on="1"/>
        <pt x="682" y="340" on="0"/>
        <pt x="699" y="274" on="0"/>
        <pt x="728" y="223" on="0"/>
        <pt x="768" y="193" on="0"/>
        <pt x="797" y="193" on="1"/>
        <pt x="801" y="193" on="0"/>
        <pt x="844" y="195" on="0"/>
        <pt x="907" y="200" on="0"/>
        <pt x="982" y="208" on="0"/>
        <pt x="1018" y="215" on="1"/>
      </contour>
      <contour>
        <pt x="281" y="193" on="1"/>
        <pt x="319" y="193" on="0"/>
        <pt x="373" y="232" on="0"/>
        <pt x="409" y="296" on="0"/>
        <pt x="432" y="376" on="0"/>
        <pt x="444" y="458" on="0"/>
        <pt x="448" y="535" on="0"/>
        <pt x="449" y="563" on="1"/>
        <pt x="433" y="541" on="0"/>
        <pt x="403" y="507" on="0"/>
        <pt x="390" y="494" on="1"/>
        <pt x="375" y="479" on="0"/>
        <pt x="362" y="467" on="1"/>
        <pt x="339" y="448" on="0"/>
        <pt x="287" y="401" on="0"/>
        <pt x="244" y="349" on="0"/>
        <pt x="215" y="294" on="0"/>
        <pt x="215" y="268" on="1"/>
        <pt x="215" y="240" on="0"/>
        <pt x="253" y="193" on="0"/>
      </contour>
      <contour>
        <pt x="672" y="547" on="1"/>
        <pt x="838" y="578" on="1"/>
        <pt x="838" y="616" on="1"/>
        <pt x="838" y="701" on="0"/>
        <pt x="812" y="794" on="0"/>
        <pt x="797" y="816" on="1"/>
        <pt x="779" y="842" on="0"/>
        <pt x="756" y="846" on="1"/>
        <pt x="727" y="843" on="0"/>
        <pt x="693" y="795" on="0"/>
        <pt x="676" y="720" on="0"/>
        <pt x="672" y="626" on="0"/>
        <pt x="672" y="578" on="1"/>
      </contour>
    </TTGlyph>
    <TTGlyph name="aeacute" xMin="23" yMin="-25" xMax="1044" yMax="1543">
      <component glyphName="ae" x="0" y="0" flags="0x204"/>
      <component glyphName="acute" x="477" y="-52" flags="0x4"/>
    </TTGlyph>
    <TTGlyph name="agrave" xMin="23" yMin="-8" xMax="653" yMax="1567">
      <component glyphName="a" x="0" y="0" flags="0x204"/>
      <component glyphName="grave" x="37" y="-28" flags="0x4"/>
    </TTGlyph>
    <TTGlyph name="amacron" xMin="23" yMin="-8" xMax="653" yMax="1349">
      <component glyphName="a" x="0" y="0" flags="0x204"/>
      <component glyphName="macron" x="121" y="-62" flags="0x4"/>
    </TTGlyph>
    <TTGlyph name="ampersand" xMin="9" yMin="-57" xMax="936" yMax="1487">
      <contour>
        <pt x="678" y="-31" on="1"/>
        <pt x="666" y="-15" on="0"/>
        <pt x="642" y="11" on="0"/>
        <pt x="631" y="27" on="1"/>
        <pt x="588" y="-5" on="0"/>
        <pt x="508" y="-39" on="0"/>
        <pt x="476" y="-47" on="1"/>
        <pt x="439" y="-57" on="0"/>
        <pt x="406" y="-57" on="1"/>
        <pt x="317" y="-57" on="0"/>
        <pt x="171" y="-7" on="0"/>
        <pt x="67" y="87" on="0"/>
        <pt x="10" y="220" on="0"/>
        <pt x="10" y="303" on="1"/>
        <pt x="9" y="374" on="0"/>
        <pt x="51" y="510" on="0"/>
        <pt x="119" y="638" on="0"/>
        <pt x="207" y="759" on="0"/>
        <pt x="252" y="815" on="1"/>
        <pt x="236" y="884" on="0"/>
        <pt x="220" y="997" on="0"/>
        <pt x="216" y="1038" on="1"/>
        <pt x="212" y="1086" on="0"/>
        <pt x="211" y="1124" on="1"/>
        <pt x="212" y="1233" on="0"/>
        <pt x="257" y="1374" on="0"/>
        <pt x="328" y="1455" on="0"/>
        <pt x="418" y="1487" on="0"/>
        <pt x="463" y="1487" on="1"/>
        <pt x="503" y="1487" on="0"/>
        <pt x="577" y="1453" on="0"/>
        <pt x="633" y="1388" on="0"/>
        <pt x="666" y="1294" on="0"/>
        <pt x="666" y="1235" on="1"/>
        <pt x="666" y="1179" on="0"/>
        <pt x="632" y="1071" on="0"/>
        <pt x="576" y="968" on="0"/>
        <pt x="503" y="867" on="0"/>
        <pt x="465" y="817" on="1"/>
        <pt x="493" y="724" on="0"/>
        <pt x="570" y="522" on="0"/>
        <pt x="623" y="422" on="1"/>
        <pt x="628" y="447" on="0"/>
        <pt x="631" y="496" on="0"/>
        <pt x="631" y="522" on="1"/>
        <pt x="631" y="593" on="0"/>
        <pt x="614" y="664" on="1"/>
        <pt x="842" y="666" on="1"/>
        <pt x="844" y="643" on="0"/>
        <pt x="844" y="600" on="0"/>
        <pt x="844" y="580" on="1"/>
        <pt x="844" y="450" on="0"/>
        <pt x="800" y="261" on="0"/>
        <pt x="766" y="193" on="1"/>
        <pt x="803" y="142" on="0"/>
        <pt x="888" y="48" on="0"/>
        <pt x="936" y="8" on="1"/>
      </contour>
      <contour>
        <pt x="389" y="109" on="1"/>
        <pt x="426" y="109" on="0"/>
        <pt x="492" y="144" on="0"/>
        <pt x="520" y="176" on="1"/>
        <pt x="448" y="289" on="0"/>
        <pt x="345" y="506" on="0"/>
        <pt x="311" y="606" on="1"/>
        <pt x="273" y="546" on="0"/>
        <pt x="225" y="421" on="0"/>
        <pt x="225" y="356" on="1"/>
        <pt x="225" y="295" on="0"/>
        <pt x="250" y="202" on="0"/>
        <pt x="295" y="140" on="0"/>
        <pt x="354" y="109" on="0"/>
      </contour>
      <contour>
        <pt x="389" y="1192" on="1"/>
        <pt x="389" y="1170" on="0"/>
        <pt x="400" y="1084" on="0"/>
        <pt x="414" y="1022" on="1"/>
        <pt x="445" y="1067" on="0"/>
        <pt x="481" y="1149" on="0"/>
        <pt x="481" y="1186" on="1"/>
        <pt x="481" y="1235" on="0"/>
        <pt x="455" y="1280" on="0"/>
        <pt x="438" y="1280" on="1"/>
        <pt x="421" y="1280" on="0"/>
        <pt x="389" y="1235" on="0"/>
      </contour>
    </TTGlyph>
    <TTGlyph name="aogonek" xMin="23" yMin="-354" xMax="702" yMax="1104">
      <contour>
        <pt x="702" y="-260" on="1"/>
        <pt x="654" y="-307" on="0"/>
        <pt x="569" y="-354" on="0"/>
        <pt x="516" y="-354" on="1"/>
        <pt x="486" y="-354" on="0"/>
        <pt x="436" y="-330" on="0"/>
        <pt x="401" y="-290" on="0"/>
        <pt x="381" y="-238" on="0"/>
        <pt x="381" y="-209" on="1"/>
        <pt x="381" y="-191" on="0"/>
        <pt x="389" y="-145" on="0"/>
        <pt x="412" y="-91" on="0"/>
        <pt x="451" y="-32" on="0"/>
        <pt x="483" y="0" on="1"/>
        <pt x="471" y="2" on="1"/>
        <pt x="471" y="137" on="1"/>
        <pt x="441" y="83" on="0"/>
        <pt x="365" y="26" on="0"/>
        <pt x="331" y="12" on="1"/>
        <pt x="291" y="-4" on="0"/>
        <pt x="252" y="-6" on="1"/>
        <pt x="204" y="-6" on="0"/>
        <pt x="120" y="37" on="0"/>
        <pt x="58" y="109" on="0"/>
        <pt x="23" y="202" on="0"/>
        <pt x="23" y="252" on="1"/>
        <pt x="23" y="309" on="0"/>
        <pt x="72" y="420" on="0"/>
        <pt x="131" y="465" on="1"/>
        <pt x="210" y="526" on="0"/>
        <pt x="326" y="608" on="0"/>
        <pt x="403" y="675" on="0"/>
        <pt x="440" y="736" on="0"/>
        <pt x="440" y="776" on="1"/>
        <pt x="440" y="842" on="0"/>
        <pt x="396" y="907" on="0"/>
        <pt x="360" y="907" on="1"/>
        <pt x="338" y="907" on="0"/>
        <pt x="307" y="884" on="0"/>
        <pt x="288" y="847" on="0"/>
        <pt x="279" y="802" on="0"/>
        <pt x="279" y="780" on="1"/>
        <pt x="279" y="765" on="0"/>
        <pt x="282" y="729" on="0"/>
        <pt x="287" y="709" on="1"/>
        <pt x="57" y="705" on="1"/>
        <pt x="55" y="722" on="0"/>
        <pt x="53" y="753" on="0"/>
        <pt x="53" y="768" on="1"/>
        <pt x="53" y="830" on="0"/>
        <pt x="95" y="951" on="0"/>
        <pt x="176" y="1046" on="0"/>
        <pt x="292" y="1104" on="0"/>
        <pt x="367" y="1104" on="1"/>
        <pt x="464" y="1104" on="0"/>
        <pt x="577" y="1023" on="0"/>
        <pt x="636" y="891" on="0"/>
        <pt x="653" y="724" on="0"/>
        <pt x="653" y="637" on="1"/>
        <pt x="653" y="479" on="0"/>
        <pt x="650" y="163" on="0"/>
        <pt x="645" y="-8" on="1"/>
        <pt x="584" y="-4" on="1"/>
        <pt x="570" y="-21" on="0"/>
        <pt x="539" y="-62" on="0"/>
        <pt x="513" y="-109" on="0"/>
        <pt x="496" y="-158" on="0"/>
        <pt x="496" y="-182" on="1"/>
        <pt x="496" y="-199" on="0"/>
        <pt x="517" y="-217" on="0"/>
        <pt x="532" y="-217" on="1"/>
        <pt x="561" y="-217" on="0"/>
        <pt x="604" y="-177" on="0"/>
        <pt x="623" y="-156" on="1"/>
      </contour>
      <contour>
        <pt x="428" y="354" on="1"/>
        <pt x="433" y="379" on="0"/>
        <pt x="437" y="411" on="1"/>
        <pt x="441" y="438" on="0"/>
        <pt x="447" y="515" on="0"/>
        <pt x="449" y="563" on="1"/>
        <pt x="433" y="541" on="0"/>
        <pt x="403" y="507" on="0"/>
        <pt x="390" y="494" on="1"/>
        <pt x="375" y="479" on="0"/>
        <pt x="362" y="467" on="1"/>
        <pt x="339" y="448" on="0"/>
        <pt x="287" y="401" on="0"/>
        <pt x="244" y="349" on="0"/>
        <pt x="215" y="294" on="0"/>
        <pt x="215" y="268" on="1"/>
        <pt x="215" y="240" on="0"/>
        <pt x="253" y="193" on="0"/>
        <pt x="281" y="193" on="1"/>
        <pt x="302" y="193" on="0"/>
        <pt x="347" y="217" on="0"/>
        <pt x="388" y="261" on="0"/>
        <pt x="420" y="319" on="0"/>
      </contour>
    </TTGlyph>
    <TTGlyph name="approxequal" xMin="47" yMin="326" xMax="731" yMax="1092">
      <contour>
        <pt x="731" y="938" on="1"/>
        <pt x="707" y="881" on="0"/>
        <pt x="674" y="837" on="1"/>
        <pt x="660" y="818" on="0"/>
        <pt x="625" y="782" on="0"/>
        <pt x="585" y="753" on="0"/>
        <pt x="538" y="737" on="0"/>
        <pt x="512" y="737" on="1"/>
        <pt x="479" y="737" on="0"/>
        <pt x="427" y="774" on="0"/>
        <pt x="378" y="817" on="0"/>
        <pt x="328" y="854" on="0"/>
        <pt x="297" y="854" on="1"/>
        <pt x="257" y="854" on="0"/>
        <pt x="187" y="792" on="0"/>
        <pt x="158" y="735" on="1"/>
        <pt x="47" y="858" on="1"/>
        <pt x="65" y="903" on="0"/>
        <pt x="101" y="981" on="0"/>
        <pt x="147" y="1037" on="0"/>
        <pt x="208" y="1069" on="0"/>
        <pt x="250" y="1069" on="1"/>
        <pt x="295" y="1069" on="0"/>
        <pt x="367" y="1034" on="0"/>
        <pt x="426" y="991" on="0"/>
        <pt x="477" y="956" on="0"/>
        <pt x="502" y="956" on="1"/>
        <pt x="533" y="956" on="0"/>
        <pt x="582" y="998" on="0"/>
        <pt x="600" y="1024" on="1"/>
        <pt x="620" y="1054" on="0"/>
        <pt x="637" y="1092" on="1"/>
      </contour>
      <contour>
        <pt x="731" y="528" on="1"/>
        <pt x="707" y="471" on="0"/>
        <pt x="674" y="427" on="1"/>
        <pt x="660" y="408" on="0"/>
        <pt x="625" y="372" on="0"/>
        <pt x="585" y="344" on="0"/>
        <pt x="538" y="328" on="0"/>
        <pt x="512" y="328" on="1"/>
        <pt x="479" y="328" on="0"/>
        <pt x="427" y="364" on="0"/>
        <pt x="378" y="408" on="0"/>
        <pt x="328" y="444" on="0"/>
        <pt x="297" y="444" on="1"/>
        <pt x="257" y="444" on="0"/>
        <pt x="187" y="383" on="0"/>
        <pt x="158" y="326" on="1"/>
        <pt x="47" y="449" on="1"/>
        <pt x="65" y="494" on="0"/>
        <pt x="101" y="571" on="0"/>
        <pt x="147" y="627" on="0"/>
        <pt x="208" y="659" on="0"/>
        <pt x="250" y="659" on="1"/>
        <pt x="295" y="659" on="0"/>
        <pt x="367" y="624" on="0"/>
        <pt x="426" y="582" on="0"/>
        <pt x="477" y="547" on="0"/>
        <pt x="502" y="547" on="1"/>
        <pt x="533" y="547" on="0"/>
        <pt x="582" y="588" on="0"/>
        <pt x="600" y="614" on="1"/>
        <pt x="620" y="644" on="0"/>
        <pt x="637" y="682" on="1"/>
      </contour>
    </TTGlyph>
    <TTGlyph name="aring" xMin="23" yMin="-8" xMax="653" yMax="1550">
      <component glyphName="a" x="0" y="0" flags="0x204"/>
      <component glyphName="ring" x="158" y="-17" flags="0x4"/>
    </TTGlyph>
    <TTGlyph name="asciicircum" xMin="0" yMin="903" xMax="496" yMax="1452">
      <contour>
        <pt x="496" y="932" on="1"/>
        <pt x="311" y="909" on="1"/>
        <pt x="290" y="1009" on="0"/>
        <pt x="274" y="1089" on="1"/>
        <pt x="267" y="1123" on="0"/>
        <pt x="254" y="1190" on="0"/>
        <pt x="244" y="1244" on="0"/>
        <pt x="238" y="1280" on="0"/>
        <pt x="238" y="1284" on="1"/>
        <pt x="172" y="903" on="1"/>
        <pt x="0" y="928" on="1"/>
        <pt x="154" y="1452" on="1"/>
        <pt x="174" y="1450" on="0"/>
        <pt x="213" y="1448" on="0"/>
        <pt x="233" y="1448" on="1"/>
        <pt x="253" y="1448" on="0"/>
        <pt x="286" y="1449" on="0"/>
        <pt x="299" y="1450" on="1"/>
        <pt x="314" y="1451" on="0"/>
        <pt x="326" y="1452" on="1"/>
      </contour>
    </TTGlyph>
    <TTGlyph name="asciitilde" xMin="41" yMin="551" xMax="725" yMax="907">
      <contour>
        <pt x="725" y="754" on="1"/>
        <pt x="725" y="753" on="0"/>
        <pt x="712" y="723" on="0"/>
        <pt x="686" y="679" on="0"/>
        <pt x="649" y="627" on="0"/>
        <pt x="600" y="583" on="0"/>
        <pt x="541" y="553" on="0"/>
        <pt x="506" y="553" on="1"/>
        <pt x="473" y="553" on="0"/>
        <pt x="421" y="590" on="0"/>
        <pt x="372" y="633" on="0"/>
        <pt x="322" y="670" on="0"/>
        <pt x="291" y="670" on="1"/>
        <pt x="251" y="670" on="0"/>
        <pt x="181" y="608" on="0"/>
        <pt x="152" y="551" on="1"/>
        <pt x="41" y="674" on="1"/>
        <pt x="59" y="719" on="0"/>
        <pt x="95" y="797" on="0"/>
        <pt x="141" y="853" on="0"/>
        <pt x="202" y="885" on="0"/>
        <pt x="244" y="885" on="1"/>
        <pt x="289" y="885" on="0"/>
        <pt x="361" y="850" on="0"/>
        <pt x="420" y="807" on="0"/>
        <pt x="471" y="772" on="0"/>
        <pt x="496" y="772" on="1"/>
        <pt x="527" y="772" on="0"/>
        <pt x="576" y="813" on="0"/>
        <pt x="594" y="839" on="1"/>
        <pt x="614" y="869" on="0"/>
        <pt x="631" y="907" on="1"/>
      </contour>
    </TTGlyph>
    <TTGlyph name="asterisk" xMin="29" yMin="709" xMax="653" yMax="1376">
      <contour>
        <pt x="106" y="1251" on="1"/>
        <pt x="105" y="1250" on="0"/>
        <pt x="136" y="1230" on="0"/>
        <pt x="183" y="1199" on="0"/>
        <pt x="239" y="1162" on="0"/>
        <pt x="264" y="1145" on="1"/>
        <pt x="259" y="1180" on="0"/>
        <pt x="250" y="1260" on="0"/>
        <pt x="241" y="1327" on="0"/>
        <pt x="236" y="1371" on="0"/>
        <pt x="236" y="1370" on="1"/>
        <pt x="236" y="1370" on="0"/>
        <pt x="253" y="1370" on="0"/>
        <pt x="281" y="1370" on="0"/>
        <pt x="317" y="1371" on="0"/>
        <pt x="336" y="1372" on="1"/>
        <pt x="436" y="1376" on="1"/>
        <pt x="416" y="1155" on="1"/>
        <pt x="443" y="1174" on="0"/>
        <pt x="502" y="1216" on="0"/>
        <pt x="551" y="1250" on="0"/>
        <pt x="582" y="1271" on="0"/>
        <pt x="582" y="1270" on="1"/>
        <pt x="582" y="1268" on="0"/>
        <pt x="588" y="1249" on="0"/>
        <pt x="598" y="1220" on="0"/>
        <pt x="610" y="1184" on="0"/>
        <pt x="617" y="1165" on="1"/>
        <pt x="633" y="1121" on="0"/>
        <pt x="653" y="1067" on="1"/>
        <pt x="471" y="1012" on="1"/>
        <pt x="614" y="891" on="1"/>
        <pt x="492" y="715" on="1"/>
        <pt x="344" y="948" on="1"/>
        <pt x="240" y="709" on="1"/>
        <pt x="92" y="866" on="1"/>
        <pt x="225" y="1004" on="1"/>
        <pt x="29" y="1053" on="1"/>
        <pt x="69" y="1153" on="1"/>
        <pt x="76" y="1172" on="0"/>
        <pt x="90" y="1207" on="0"/>
        <pt x="101" y="1235" on="0"/>
        <pt x="107" y="1251" on="0"/>
      </contour>
    </TTGlyph>
    <TTGlyph name="at" xMin="45" yMin="-35" xMax="1057" yMax="1192">
      <contour>
        <pt x="1057" y="637" on="1"/>
        <pt x="1057" y="527" on="0"/>
        <pt x="1021" y="363" on="0"/>
        <pt x="960" y="253" on="0"/>
        <pt x="879" y="199" on="0"/>
        <pt x="834" y="199" on="1"/>
        <pt x="772" y="199" on="0"/>
        <pt x="690" y="264" on="0"/>
        <pt x="672" y="336" on="1"/>
        <pt x="644" y="283" on="0"/>
        <pt x="562" y="223" on="0"/>
        <pt x="508" y="223" on="1"/>
        <pt x="437" y="223" on="0"/>
        <pt x="354" y="358" on="0"/>
        <pt x="354" y="504" on="1"/>
        <pt x="354" y="592" on="0"/>
        <pt x="387" y="709" on="0"/>
        <pt x="443" y="780" on="0"/>
        <pt x="515" y="809" on="0"/>
        <pt x="553" y="809" on="1"/>
        <pt x="574" y="807" on="0"/>
        <pt x="594" y="798" on="1"/>
        <pt x="611" y="790" on="0"/>
        <pt x="650" y="757" on="0"/>
        <pt x="666" y="727" on="1"/>
        <pt x="668" y="747" on="0"/>
        <pt x="673" y="787" on="0"/>
        <pt x="676" y="807" on="1"/>
        <pt x="807" y="797" on="1"/>
        <pt x="805" y="757" on="0"/>
        <pt x="803" y="707" on="1"/>
        <pt x="801" y="664" on="0"/>
        <pt x="799" y="545" on="0"/>
        <pt x="799" y="473" on="1"/>
        <pt x="799" y="396" on="0"/>
        <pt x="817" y="332" on="0"/>
        <pt x="836" y="332" on="1"/>
        <pt x="846" y="332" on="0"/>
        <pt x="868" y="355" on="0"/>
        <pt x="886" y="412" on="0"/>
        <pt x="897" y="509" on="0"/>
        <pt x="897" y="584" on="1"/>
        <pt x="897" y="681" on="0"/>
        <pt x="870" y="850" on="0"/>
        <pt x="800" y="973" on="0"/>
        <pt x="680" y="1044" on="0"/>
        <pt x="586" y="1044" on="1"/>
        <pt x="494" y="1044" on="0"/>
        <pt x="354" y="959" on="0"/>
        <pt x="260" y="816" on="0"/>
        <pt x="213" y="628" on="0"/>
        <pt x="213" y="524" on="1"/>
        <pt x="213" y="422" on="0"/>
        <pt x="256" y="270" on="0"/>
        <pt x="325" y="167" on="0"/>
        <pt x="409" y="112" on="0"/>
        <pt x="451" y="106" on="1"/>
        <pt x="442" y="-35" on="1"/>
        <pt x="428" y="-35" on="1"/>
        <pt x="356" y="-35" on="0"/>
        <pt x="247" y="14" on="0"/>
        <pt x="166" y="94" on="0"/>
        <pt x="111" y="196" on="0"/>
        <pt x="93" y="250" on="1"/>
        <pt x="51" y="375" on="0"/>
        <pt x="45" y="535" on="1"/>
        <pt x="45" y="680" on="0"/>
        <pt x="105" y="891" on="0"/>
        <pt x="201" y="1037" on="0"/>
        <pt x="321" y="1126" on="0"/>
        <pt x="439" y="1175" on="0"/>
        <pt x="545" y="1192" on="0"/>
        <pt x="578" y="1192" on="1"/>
        <pt x="611" y="1192" on="0"/>
        <pt x="708" y="1178" on="0"/>
        <pt x="815" y="1136" on="0"/>
        <pt x="920" y="1061" on="0"/>
        <pt x="1005" y="937" on="0"/>
        <pt x="1057" y="760" on="0"/>
      </contour>
      <contour>
        <pt x="659" y="594" on="1"/>
        <pt x="645" y="624" on="0"/>
        <pt x="614" y="656" on="0"/>
        <pt x="600" y="664" on="1"/>
        <pt x="584" y="673" on="0"/>
        <pt x="569" y="674" on="1"/>
        <pt x="537" y="674" on="0"/>
        <pt x="498" y="600" on="0"/>
        <pt x="498" y="535" on="1"/>
        <pt x="498" y="502" on="0"/>
        <pt x="503" y="437" on="0"/>
        <pt x="517" y="387" on="0"/>
        <pt x="544" y="356" on="0"/>
        <pt x="565" y="356" on="1"/>
        <pt x="582" y="359" on="0"/>
        <pt x="600" y="370" on="1"/>
        <pt x="614" y="380" on="0"/>
        <pt x="646" y="422" on="0"/>
        <pt x="657" y="461" on="1"/>
        <pt x="657" y="475" on="0"/>
        <pt x="657" y="498" on="0"/>
        <pt x="657" y="526" on="0"/>
        <pt x="658" y="565" on="0"/>
      </contour>
    </TTGlyph>
    <TTGlyph name="atilde" xMin="23" yMin="-8" xMax="653" yMax="1441">
      <component glyphName="a" x="0" y="0" flags="0x204"/>
      <component glyphName="tilde" x="55" y="-46" flags="0x4"/>
    </TTGlyph>
    <TTGlyph name="b" xMin="66" yMin="-27" xMax="699" yMax="1407">
      <contour>
        <pt x="696" y="506" on="1"/>
        <pt x="686" y="356" on="0"/>
        <pt x="629" y="152" on="0"/>
        <pt x="550" y="27" on="0"/>
        <pt x="454" y="-27" on="0"/>
        <pt x="406" y="-27" on="1"/>
        <pt x="385" y="-24" on="0"/>
        <pt x="362" y="-11" on="1"/>
        <pt x="342" y="0" on="0"/>
        <pt x="291" y="44" on="0"/>
        <pt x="264" y="82" on="1"/>
        <pt x="264" y="-12" on="1"/>
        <pt x="66" y="-12" on="1"/>
        <pt x="66" y="1407" on="1"/>
        <pt x="315" y="1407" on="1"/>
        <pt x="293" y="1006" on="1"/>
        <pt x="318" y="1044" on="0"/>
        <pt x="373" y="1083" on="0"/>
        <pt x="396" y="1093" on="1"/>
        <pt x="423" y="1104" on="0"/>
        <pt x="449" y="1106" on="1"/>
        <pt x="509" y="1106" on="0"/>
        <pt x="594" y="1040" on="0"/>
        <pt x="651" y="933" on="0"/>
        <pt x="683" y="800" on="0"/>
        <pt x="698" y="667" on="0"/>
        <pt x="699" y="546" on="0"/>
      </contour>
      <contour>
        <pt x="483" y="504" on="1"/>
        <pt x="483" y="534" on="0"/>
        <pt x="484" y="613" on="0"/>
        <pt x="482" y="697" on="0"/>
        <pt x="472" y="778" on="0"/>
        <pt x="451" y="842" on="0"/>
        <pt x="414" y="881" on="0"/>
        <pt x="385" y="881" on="1"/>
        <pt x="353" y="881" on="0"/>
        <pt x="309" y="832" on="0"/>
        <pt x="281" y="755" on="0"/>
        <pt x="266" y="659" on="0"/>
        <pt x="259" y="565" on="0"/>
        <pt x="258" y="482" on="0"/>
        <pt x="258" y="457" on="1"/>
        <pt x="258" y="398" on="0"/>
        <pt x="269" y="295" on="0"/>
        <pt x="294" y="217" on="0"/>
        <pt x="333" y="172" on="0"/>
        <pt x="360" y="172" on="1"/>
        <pt x="392" y="172" on="0"/>
        <pt x="438" y="232" on="0"/>
        <pt x="467" y="327" on="0"/>
        <pt x="481" y="445" on="0"/>
      </contour>
    </TTGlyph>
    <TTGlyph name="backslash" xMin="23" yMin="-43" xMax="834" yMax="1487">
      <contour>
        <pt x="240" y="1487" on="1"/>
        <pt x="355" y="1163" on="0"/>
        <pt x="465" y="872" on="1"/>
        <pt x="512" y="748" on="0"/>
        <pt x="612" y="489" on="0"/>
        <pt x="709" y="251" on="0"/>
        <pt x="798" y="47" on="0"/>
        <pt x="834" y="-23" on="1"/>
        <pt x="811" y="-23" on="1"/>
        <pt x="775" y="-23" on="0"/>
        <pt x="697" y="-29" on="0"/>
        <pt x="665" y="-33" on="1"/>
        <pt x="627" y="-37" on="0"/>
        <pt x="592" y="-43" on="1"/>
        <pt x="569" y="39" on="0"/>
        <pt x="496" y="257" on="0"/>
        <pt x="407" y="500" on="0"/>
        <pt x="310" y="756" on="0"/>
        <pt x="262" y="877" on="1"/>
        <pt x="150" y="1161" on="0"/>
        <pt x="23" y="1468" on="1"/>
      </contour>
    </TTGlyph>
    <TTGlyph name="bar" xMin="70" yMin="-170" xMax="336" yMax="1602">
      <contour>
        <pt x="330" y="1602" on="1"/>
        <pt x="319" y="1516" on="0"/>
        <pt x="305" y="1329" on="0"/>
        <pt x="298" y="1140" on="0"/>
        <pt x="295" y="952" on="0"/>
        <pt x="295" y="864" on="1"/>
        <pt x="295" y="751" on="0"/>
        <pt x="299" y="486" on="0"/>
        <pt x="309" y="214" on="0"/>
        <pt x="324" y="-50" on="0"/>
        <pt x="336" y="-162" on="1"/>
        <pt x="266" y="-162" on="1"/>
        <pt x="215" y="-162" on="0"/>
        <pt x="124" y="-165" on="0"/>
        <pt x="70" y="-170" on="1"/>
        <pt x="73" y="-154" on="0"/>
        <pt x="78" y="-59" on="0"/>
        <pt x="82" y="76" on="0"/>
        <pt x="86" y="239" on="0"/>
        <pt x="90" y="407" on="0"/>
        <pt x="93" y="568" on="0"/>
        <pt x="95" y="700" on="0"/>
        <pt x="96" y="789" on="0"/>
        <pt x="96" y="801" on="1"/>
        <pt x="96" y="1002" on="0"/>
        <pt x="88" y="1412" on="0"/>
        <pt x="70" y="1602" on="1"/>
        <pt x="99" y="1600" on="0"/>
        <pt x="149" y="1597" on="0"/>
        <pt x="174" y="1597" on="1"/>
        <pt x="212" y="1597" on="0"/>
        <pt x="288" y="1600" on="0"/>
      </contour>
    </TTGlyph>
    <TTGlyph name="braceleft" xMin="18" yMin="-274" xMax="520" yMax="1636">
      <contour>
        <pt x="520" y="1419" on="1"/>
        <pt x="497" y="1432" on="0"/>
        <pt x="444" y="1436" on="0"/>
        <pt x="416" y="1436" on="1"/>
        <pt x="391" y="1436" on="0"/>
        <pt x="348" y="1416" on="0"/>
        <pt x="317" y="1381" on="0"/>
        <pt x="299" y="1335" on="0"/>
        <pt x="299" y="1309" on="1"/>
        <pt x="299" y="1290" on="0"/>
        <pt x="310" y="1225" on="0"/>
        <pt x="327" y="1147" on="0"/>
        <pt x="347" y="1062" on="0"/>
        <pt x="364" y="982" on="0"/>
        <pt x="375" y="915" on="0"/>
        <pt x="375" y="895" on="1"/>
        <pt x="375" y="857" on="0"/>
        <pt x="350" y="789" on="0"/>
        <pt x="305" y="735" on="0"/>
        <pt x="242" y="698" on="0"/>
        <pt x="205" y="690" on="1"/>
        <pt x="243" y="682" on="0"/>
        <pt x="303" y="638" on="0"/>
        <pt x="344" y="577" on="0"/>
        <pt x="365" y="505" on="0"/>
        <pt x="365" y="469" on="1"/>
        <pt x="365" y="450" on="0"/>
        <pt x="356" y="387" on="0"/>
        <pt x="343" y="312" on="0"/>
        <pt x="327" y="229" on="0"/>
        <pt x="314" y="154" on="0"/>
        <pt x="305" y="92" on="0"/>
        <pt x="305" y="74" on="1"/>
        <pt x="305" y="15" on="0"/>
        <pt x="374" y="-47" on="0"/>
        <pt x="440" y="-47" on="1"/>
        <pt x="451" y="-47" on="0"/>
        <pt x="474" y="-46" on="0"/>
        <pt x="483" y="-45" on="1"/>
        <pt x="494" y="-44" on="0"/>
        <pt x="502" y="-43" on="1"/>
        <pt x="463" y="-274" on="1"/>
        <pt x="395" y="-264" on="0"/>
        <pt x="267" y="-218" on="0"/>
        <pt x="167" y="-140" on="0"/>
        <pt x="106" y="-25" on="0"/>
        <pt x="106" y="55" on="1"/>
        <pt x="106" y="92" on="0"/>
        <pt x="128" y="188" on="0"/>
        <pt x="154" y="288" on="0"/>
        <pt x="176" y="383" on="0"/>
        <pt x="176" y="420" on="1"/>
        <pt x="176" y="451" on="0"/>
        <pt x="156" y="505" on="0"/>
        <pt x="119" y="545" on="0"/>
        <pt x="66" y="567" on="0"/>
        <pt x="33" y="567" on="1"/>
        <pt x="18" y="567" on="1"/>
        <pt x="18" y="782" on="1"/>
        <pt x="52" y="782" on="0"/>
        <pt x="105" y="807" on="0"/>
        <pt x="141" y="850" on="0"/>
        <pt x="160" y="906" on="0"/>
        <pt x="160" y="938" on="1"/>
        <pt x="160" y="969" on="0"/>
        <pt x="144" y="1057" on="0"/>
        <pt x="125" y="1153" on="0"/>
        <pt x="109" y="1252" on="0"/>
        <pt x="109" y="1296" on="1"/>
        <pt x="109" y="1374" on="0"/>
        <pt x="149" y="1500" on="0"/>
        <pt x="229" y="1589" on="0"/>
        <pt x="351" y="1636" on="0"/>
        <pt x="432" y="1636" on="1"/>
        <pt x="448" y="1636" on="0"/>
        <pt x="480" y="1634" on="0"/>
        <pt x="496" y="1632" on="1"/>
      </contour>
    </TTGlyph>
    <TTGlyph name="braceright" xMin="8" yMin="-274" xMax="510" yMax="1636">
      <contour>
        <pt x="33" y="1632" on="1"/>
        <pt x="48" y="1634" on="0"/>
        <pt x="81" y="1636" on="0"/>
        <pt x="96" y="1636" on="1"/>
        <pt x="177" y="1636" on="0"/>
        <pt x="299" y="1589" on="0"/>
        <pt x="380" y="1500" on="0"/>
        <pt x="420" y="1374" on="0"/>
        <pt x="420" y="1296" on="1"/>
        <pt x="420" y="1252" on="0"/>
        <pt x="404" y="1153" on="0"/>
        <pt x="385" y="1057" on="0"/>
        <pt x="369" y="969" on="0"/>
        <pt x="369" y="938" on="1"/>
        <pt x="369" y="906" on="0"/>
        <pt x="388" y="850" on="0"/>
        <pt x="424" y="807" on="0"/>
        <pt x="476" y="782" on="0"/>
        <pt x="510" y="782" on="1"/>
        <pt x="510" y="567" on="1"/>
        <pt x="494" y="567" on="1"/>
        <pt x="462" y="567" on="0"/>
        <pt x="409" y="545" on="0"/>
        <pt x="372" y="505" on="0"/>
        <pt x="352" y="451" on="0"/>
        <pt x="352" y="420" on="1"/>
        <pt x="352" y="383" on="0"/>
        <pt x="374" y="288" on="0"/>
        <pt x="400" y="188" on="0"/>
        <pt x="422" y="92" on="0"/>
        <pt x="422" y="55" on="1"/>
        <pt x="422" y="-25" on="0"/>
        <pt x="361" y="-140" on="0"/>
        <pt x="262" y="-218" on="0"/>
        <pt x="133" y="-264" on="0"/>
        <pt x="66" y="-274" on="1"/>
        <pt x="27" y="-43" on="1"/>
        <pt x="36" y="-44" on="0"/>
        <pt x="46" y="-45" on="1"/>
        <pt x="54" y="-46" on="0"/>
        <pt x="75" y="-47" on="0"/>
        <pt x="86" y="-47" on="1"/>
        <pt x="154" y="-47" on="0"/>
        <pt x="223" y="15" on="0"/>
        <pt x="223" y="74" on="1"/>
        <pt x="223" y="92" on="0"/>
        <pt x="214" y="154" on="0"/>
        <pt x="201" y="229" on="0"/>
        <pt x="186" y="312" on="0"/>
        <pt x="173" y="387" on="0"/>
        <pt x="164" y="450" on="0"/>
        <pt x="164" y="469" on="1"/>
        <pt x="164" y="505" on="0"/>
        <pt x="185" y="577" on="0"/>
        <pt x="226" y="638" on="0"/>
        <pt x="285" y="682" on="0"/>
        <pt x="324" y="690" on="1"/>
        <pt x="286" y="698" on="0"/>
        <pt x="224" y="735" on="0"/>
        <pt x="179" y="789" on="0"/>
        <pt x="154" y="857" on="0"/>
        <pt x="154" y="895" on="1"/>
        <pt x="154" y="915" on="0"/>
        <pt x="165" y="982" on="0"/>
        <pt x="182" y="1062" on="0"/>
        <pt x="201" y="1147" on="0"/>
        <pt x="218" y="1225" on="0"/>
        <pt x="229" y="1290" on="0"/>
        <pt x="229" y="1309" on="1"/>
        <pt x="229" y="1335" on="0"/>
        <pt x="211" y="1381" on="0"/>
        <pt x="180" y="1416" on="0"/>
        <pt x="137" y="1436" on="0"/>
        <pt x="113" y="1436" on="1"/>
        <pt x="85" y="1436" on="0"/>
        <pt x="31" y="1432" on="0"/>
        <pt x="8" y="1419" on="1"/>
      </contour>
    </TTGlyph>
    <TTGlyph name="bracketleft" xMin="72" yMin="-174" xMax="475" yMax="1632">
      <contour>
        <pt x="475" y="-174" on="1"/>
        <pt x="363" y="-174" on="0"/>
        <pt x="168" y="-171" on="0"/>
        <pt x="72" y="-166" on="1"/>
        <pt x="79" y="-60" on="0"/>
        <pt x="87" y="184" on="0"/>
        <pt x="92" y="433" on="0"/>
        <pt x="94" y="676" on="0"/>
        <pt x="94" y="782" on="1"/>
        <pt x="94" y="880" on="0"/>
        <pt x="93" y="1092" on="0"/>
        <pt x="88" y="1307" on="0"/>
        <pt x="79" y="1518" on="0"/>
        <pt x="72" y="1616" on="1"/>
        <pt x="96" y="1617" on="0"/>
        <pt x="155" y="1620" on="0"/>
        <pt x="220" y="1622" on="0"/>
        <pt x="287" y="1625" on="0"/>
        <pt x="319" y="1626" on="1"/>
        <pt x="393" y="1629" on="0"/>
        <pt x="471" y="1632" on="1"/>
        <pt x="475" y="1427" on="1"/>
        <pt x="441" y="1429" on="0"/>
        <pt x="366" y="1430" on="0"/>
        <pt x="313" y="1430" on="1"/>
        <pt x="309" y="1363" on="0"/>
        <pt x="305" y="1198" on="0"/>
        <pt x="302" y="1026" on="0"/>
        <pt x="301" y="860" on="0"/>
        <pt x="301" y="793" on="1"/>
        <pt x="301" y="741" on="0"/>
        <pt x="302" y="614" on="0"/>
        <pt x="303" y="475" on="0"/>
        <pt x="305" y="330" on="0"/>
        <pt x="308" y="190" on="0"/>
        <pt x="311" y="62" on="0"/>
        <pt x="313" y="10" on="1"/>
        <pt x="475" y="14" on="1"/>
      </contour>
    </TTGlyph>
    <TTGlyph name="bracketright" xMin="25" yMin="-174" xMax="428" yMax="1632">
      <contour>
        <pt x="25" y="1632" on="1"/>
        <pt x="137" y="1632" on="0"/>
        <pt x="332" y="1629" on="0"/>
        <pt x="428" y="1624" on="1"/>
        <pt x="421" y="1518" on="0"/>
        <pt x="413" y="1274" on="0"/>
        <pt x="408" y="1025" on="0"/>
        <pt x="406" y="782" on="0"/>
        <pt x="406" y="676" on="1"/>
        <pt x="406" y="578" on="0"/>
        <pt x="407" y="366" on="0"/>
        <pt x="412" y="151" on="0"/>
        <pt x="420" y="-61" on="0"/>
        <pt x="428" y="-158" on="1"/>
        <pt x="404" y="-159" on="0"/>
        <pt x="344" y="-162" on="0"/>
        <pt x="280" y="-164" on="0"/>
        <pt x="212" y="-167" on="0"/>
        <pt x="181" y="-168" on="1"/>
        <pt x="107" y="-171" on="0"/>
        <pt x="29" y="-174" on="1"/>
        <pt x="25" y="31" on="1"/>
        <pt x="59" y="29" on="0"/>
        <pt x="134" y="29" on="0"/>
        <pt x="186" y="29" on="1"/>
        <pt x="190" y="96" on="0"/>
        <pt x="195" y="261" on="0"/>
        <pt x="198" y="432" on="0"/>
        <pt x="199" y="598" on="0"/>
        <pt x="199" y="666" on="1"/>
        <pt x="199" y="717" on="0"/>
        <pt x="198" y="844" on="0"/>
        <pt x="197" y="983" on="0"/>
        <pt x="195" y="1128" on="0"/>
        <pt x="192" y="1268" on="0"/>
        <pt x="188" y="1396" on="0"/>
        <pt x="186" y="1448" on="1"/>
        <pt x="25" y="1444" on="1"/>
      </contour>
    </TTGlyph>
    <TTGlyph name="breve" xMin="-2" yMin="1165" xMax="446" yMax="1530">
      <contour>
        <pt x="442" y="1499" on="1"/>
        <pt x="446" y="1442" on="0"/>
        <pt x="429" y="1324" on="0"/>
        <pt x="376" y="1227" on="0"/>
        <pt x="285" y="1165" on="0"/>
        <pt x="215" y="1165" on="1"/>
        <pt x="150" y="1165" on="0"/>
        <pt x="63" y="1218" on="0"/>
        <pt x="13" y="1311" on="0"/>
        <pt x="-2" y="1436" on="0"/>
        <pt x="6" y="1509" on="1"/>
        <pt x="162" y="1530" on="1"/>
        <pt x="160" y="1498" on="0"/>
        <pt x="159" y="1431" on="0"/>
        <pt x="170" y="1376" on="0"/>
        <pt x="198" y="1341" on="0"/>
        <pt x="225" y="1341" on="1"/>
        <pt x="247" y="1341" on="0"/>
        <pt x="276" y="1369" on="0"/>
        <pt x="294" y="1419" on="0"/>
        <pt x="300" y="1485" on="0"/>
        <pt x="299" y="1524" on="1"/>
        <pt x="320" y="1517" on="0"/>
        <pt x="370" y="1508" on="0"/>
        <pt x="392" y="1505" on="1"/>
        <pt x="418" y="1501" on="0"/>
      </contour>
    </TTGlyph>
    <TTGlyph name="brokenbar" xMin="72" yMin="-170" xMax="326" yMax="1602">
      <contour>
        <pt x="299" y="848" on="1"/>
        <pt x="96" y="848" on="1"/>
        <pt x="72" y="1602" on="1"/>
        <pt x="319" y="1602" on="1"/>
      </contour>
      <contour>
        <pt x="84" y="-170" on="1"/>
        <pt x="100" y="651" on="1"/>
        <pt x="305" y="651" on="1"/>
        <pt x="326" y="-162" on="1"/>
      </contour>
    </TTGlyph>
    <TTGlyph name="bullet" xMin="84" yMin="541" xMax="471" yMax="928">
      <contour>
        <pt x="471" y="733" on="1"/>
        <pt x="471" y="694" on="0"/>
        <pt x="441" y="624" on="0"/>
        <pt x="389" y="572" on="0"/>
        <pt x="320" y="541" on="0"/>
        <pt x="281" y="541" on="1"/>
        <pt x="240" y="541" on="0"/>
        <pt x="168" y="572" on="0"/>
        <pt x="115" y="624" on="0"/>
        <pt x="84" y="694" on="0"/>
        <pt x="84" y="733" on="1"/>
        <pt x="84" y="774" on="0"/>
        <pt x="115" y="845" on="0"/>
        <pt x="168" y="898" on="0"/>
        <pt x="240" y="928" on="0"/>
        <pt x="281" y="928" on="1"/>
        <pt x="320" y="928" on="0"/>
        <pt x="389" y="898" on="0"/>
        <pt x="441" y="845" on="0"/>
        <pt x="471" y="774" on="0"/>
      </contour>
    </TTGlyph>
    <TTGlyph name="c" xMin="37" yMin="-51" xMax="530" yMax="1104">
      <contour>
        <pt x="514" y="821" on="1"/>
        <pt x="500" y="839" on="0"/>
        <pt x="460" y="859" on="0"/>
        <pt x="420" y="869" on="0"/>
        <pt x="386" y="872" on="0"/>
        <pt x="379" y="872" on="1"/>
        <pt x="349" y="872" on="0"/>
        <pt x="302" y="820" on="0"/>
        <pt x="269" y="724" on="0"/>
        <pt x="252" y="587" on="0"/>
        <pt x="252" y="502" on="1"/>
        <pt x="252" y="420" on="0"/>
        <pt x="275" y="285" on="0"/>
        <pt x="333" y="188" on="0"/>
        <pt x="431" y="130" on="0"/>
        <pt x="506" y="125" on="1"/>
        <pt x="500" y="-47" on="1"/>
        <pt x="483" y="-49" on="0"/>
        <pt x="450" y="-51" on="0"/>
        <pt x="434" y="-51" on="1"/>
        <pt x="348" y="-51" on="0"/>
        <pt x="223" y="-8" on="0"/>
        <pt x="135" y="70" on="0"/>
        <pt x="80" y="177" on="0"/>
        <pt x="48" y="304" on="0"/>
        <pt x="37" y="447" on="0"/>
        <pt x="37" y="522" on="1"/>
        <pt x="37" y="574" on="0"/>
        <pt x="42" y="701" on="0"/>
        <pt x="61" y="830" on="0"/>
        <pt x="100" y="952" on="0"/>
        <pt x="168" y="1047" on="0"/>
        <pt x="271" y="1104" on="0"/>
        <pt x="344" y="1104" on="1"/>
        <pt x="376" y="1104" on="0"/>
        <pt x="436" y="1094" on="0"/>
        <pt x="486" y="1079" on="0"/>
        <pt x="522" y="1062" on="0"/>
        <pt x="530" y="1055" on="1"/>
      </contour>
    </TTGlyph>
    <TTGlyph name="cacute" xMin="37" yMin="-51" xMax="616" yMax="1557">
      <component glyphName="c" x="0" y="0" flags="0x204"/>
      <component glyphName="acute" x="258" y="-38" flags="0x4"/>
    </TTGlyph>
    <TTGlyph name="caron" xMin="0" yMin="1184" xMax="453" yMax="1581">
      <contour>
        <pt x="453" y="1518" on="1"/>
        <pt x="313" y="1184" on="1"/>
        <pt x="152" y="1184" on="1"/>
        <pt x="0" y="1520" on="1"/>
        <pt x="154" y="1581" on="1"/>
        <pt x="219" y="1339" on="1"/>
        <pt x="297" y="1575" on="1"/>
      </contour>
    </TTGlyph>
    <TTGlyph name="ccaron" xMin="37" yMin="-51" xMax="531" yMax="1564">
      <component glyphName="c" x="0" y="0" flags="0x204"/>
      <component glyphName="caron" x="78" y="-17" flags="0x4"/>
    </TTGlyph>
    <TTGlyph name="ccedilla" xMin="37" yMin="-382" xMax="530" yMax="1104">
      <contour>
        <pt x="416" y="-233" on="1"/>
        <pt x="416" y="-263" on="0"/>
        <pt x="394" y="-313" on="0"/>
        <pt x="355" y="-350" on="0"/>
        <pt x="304" y="-373" on="0"/>
        <pt x="276" y="-377" on="1"/>
        <pt x="246" y="-382" on="0"/>
        <pt x="200" y="-378" on="0"/>
        <pt x="183" y="-373" on="1"/>
        <pt x="164" y="-368" on="0"/>
        <pt x="150" y="-360" on="1"/>
        <pt x="150" y="-250" on="1"/>
        <pt x="154" y="-255" on="0"/>
        <pt x="175" y="-262" on="0"/>
        <pt x="199" y="-267" on="0"/>
        <pt x="222" y="-270" on="0"/>
        <pt x="229" y="-270" on="1"/>
        <pt x="252" y="-270" on="0"/>
        <pt x="287" y="-253" on="0"/>
        <pt x="287" y="-225" on="1"/>
        <pt x="287" y="-212" on="0"/>
        <pt x="274" y="-194" on="0"/>
        <pt x="254" y="-183" on="0"/>
        <pt x="230" y="-178" on="0"/>
        <pt x="219" y="-178" on="1"/>
        <pt x="205" y="-178" on="0"/>
        <pt x="176" y="-181" on="0"/>
        <pt x="162" y="-186" on="1"/>
        <pt x="229" y="-4" on="1"/>
        <pt x="169" y="29" on="0"/>
        <pt x="94" y="138" on="0"/>
        <pt x="52" y="277" on="0"/>
        <pt x="37" y="438" on="0"/>
        <pt x="37" y="522" on="1"/>
        <pt x="37" y="574" on="0"/>
        <pt x="42" y="701" on="0"/>
        <pt x="61" y="830" on="0"/>
        <pt x="100" y="952" on="0"/>
        <pt x="168" y="1047" on="0"/>
        <pt x="271" y="1104" on="0"/>
        <pt x="344" y="1104" on="1"/>
        <pt x="376" y="1104" on="0"/>
        <pt x="436" y="1094" on="0"/>
        <pt x="486" y="1079" on="0"/>
        <pt x="522" y="1062" on="0"/>
        <pt x="530" y="1055" on="1"/>
        <pt x="514" y="821" on="1"/>
        <pt x="500" y="839" on="0"/>
        <pt x="460" y="859" on="0"/>
        <pt x="420" y="869" on="0"/>
        <pt x="386" y="872" on="0"/>
        <pt x="379" y="872" on="1"/>
        <pt x="349" y="872" on="0"/>
        <pt x="302" y="820" on="0"/>
        <pt x="269" y="724" on="0"/>
        <pt x="252" y="587" on="0"/>
        <pt x="252" y="502" on="1"/>
        <pt x="252" y="420" on="0"/>
        <pt x="275" y="285" on="0"/>
        <pt x="333" y="188" on="0"/>
        <pt x="431" y="130" on="0"/>
        <pt x="506" y="125" on="1"/>
        <pt x="500" y="-47" on="1"/>
        <pt x="483" y="-49" on="0"/>
        <pt x="450" y="-51" on="0"/>
        <pt x="434" y="-51" on="1"/>
        <pt x="396" y="-51" on="0"/>
        <pt x="330" y="-43" on="0"/>
        <pt x="301" y="-35" on="1"/>
        <pt x="285" y="-102" on="1"/>
        <pt x="314" y="-101" on="0"/>
        <pt x="362" y="-120" on="0"/>
        <pt x="397" y="-155" on="0"/>
        <pt x="416" y="-204" on="0"/>
      </contour>
    </TTGlyph>
    <TTGlyph name="ccircumflex" xMin="37" yMin="-51" xMax="535" yMax="1539">
      <component glyphName="c" x="0" y="0" flags="0x204"/>
      <component glyphName="circumflex" x="82" y="-42" flags="0x4"/>
    </TTGlyph>
    <TTGlyph name="cdotaccent" xMin="37" yMin="-51" xMax="530" yMax="1363">
      <component glyphName="c" x="0" y="0" flags="0x204"/>
      <component glyphName="dotaccent" x="186" y="-38" flags="0x4"/>
    </TTGlyph>
    <TTGlyph name="cedilla" xMin="0" yMin="-361" xMax="266" yMax="61">
      <contour>
        <pt x="266" y="-213" on="1"/>
        <pt x="266" y="-243" on="0"/>
        <pt x="244" y="-292" on="0"/>
        <pt x="206" y="-329" on="0"/>
        <pt x="155" y="-352" on="0"/>
        <pt x="127" y="-356" on="1"/>
        <pt x="97" y="-361" on="0"/>
        <pt x="50" y="-358" on="0"/>
        <pt x="33" y="-353" on="1"/>
        <pt x="14" y="-348" on="0"/>
        <pt x="0" y="-340" on="1"/>
        <pt x="0" y="-229" on="1"/>
        <pt x="4" y="-234" on="0"/>
        <pt x="25" y="-242" on="0"/>
        <pt x="49" y="-247" on="0"/>
        <pt x="73" y="-250" on="0"/>
        <pt x="80" y="-250" on="1"/>
        <pt x="103" y="-250" on="0"/>
        <pt x="137" y="-233" on="0"/>
        <pt x="137" y="-205" on="1"/>
        <pt x="137" y="-192" on="0"/>
        <pt x="124" y="-174" on="0"/>
        <pt x="104" y="-163" on="0"/>
        <pt x="80" y="-158" on="0"/>
        <pt x="70" y="-158" on="1"/>
        <pt x="56" y="-158" on="0"/>
        <pt x="26" y="-161" on="0"/>
        <pt x="12" y="-166" on="1"/>
        <pt x="98" y="61" on="1"/>
        <pt x="170" y="61" on="1"/>
        <pt x="135" y="-82" on="1"/>
        <pt x="164" y="-81" on="0"/>
        <pt x="212" y="-100" on="0"/>
        <pt x="247" y="-135" on="0"/>
        <pt x="266" y="-184" on="0"/>
      </contour>
    </TTGlyph>
    <TTGlyph name="cent" xMin="31" yMin="-330" xMax="428" yMax="1116">
      <contour>
        <pt x="338" y="788" on="1"/>
        <pt x="370" y="782" on="0"/>
        <pt x="419" y="766" on="0"/>
        <pt x="428" y="758" on="1"/>
        <pt x="416" y="586" on="1"/>
        <pt x="404" y="600" on="0"/>
        <pt x="369" y="616" on="0"/>
        <pt x="335" y="623" on="0"/>
        <pt x="307" y="625" on="0"/>
        <pt x="303" y="625" on="1"/>
        <pt x="279" y="625" on="0"/>
        <pt x="242" y="586" on="0"/>
        <pt x="217" y="514" on="0"/>
        <pt x="203" y="413" on="0"/>
        <pt x="203" y="352" on="1"/>
        <pt x="203" y="291" on="0"/>
        <pt x="222" y="193" on="0"/>
        <pt x="269" y="121" on="0"/>
        <pt x="348" y="80" on="0"/>
        <pt x="408" y="76" on="1"/>
        <pt x="403" y="-51" on="1"/>
        <pt x="389" y="-53" on="0"/>
        <pt x="365" y="-53" on="0"/>
        <pt x="352" y="-53" on="1"/>
        <pt x="301" y="-53" on="0"/>
        <pt x="222" y="-34" on="0"/>
        <pt x="193" y="-20" on="1"/>
        <pt x="150" y="-330" on="1"/>
        <pt x="61" y="-330" on="1"/>
        <pt x="127" y="18" on="1"/>
        <pt x="117" y="25" on="0"/>
        <pt x="111" y="33" on="1"/>
        <pt x="107" y="37" on="0"/>
        <pt x="106" y="39" on="1"/>
        <pt x="87" y="62" on="0"/>
        <pt x="59" y="132" on="0"/>
        <pt x="40" y="218" on="0"/>
        <pt x="31" y="317" on="0"/>
        <pt x="31" y="369" on="1"/>
        <pt x="31" y="450" on="0"/>
        <pt x="55" y="608" on="0"/>
        <pt x="78" y="670" on="1"/>
        <pt x="91" y="705" on="0"/>
        <pt x="133" y="753" on="0"/>
        <pt x="183" y="781" on="0"/>
        <pt x="239" y="794" on="0"/>
        <pt x="266" y="795" on="1"/>
        <pt x="313" y="1116" on="1"/>
        <pt x="401" y="1116" on="1"/>
      </contour>
    </TTGlyph>
    <TTGlyph name="circumflex" xMin="0" yMin="1184" xMax="453" yMax="1581">
      <contour>
        <pt x="453" y="1247" on="1"/>
        <pt x="297" y="1190" on="1"/>
        <pt x="219" y="1425" on="1"/>
        <pt x="154" y="1184" on="1"/>
        <pt x="0" y="1245" on="1"/>
        <pt x="152" y="1581" on="1"/>
        <pt x="313" y="1581" on="1"/>
      </contour>
    </TTGlyph>
    <TTGlyph name="colon" xMin="66" yMin="-37" xMax="303" yMax="907">
      <contour>
        <pt x="303" y="786" on="1"/>
        <pt x="303" y="762" on="0"/>
        <pt x="284" y="720" on="0"/>
        <pt x="252" y="689" on="0"/>
        <pt x="209" y="670" on="0"/>
        <pt x="184" y="670" on="1"/>
        <pt x="160" y="670" on="0"/>
        <pt x="117" y="689" on="0"/>
        <pt x="85" y="720" on="0"/>
        <pt x="66" y="762" on="0"/>
        <pt x="66" y="786" on="1"/>
        <pt x="66" y="811" on="0"/>
        <pt x="85" y="856" on="0"/>
        <pt x="117" y="888" on="0"/>
        <pt x="160" y="907" on="0"/>
        <pt x="184" y="907" on="1"/>
        <pt x="209" y="907" on="0"/>
        <pt x="252" y="888" on="0"/>
        <pt x="284" y="856" on="0"/>
        <pt x="303" y="811" on="0"/>
      </contour>
      <contour>
        <pt x="303" y="82" on="1"/>
        <pt x="303" y="57" on="0"/>
        <pt x="284" y="14" on="0"/>
        <pt x="252" y="-18" on="0"/>
        <pt x="209" y="-37" on="0"/>
        <pt x="184" y="-37" on="1"/>
        <pt x="160" y="-37" on="0"/>
        <pt x="117" y="-18" on="0"/>
        <pt x="85" y="14" on="0"/>
        <pt x="66" y="57" on="0"/>
        <pt x="66" y="82" on="1"/>
        <pt x="66" y="106" on="0"/>
        <pt x="85" y="150" on="0"/>
        <pt x="117" y="182" on="0"/>
        <pt x="160" y="201" on="0"/>
        <pt x="184" y="201" on="1"/>
        <pt x="209" y="201" on="0"/>
        <pt x="252" y="182" on="0"/>
        <pt x="284" y="150" on="0"/>
        <pt x="303" y="106" on="0"/>
      </contour>
    </TTGlyph>
    <TTGlyph name="comma" xMin="33" yMin="-145" xMax="270" yMax="199">
      <contour>
        <pt x="270" y="80" on="1"/>
        <pt x="270" y="43" on="0"/>
        <pt x="256" y="-17" on="0"/>
        <pt x="229" y="-70" on="0"/>
        <pt x="190" y="-119" on="0"/>
        <pt x="164" y="-145" on="1"/>
        <pt x="90" y="-111" on="1"/>
        <pt x="97" y="-103" on="0"/>
        <pt x="104" y="-92" on="1"/>
        <pt x="110" y="-82" on="0"/>
        <pt x="124" y="-55" on="0"/>
        <pt x="129" y="-37" on="1"/>
        <pt x="87" y="-29" on="0"/>
        <pt x="33" y="35" on="0"/>
        <pt x="33" y="80" on="1"/>
        <pt x="33" y="104" on="0"/>
        <pt x="52" y="148" on="0"/>
        <pt x="84" y="180" on="0"/>
        <pt x="127" y="199" on="0"/>
        <pt x="152" y="199" on="1"/>
        <pt x="176" y="199" on="0"/>
        <pt x="219" y="180" on="0"/>
        <pt x="251" y="148" on="0"/>
        <pt x="270" y="104" on="0"/>
      </contour>
    </TTGlyph>
    <TTGlyph name="copyright" xMin="53" yMin="207" xMax="735" yMax="1198">
      <contour>
        <pt x="539" y="403" on="1"/>
        <pt x="518" y="395" on="0"/>
        <pt x="477" y="386" on="0"/>
        <pt x="460" y="384" on="1"/>
        <pt x="441" y="381" on="0"/>
        <pt x="424" y="381" on="1"/>
        <pt x="395" y="381" on="0"/>
        <pt x="325" y="409" on="0"/>
        <pt x="263" y="483" on="0"/>
        <pt x="221" y="614" on="0"/>
        <pt x="221" y="717" on="1"/>
        <pt x="221" y="786" on="0"/>
        <pt x="244" y="889" on="0"/>
        <pt x="282" y="962" on="0"/>
        <pt x="329" y="1009" on="0"/>
        <pt x="378" y="1036" on="0"/>
        <pt x="423" y="1047" on="0"/>
        <pt x="440" y="1047" on="1"/>
        <pt x="456" y="1047" on="0"/>
        <pt x="471" y="1044" on="1"/>
        <pt x="484" y="1042" on="0"/>
        <pt x="512" y="1032" on="0"/>
        <pt x="522" y="1024" on="1"/>
        <pt x="512" y="934" on="1"/>
        <pt x="482" y="946" on="0"/>
        <pt x="459" y="946" on="1"/>
        <pt x="436" y="946" on="0"/>
        <pt x="401" y="926" on="0"/>
        <pt x="376" y="893" on="0"/>
        <pt x="359" y="850" on="0"/>
        <pt x="353" y="828" on="1"/>
        <pt x="340" y="776" on="0"/>
        <pt x="338" y="711" on="1"/>
        <pt x="340" y="645" on="0"/>
        <pt x="354" y="594" on="1"/>
        <pt x="360" y="572" on="0"/>
        <pt x="378" y="530" on="0"/>
        <pt x="404" y="497" on="0"/>
        <pt x="439" y="477" on="0"/>
        <pt x="463" y="477" on="1"/>
        <pt x="475" y="477" on="0"/>
        <pt x="503" y="484" on="0"/>
        <pt x="520" y="492" on="1"/>
      </contour>
      <contour>
        <pt x="631" y="719" on="1"/>
        <pt x="631" y="806" on="0"/>
        <pt x="613" y="933" on="0"/>
        <pt x="580" y="1022" on="0"/>
        <pt x="536" y="1078" on="0"/>
        <pt x="484" y="1109" on="0"/>
        <pt x="428" y="1120" on="0"/>
        <pt x="399" y="1120" on="1"/>
        <pt x="355" y="1120" on="0"/>
        <pt x="271" y="1084" on="0"/>
        <pt x="205" y="990" on="0"/>
        <pt x="164" y="825" on="0"/>
        <pt x="164" y="696" on="1"/>
        <pt x="164" y="568" on="0"/>
        <pt x="200" y="408" on="0"/>
        <pt x="262" y="319" on="0"/>
        <pt x="345" y="287" on="0"/>
        <pt x="393" y="287" on="1"/>
        <pt x="441" y="287" on="0"/>
        <pt x="528" y="325" on="0"/>
        <pt x="593" y="422" on="0"/>
        <pt x="631" y="589" on="0"/>
      </contour>
      <contour>
        <pt x="735" y="721" on="1"/>
        <pt x="735" y="565" on="0"/>
        <pt x="680" y="365" on="0"/>
        <pt x="585" y="251" on="0"/>
        <pt x="459" y="207" on="0"/>
        <pt x="387" y="207" on="1"/>
        <pt x="318" y="207" on="0"/>
        <pt x="196" y="244" on="0"/>
        <pt x="106" y="350" on="0"/>
        <pt x="53" y="539" on="0"/>
        <pt x="53" y="692" on="1"/>
        <pt x="53" y="795" on="0"/>
        <pt x="80" y="950" on="0"/>
        <pt x="128" y="1063" on="0"/>
        <pt x="194" y="1136" on="0"/>
        <pt x="270" y="1180" on="0"/>
        <pt x="353" y="1198" on="0"/>
        <pt x="395" y="1198" on="1"/>
        <pt x="437" y="1198" on="0"/>
        <pt x="520" y="1185" on="0"/>
        <pt x="596" y="1148" on="0"/>
        <pt x="660" y="1082" on="0"/>
        <pt x="708" y="976" on="0"/>
        <pt x="735" y="824" on="0"/>
      </contour>
    </TTGlyph>
    <TTGlyph name="currency" xMin="72" yMin="430" xMax="600" yMax="958">
      <contour>
        <pt x="408" y="688" on="1"/>
        <pt x="408" y="719" on="0"/>
        <pt x="365" y="760" on="0"/>
        <pt x="334" y="760" on="1"/>
        <pt x="306" y="760" on="0"/>
        <pt x="262" y="719" on="0"/>
        <pt x="262" y="688" on="1"/>
        <pt x="262" y="660" on="0"/>
        <pt x="306" y="618" on="0"/>
        <pt x="334" y="618" on="1"/>
        <pt x="365" y="618" on="0"/>
        <pt x="408" y="660" on="0"/>
      </contour>
      <contour>
        <pt x="461" y="430" on="1"/>
        <pt x="445" y="450" on="0"/>
        <pt x="412" y="490" on="0"/>
        <pt x="395" y="510" on="1"/>
        <pt x="381" y="505" on="0"/>
        <pt x="351" y="500" on="0"/>
        <pt x="336" y="500" on="1"/>
        <pt x="320" y="500" on="0"/>
        <pt x="293" y="503" on="0"/>
        <pt x="279" y="508" on="1"/>
        <pt x="262" y="489" on="0"/>
        <pt x="228" y="450" on="0"/>
        <pt x="213" y="430" on="1"/>
        <pt x="72" y="571" on="1"/>
        <pt x="92" y="587" on="0"/>
        <pt x="132" y="618" on="0"/>
        <pt x="152" y="635" on="1"/>
        <pt x="147" y="647" on="0"/>
        <pt x="143" y="674" on="0"/>
        <pt x="143" y="688" on="1"/>
        <pt x="143" y="720" on="0"/>
        <pt x="154" y="750" on="1"/>
        <pt x="134" y="768" on="0"/>
        <pt x="92" y="800" on="0"/>
        <pt x="72" y="817" on="1"/>
        <pt x="213" y="958" on="1"/>
        <pt x="279" y="870" on="1"/>
        <pt x="307" y="881" on="0"/>
        <pt x="336" y="881" on="1"/>
        <pt x="351" y="881" on="0"/>
        <pt x="384" y="875" on="0"/>
        <pt x="399" y="868" on="1"/>
        <pt x="416" y="888" on="0"/>
        <pt x="450" y="928" on="0"/>
        <pt x="469" y="948" on="1"/>
        <pt x="600" y="819" on="1"/>
        <pt x="578" y="802" on="0"/>
        <pt x="538" y="767" on="0"/>
        <pt x="518" y="750" on="1"/>
        <pt x="523" y="734" on="0"/>
        <pt x="528" y="704" on="0"/>
        <pt x="528" y="688" on="1"/>
        <pt x="528" y="653" on="0"/>
        <pt x="516" y="623" on="1"/>
        <pt x="533" y="606" on="0"/>
        <pt x="571" y="575" on="0"/>
        <pt x="590" y="561" on="1"/>
      </contour>
    </TTGlyph>
    <TTGlyph name="d" xMin="35" yMin="-27" xMax="682" yMax="1425">
      <contour>
        <pt x="682" y="1425" on="1"/>
        <pt x="657" y="-12" on="1"/>
        <pt x="465" y="-12" on="1"/>
        <pt x="465" y="90" on="1"/>
        <pt x="436" y="47" on="0"/>
        <pt x="382" y="0" on="0"/>
        <pt x="361" y="-11" on="1"/>
        <pt x="336" y="-24" on="0"/>
        <pt x="315" y="-27" on="1"/>
        <pt x="264" y="-27" on="0"/>
        <pt x="164" y="34" on="0"/>
        <pt x="85" y="176" on="0"/>
        <pt x="35" y="407" on="0"/>
        <pt x="35" y="578" on="1"/>
        <pt x="35" y="709" on="0"/>
        <pt x="78" y="908" on="0"/>
        <pt x="150" y="1042" on="0"/>
        <pt x="244" y="1110" on="0"/>
        <pt x="295" y="1110" on="1"/>
        <pt x="322" y="1108" on="0"/>
        <pt x="349" y="1096" on="1"/>
        <pt x="372" y="1085" on="0"/>
        <pt x="428" y="1041" on="0"/>
        <pt x="453" y="1001" on="1"/>
        <pt x="440" y="1415" on="1"/>
      </contour>
      <contour>
        <pt x="471" y="483" on="1"/>
        <pt x="469" y="551" on="0"/>
        <pt x="464" y="693" on="0"/>
        <pt x="442" y="810" on="0"/>
        <pt x="397" y="885" on="0"/>
        <pt x="356" y="885" on="1"/>
        <pt x="318" y="885" on="0"/>
        <pt x="275" y="823" on="0"/>
        <pt x="254" y="725" on="0"/>
        <pt x="250" y="607" on="0"/>
        <pt x="250" y="551" on="1"/>
        <pt x="250" y="512" on="0"/>
        <pt x="253" y="426" on="0"/>
        <pt x="261" y="341" on="0"/>
        <pt x="277" y="265" on="0"/>
        <pt x="301" y="206" on="0"/>
        <pt x="336" y="172" on="0"/>
        <pt x="360" y="172" on="1"/>
        <pt x="390" y="172" on="0"/>
        <pt x="432" y="221" on="0"/>
        <pt x="459" y="305" on="0"/>
        <pt x="471" y="418" on="0"/>
      </contour>
    </TTGlyph>
    <TTGlyph name="dagger" xMin="29" yMin="-170" xMax="575" yMax="1602">
      <contour>
        <pt x="442" y="1602" on="1"/>
        <pt x="431" y="1523" on="0"/>
        <pt x="419" y="1354" on="0"/>
        <pt x="416" y="1268" on="1"/>
        <pt x="449" y="1268" on="0"/>
        <pt x="506" y="1268" on="0"/>
        <pt x="528" y="1269" on="1"/>
        <pt x="554" y="1269" on="0"/>
        <pt x="575" y="1270" on="1"/>
        <pt x="573" y="1264" on="0"/>
        <pt x="570" y="1213" on="0"/>
        <pt x="570" y="1150" on="0"/>
        <pt x="573" y="1087" on="0"/>
        <pt x="575" y="1069" on="1"/>
        <pt x="529" y="1072" on="0"/>
        <pt x="448" y="1075" on="0"/>
        <pt x="410" y="1077" on="1"/>
        <pt x="408" y="1022" on="0"/>
        <pt x="408" y="915" on="0"/>
        <pt x="408" y="864" on="1"/>
        <pt x="408" y="751" on="0"/>
        <pt x="412" y="486" on="0"/>
        <pt x="422" y="214" on="0"/>
        <pt x="437" y="-50" on="0"/>
        <pt x="449" y="-162" on="1"/>
        <pt x="410" y="-161" on="0"/>
        <pt x="343" y="-161" on="0"/>
        <pt x="280" y="-163" on="0"/>
        <pt x="217" y="-167" on="0"/>
        <pt x="182" y="-170" on="1"/>
        <pt x="189" y="-13" on="0"/>
        <pt x="195" y="131" on="1"/>
        <pt x="198" y="192" on="0"/>
        <pt x="203" y="322" on="0"/>
        <pt x="207" y="444" on="0"/>
        <pt x="209" y="552" on="0"/>
        <pt x="209" y="592" on="1"/>
        <pt x="209" y="710" on="0"/>
        <pt x="209" y="956" on="0"/>
        <pt x="207" y="1083" on="1"/>
        <pt x="167" y="1083" on="0"/>
        <pt x="80" y="1081" on="0"/>
        <pt x="29" y="1081" on="1"/>
        <pt x="30" y="1107" on="0"/>
        <pt x="34" y="1153" on="0"/>
        <pt x="36" y="1200" on="0"/>
        <pt x="33" y="1253" on="0"/>
        <pt x="29" y="1288" on="1"/>
        <pt x="67" y="1282" on="0"/>
        <pt x="156" y="1275" on="0"/>
        <pt x="203" y="1272" on="1"/>
        <pt x="200" y="1357" on="0"/>
        <pt x="190" y="1521" on="0"/>
        <pt x="182" y="1602" on="1"/>
        <pt x="219" y="1599" on="0"/>
        <pt x="284" y="1598" on="0"/>
        <pt x="345" y="1599" on="0"/>
        <pt x="407" y="1601" on="0"/>
      </contour>
    </TTGlyph>
    <TTGlyph name="daggerdbl" xMin="41" yMin="-170" xMax="588" yMax="1602">
      <contour>
        <pt x="588" y="393" on="1"/>
        <pt x="586" y="388" on="0"/>
        <pt x="583" y="337" on="0"/>
        <pt x="583" y="273" on="0"/>
        <pt x="586" y="210" on="0"/>
        <pt x="588" y="193" on="1"/>
        <pt x="434" y="201" on="1"/>
        <pt x="439" y="104" on="0"/>
        <pt x="452" y="-80" on="0"/>
        <pt x="461" y="-162" on="1"/>
        <pt x="422" y="-161" on="0"/>
        <pt x="355" y="-161" on="0"/>
        <pt x="293" y="-163" on="0"/>
        <pt x="230" y="-167" on="0"/>
        <pt x="195" y="-170" on="1"/>
        <pt x="197" y="-117" on="0"/>
        <pt x="200" y="-56" on="1"/>
        <pt x="202" y="-4" on="0"/>
        <pt x="208" y="131" on="0"/>
        <pt x="211" y="205" on="1"/>
        <pt x="41" y="205" on="1"/>
        <pt x="42" y="231" on="0"/>
        <pt x="46" y="276" on="0"/>
        <pt x="48" y="323" on="0"/>
        <pt x="45" y="377" on="0"/>
        <pt x="41" y="412" on="1"/>
        <pt x="79" y="405" on="0"/>
        <pt x="171" y="398" on="0"/>
        <pt x="217" y="395" on="1"/>
        <pt x="219" y="452" on="0"/>
        <pt x="221" y="554" on="0"/>
        <pt x="221" y="592" on="1"/>
        <pt x="221" y="710" on="0"/>
        <pt x="221" y="956" on="0"/>
        <pt x="219" y="1083" on="1"/>
        <pt x="179" y="1083" on="0"/>
        <pt x="92" y="1081" on="0"/>
        <pt x="41" y="1081" on="1"/>
        <pt x="42" y="1107" on="0"/>
        <pt x="46" y="1153" on="0"/>
        <pt x="48" y="1200" on="0"/>
        <pt x="45" y="1253" on="0"/>
        <pt x="41" y="1288" on="1"/>
        <pt x="79" y="1282" on="0"/>
        <pt x="169" y="1275" on="0"/>
        <pt x="215" y="1272" on="1"/>
        <pt x="212" y="1357" on="0"/>
        <pt x="203" y="1521" on="0"/>
        <pt x="195" y="1602" on="1"/>
        <pt x="232" y="1599" on="0"/>
        <pt x="296" y="1598" on="0"/>
        <pt x="358" y="1599" on="0"/>
        <pt x="420" y="1601" on="0"/>
        <pt x="455" y="1602" on="1"/>
        <pt x="444" y="1523" on="0"/>
        <pt x="431" y="1354" on="0"/>
        <pt x="428" y="1268" on="1"/>
        <pt x="461" y="1268" on="0"/>
        <pt x="519" y="1268" on="0"/>
        <pt x="541" y="1269" on="1"/>
        <pt x="567" y="1269" on="0"/>
        <pt x="588" y="1270" on="1"/>
        <pt x="586" y="1264" on="0"/>
        <pt x="583" y="1213" on="0"/>
        <pt x="583" y="1150" on="0"/>
        <pt x="586" y="1087" on="0"/>
        <pt x="588" y="1069" on="1"/>
        <pt x="541" y="1072" on="0"/>
        <pt x="460" y="1075" on="0"/>
        <pt x="422" y="1077" on="1"/>
        <pt x="420" y="1022" on="0"/>
        <pt x="420" y="915" on="0"/>
        <pt x="420" y="864" on="1"/>
        <pt x="420" y="759" on="0"/>
        <pt x="423" y="518" on="0"/>
        <pt x="426" y="391" on="1"/>
        <pt x="459" y="391" on="0"/>
        <pt x="517" y="391" on="0"/>
        <pt x="540" y="392" on="1"/>
        <pt x="566" y="392" on="0"/>
      </contour>
    </TTGlyph>
    <TTGlyph name="dcaron" xMin="35" yMin="-27" xMax="971" yMax="1425">
      <component glyphName="d" x="0" y="0" flags="0x4"/>
      <component glyphName="uni0315" x="735" y="0" flags="0x4"/>
    </TTGlyph>
    <TTGlyph name="dcroat" xMin="35" yMin="-27" xMax="737" yMax="1425">
      <contour>
        <pt x="737" y="1165" on="1"/>
        <pt x="678" y="1165" on="1"/>
        <pt x="657" y="-12" on="1"/>
        <pt x="465" y="-12" on="1"/>
        <pt x="465" y="90" on="1"/>
        <pt x="436" y="47" on="0"/>
        <pt x="382" y="0" on="0"/>
        <pt x="361" y="-11" on="1"/>
        <pt x="336" y="-24" on="0"/>
        <pt x="315" y="-27" on="1"/>
        <pt x="264" y="-27" on="0"/>
        <pt x="164" y="34" on="0"/>
        <pt x="85" y="176" on="0"/>
        <pt x="35" y="407" on="0"/>
        <pt x="35" y="578" on="1"/>
        <pt x="35" y="709" on="0"/>
        <pt x="78" y="908" on="0"/>
        <pt x="150" y="1042" on="0"/>
        <pt x="244" y="1110" on="0"/>
        <pt x="295" y="1110" on="1"/>
        <pt x="322" y="1108" on="0"/>
        <pt x="349" y="1096" on="1"/>
        <pt x="372" y="1085" on="0"/>
        <pt x="428" y="1041" on="0"/>
        <pt x="453" y="1001" on="1"/>
        <pt x="446" y="1163" on="1"/>
        <pt x="303" y="1163" on="1"/>
        <pt x="303" y="1348" on="1"/>
        <pt x="442" y="1343" on="1"/>
        <pt x="440" y="1415" on="1"/>
        <pt x="682" y="1425" on="1"/>
        <pt x="680" y="1337" on="1"/>
        <pt x="737" y="1335" on="1"/>
      </contour>
      <contour>
        <pt x="471" y="483" on="1"/>
        <pt x="469" y="551" on="0"/>
        <pt x="464" y="693" on="0"/>
        <pt x="442" y="810" on="0"/>
        <pt x="397" y="885" on="0"/>
        <pt x="356" y="885" on="1"/>
        <pt x="318" y="885" on="0"/>
        <pt x="275" y="823" on="0"/>
        <pt x="254" y="725" on="0"/>
        <pt x="250" y="607" on="0"/>
        <pt x="250" y="551" on="1"/>
        <pt x="250" y="512" on="0"/>
        <pt x="253" y="426" on="0"/>
        <pt x="261" y="341" on="0"/>
        <pt x="277" y="265" on="0"/>
        <pt x="301" y="206" on="0"/>
        <pt x="336" y="172" on="0"/>
        <pt x="360" y="172" on="1"/>
        <pt x="390" y="172" on="0"/>
        <pt x="432" y="221" on="0"/>
        <pt x="459" y="305" on="0"/>
        <pt x="471" y="418" on="0"/>
      </contour>
    </TTGlyph>
    <TTGlyph name="degree" xMin="25" yMin="1030" xMax="410" yMax="1411">
      <contour>
        <pt x="289" y="1219" on="1"/>
        <pt x="289" y="1250" on="0"/>
        <pt x="246" y="1290" on="0"/>
        <pt x="215" y="1290" on="1"/>
        <pt x="187" y="1290" on="0"/>
        <pt x="143" y="1250" on="0"/>
        <pt x="143" y="1219" on="1"/>
        <pt x="143" y="1191" on="0"/>
        <pt x="187" y="1149" on="0"/>
        <pt x="215" y="1149" on="1"/>
        <pt x="246" y="1149" on="0"/>
        <pt x="289" y="1191" on="0"/>
      </contour>
      <contour>
        <pt x="410" y="1219" on="1"/>
        <pt x="410" y="1180" on="0"/>
        <pt x="378" y="1112" on="0"/>
        <pt x="325" y="1060" on="0"/>
        <pt x="255" y="1030" on="0"/>
        <pt x="217" y="1030" on="1"/>
        <pt x="179" y="1030" on="0"/>
        <pt x="109" y="1060" on="0"/>
        <pt x="56" y="1112" on="0"/>
        <pt x="25" y="1180" on="0"/>
        <pt x="25" y="1219" on="1"/>
        <pt x="25" y="1259" on="0"/>
        <pt x="56" y="1329" on="0"/>
        <pt x="109" y="1381" on="0"/>
        <pt x="179" y="1411" on="0"/>
        <pt x="217" y="1411" on="1"/>
        <pt x="255" y="1411" on="0"/>
        <pt x="325" y="1381" on="0"/>
        <pt x="378" y="1329" on="0"/>
        <pt x="410" y="1259" on="0"/>
      </contour>
    </TTGlyph>
    <TTGlyph name="dieresis" xMin="0" yMin="1190" xMax="483" yMax="1401">
      <contour>
        <pt x="213" y="1294" on="1"/>
        <pt x="213" y="1273" on="0"/>
        <pt x="196" y="1235" on="0"/>
        <pt x="167" y="1206" on="0"/>
        <pt x="128" y="1190" on="0"/>
        <pt x="106" y="1190" on="1"/>
        <pt x="85" y="1190" on="0"/>
        <pt x="46" y="1206" on="0"/>
        <pt x="17" y="1235" on="0"/>
        <pt x="0" y="1273" on="0"/>
        <pt x="0" y="1294" on="1"/>
        <pt x="0" y="1316" on="0"/>
        <pt x="17" y="1356" on="0"/>
        <pt x="46" y="1384" on="0"/>
        <pt x="85" y="1401" on="0"/>
        <pt x="106" y="1401" on="1"/>
        <pt x="128" y="1401" on="0"/>
        <pt x="167" y="1384" on="0"/>
        <pt x="196" y="1356" on="0"/>
        <pt x="213" y="1316" on="0"/>
      </contour>
      <contour>
        <pt x="483" y="1294" on="1"/>
        <pt x="483" y="1273" on="0"/>
        <pt x="466" y="1235" on="0"/>
        <pt x="437" y="1206" on="0"/>
        <pt x="398" y="1190" on="0"/>
        <pt x="377" y="1190" on="1"/>
        <pt x="355" y="1190" on="0"/>
        <pt x="316" y="1206" on="0"/>
        <pt x="287" y="1235" on="0"/>
        <pt x="270" y="1273" on="0"/>
        <pt x="270" y="1294" on="1"/>
        <pt x="270" y="1316" on="0"/>
        <pt x="287" y="1356" on="0"/>
        <pt x="316" y="1384" on="0"/>
        <pt x="355" y="1401" on="0"/>
        <pt x="377" y="1401" on="1"/>
        <pt x="398" y="1401" on="0"/>
        <pt x="437" y="1384" on="0"/>
        <pt x="466" y="1356" on="0"/>
        <pt x="483" y="1316" on="0"/>
      </contour>
    </TTGlyph>
    <TTGlyph name="divide" xMin="45" yMin="285" xMax="594" yMax="1098">
      <contour>
        <pt x="594" y="596" on="1"/>
        <pt x="45" y="594" on="1"/>
        <pt x="45" y="795" on="1"/>
        <pt x="594" y="780" on="1"/>
      </contour>
      <contour>
        <pt x="436" y="403" on="1"/>
        <pt x="436" y="379" on="0"/>
        <pt x="417" y="336" on="0"/>
        <pt x="385" y="304" on="0"/>
        <pt x="342" y="285" on="0"/>
        <pt x="317" y="285" on="1"/>
        <pt x="293" y="285" on="0"/>
        <pt x="250" y="304" on="0"/>
        <pt x="218" y="336" on="0"/>
        <pt x="199" y="379" on="0"/>
        <pt x="199" y="403" on="1"/>
        <pt x="199" y="428" on="0"/>
        <pt x="218" y="471" on="0"/>
        <pt x="250" y="503" on="0"/>
        <pt x="293" y="522" on="0"/>
        <pt x="317" y="522" on="1"/>
        <pt x="342" y="522" on="0"/>
        <pt x="385" y="503" on="0"/>
        <pt x="417" y="471" on="0"/>
        <pt x="436" y="428" on="0"/>
      </contour>
      <contour>
        <pt x="436" y="979" on="1"/>
        <pt x="436" y="954" on="0"/>
        <pt x="417" y="911" on="0"/>
        <pt x="385" y="879" on="0"/>
        <pt x="342" y="860" on="0"/>
        <pt x="317" y="860" on="1"/>
        <pt x="293" y="860" on="0"/>
        <pt x="250" y="879" on="0"/>
        <pt x="218" y="911" on="0"/>
        <pt x="199" y="954" on="0"/>
        <pt x="199" y="979" on="1"/>
        <pt x="199" y="1003" on="0"/>
        <pt x="218" y="1047" on="0"/>
        <pt x="250" y="1079" on="0"/>
        <pt x="293" y="1098" on="0"/>
        <pt x="317" y="1098" on="1"/>
        <pt x="342" y="1098" on="0"/>
        <pt x="385" y="1079" on="0"/>
        <pt x="417" y="1047" on="0"/>
        <pt x="436" y="1003" on="0"/>
      </contour>
    </TTGlyph>
    <TTGlyph name="dollar" xMin="35" yMin="-63" xMax="430" yMax="1382">
      <contour>
        <pt x="266" y="1092" on="1"/>
        <pt x="301" y="1090" on="0"/>
        <pt x="384" y="1067" on="0"/>
        <pt x="430" y="1049" on="1"/>
        <pt x="418" y="877" on="1"/>
        <pt x="397" y="894" on="0"/>
        <pt x="350" y="914" on="0"/>
        <pt x="330" y="919" on="1"/>
        <pt x="307" y="925" on="0"/>
        <pt x="285" y="928" on="1"/>
        <pt x="254" y="925" on="0"/>
        <pt x="209" y="874" on="0"/>
        <pt x="209" y="836" on="1"/>
        <pt x="209" y="801" on="0"/>
        <pt x="241" y="749" on="0"/>
        <pt x="288" y="704" on="0"/>
        <pt x="345" y="658" on="0"/>
        <pt x="394" y="600" on="0"/>
        <pt x="428" y="524" on="0"/>
        <pt x="430" y="471" on="1"/>
        <pt x="430" y="420" on="0"/>
        <pt x="400" y="343" on="0"/>
        <pt x="351" y="289" on="0"/>
        <pt x="288" y="255" on="0"/>
        <pt x="256" y="248" on="1"/>
        <pt x="264" y="-63" on="1"/>
        <pt x="176" y="-63" on="1"/>
        <pt x="184" y="240" on="1"/>
        <pt x="179" y="240" on="0"/>
        <pt x="147" y="242" on="0"/>
        <pt x="104" y="251" on="0"/>
        <pt x="57" y="270" on="0"/>
        <pt x="37" y="287" on="1"/>
        <pt x="45" y="455" on="1"/>
        <pt x="74" y="433" on="0"/>
        <pt x="134" y="409" on="0"/>
        <pt x="158" y="403" on="1"/>
        <pt x="186" y="396" on="0"/>
        <pt x="213" y="395" on="1"/>
        <pt x="260" y="421" on="0"/>
        <pt x="260" y="473" on="1"/>
        <pt x="260" y="499" on="0"/>
        <pt x="227" y="547" on="0"/>
        <pt x="177" y="597" on="0"/>
        <pt x="118" y="653" on="0"/>
        <pt x="68" y="722" on="0"/>
        <pt x="35" y="806" on="0"/>
        <pt x="35" y="860" on="1"/>
        <pt x="35" y="947" on="0"/>
        <pt x="121" y="1063" on="0"/>
        <pt x="190" y="1083" on="1"/>
        <pt x="182" y="1382" on="1"/>
        <pt x="270" y="1382" on="1"/>
      </contour>
    </TTGlyph>
    <TTGlyph name="dotaccent" xMin="0" yMin="1190" xMax="213" yMax="1401">
      <contour>
        <pt x="213" y="1294" on="1"/>
        <pt x="213" y="1273" on="0"/>
        <pt x="196" y="1235" on="0"/>
        <pt x="167" y="1206" on="0"/>
        <pt x="128" y="1190" on="0"/>
        <pt x="106" y="1190" on="1"/>
        <pt x="85" y="1190" on="0"/>
        <pt x="46" y="1206" on="0"/>
        <pt x="17" y="1235" on="0"/>
        <pt x="0" y="1273" on="0"/>
        <pt x="0" y="1294" on="1"/>
        <pt x="0" y="1316" on="0"/>
        <pt x="17" y="1356" on="0"/>
        <pt x="46" y="1384" on="0"/>
        <pt x="85" y="1401" on="0"/>
        <pt x="106" y="1401" on="1"/>
        <pt x="128" y="1401" on="0"/>
        <pt x="167" y="1384" on="0"/>
        <pt x="196" y="1356" on="0"/>
        <pt x="213" y="1316" on="0"/>
      </contour>
    </TTGlyph>
    <TTGlyph name="dotlessi" xMin="47" yMin="35" xMax="307" yMax="1047">
      <contour>
        <pt x="307" y="1038" on="1"/>
        <pt x="298" y="959" on="0"/>
        <pt x="288" y="770" on="0"/>
        <pt x="284" y="572" on="0"/>
        <pt x="285" y="379" on="0"/>
        <pt x="291" y="212" on="0"/>
        <pt x="299" y="84" on="0"/>
        <pt x="305" y="51" on="1"/>
        <pt x="265" y="51" on="0"/>
        <pt x="222" y="49" on="1"/>
        <pt x="185" y="47" on="0"/>
        <pt x="93" y="41" on="0"/>
        <pt x="47" y="35" on="1"/>
        <pt x="70" y="283" on="0"/>
        <pt x="79" y="658" on="0"/>
        <pt x="74" y="787" on="1"/>
        <pt x="69" y="937" on="0"/>
        <pt x="55" y="1047" on="1"/>
        <pt x="112" y="1040" on="0"/>
        <pt x="204" y="1036" on="0"/>
        <pt x="237" y="1036" on="1"/>
        <pt x="276" y="1036" on="0"/>
      </contour>
    </TTGlyph>
    <TTGlyph name="dotlessj" xMin="-205" yMin="-332" xMax="285" yMax="1102">
      <contour>
        <pt x="285" y="268" on="1"/>
        <pt x="285" y="207" on="0"/>
        <pt x="285" y="70" on="0"/>
        <pt x="270" y="-63" on="0"/>
        <pt x="235" y="-185" on="0"/>
        <pt x="164" y="-277" on="0"/>
        <pt x="50" y="-332" on="0"/>
        <pt x="-35" y="-332" on="1"/>
        <pt x="-74" y="-332" on="0"/>
        <pt x="-137" y="-323" on="0"/>
        <pt x="-159" y="-317" on="1"/>
        <pt x="-185" y="-310" on="0"/>
        <pt x="-205" y="-301" on="1"/>
        <pt x="-197" y="-102" on="1"/>
        <pt x="-175" y="-107" on="0"/>
        <pt x="-149" y="-111" on="1"/>
        <pt x="-127" y="-114" on="0"/>
        <pt x="-69" y="-119" on="0"/>
        <pt x="-37" y="-119" on="1"/>
        <pt x="30" y="-119" on="0"/>
        <pt x="80" y="60" on="0"/>
        <pt x="80" y="242" on="1"/>
        <pt x="80" y="302" on="0"/>
        <pt x="77" y="440" on="0"/>
        <pt x="71" y="583" on="0"/>
        <pt x="64" y="726" on="0"/>
        <pt x="61" y="792" on="1"/>
        <pt x="53" y="946" on="0"/>
        <pt x="43" y="1102" on="1"/>
        <pt x="268" y="1102" on="1"/>
        <pt x="272" y="925" on="0"/>
        <pt x="276" y="765" on="1"/>
        <pt x="277" y="697" on="0"/>
        <pt x="281" y="554" on="0"/>
        <pt x="283" y="422" on="0"/>
        <pt x="285" y="308" on="0"/>
      </contour>
    </TTGlyph>
    <TTGlyph name="e" xMin="33" yMin="-25" xMax="629" yMax="1104">
      <contour>
        <pt x="629" y="27" on="1"/>
        <pt x="536" y="-5" on="0"/>
        <pt x="383" y="-25" on="0"/>
        <pt x="334" y="-25" on="1"/>
        <pt x="273" y="-25" on="0"/>
        <pt x="181" y="23" on="0"/>
        <pt x="114" y="103" on="0"/>
        <pt x="70" y="208" on="0"/>
        <pt x="44" y="324" on="0"/>
        <pt x="33" y="443" on="0"/>
        <pt x="33" y="496" on="1"/>
        <pt x="33" y="628" on="0"/>
        <pt x="75" y="851" on="0"/>
        <pt x="155" y="1013" on="0"/>
        <pt x="273" y="1104" on="0"/>
        <pt x="348" y="1104" on="1"/>
        <pt x="410" y="1104" on="0"/>
        <pt x="512" y="1042" on="0"/>
        <pt x="584" y="914" on="0"/>
        <pt x="623" y="717" on="0"/>
        <pt x="623" y="582" on="1"/>
        <pt x="623" y="544" on="0"/>
        <pt x="620" y="466" on="0"/>
        <pt x="616" y="424" on="1"/>
        <pt x="262" y="377" on="1"/>
        <pt x="266" y="340" on="0"/>
        <pt x="283" y="274" on="0"/>
        <pt x="312" y="223" on="0"/>
        <pt x="352" y="193" on="0"/>
        <pt x="381" y="193" on="1"/>
        <pt x="435" y="193" on="0"/>
        <pt x="543" y="206" on="0"/>
        <pt x="602" y="215" on="1"/>
      </contour>
      <contour>
        <pt x="256" y="547" on="1"/>
        <pt x="422" y="578" on="1"/>
        <pt x="422" y="616" on="1"/>
        <pt x="422" y="701" on="0"/>
        <pt x="396" y="794" on="0"/>
        <pt x="381" y="816" on="1"/>
        <pt x="363" y="842" on="0"/>
        <pt x="340" y="846" on="1"/>
        <pt x="311" y="843" on="0"/>
        <pt x="277" y="795" on="0"/>
        <pt x="260" y="720" on="0"/>
        <pt x="256" y="626" on="0"/>
        <pt x="256" y="578" on="1"/>
      </contour>
    </TTGlyph>
    <TTGlyph name="eacute" xMin="33" yMin="-25" xMax="667" yMax="1567">
      <component glyphName="e" x="0" y="0" flags="0x204"/>
      <component glyphName="acute" x="309" y="-28" flags="0x4"/>
    </TTGlyph>
    <TTGlyph name="ebreve" xMin="33" yMin="-25" xMax="629" yMax="1530">
      <component glyphName="e" x="0" y="0" flags="0x204"/>
      <component glyphName="breve" x="113" y="0" flags="0x4"/>
    </TTGlyph>
    <TTGlyph name="ecaron" xMin="33" yMin="-25" xMax="629" yMax="1553">
      <component glyphName="e" x="0" y="0" flags="0x204"/>
      <component glyphName="caron" x="104" y="-28" flags="0x4"/>
    </TTGlyph>
    <TTGlyph name="ecircumflex" xMin="33" yMin="-25" xMax="629" yMax="1543">
      <component glyphName="e" x="0" y="0" flags="0x204"/>
      <component glyphName="circumflex" x="102" y="-38" flags="0x4"/>
    </TTGlyph>
    <TTGlyph name="edieresis" xMin="33" yMin="-25" xMax="629" yMax="1355">
      <component glyphName="e" x="0" y="0" flags="0x204"/>
      <component glyphName="dieresis" x="88" y="-46" flags="0x4"/>
    </TTGlyph>
    <TTGlyph name="edotaccent" xMin="33" yMin="-25" xMax="629" yMax="1363">
      <component glyphName="e" x="0" y="0" flags="0x204"/>
      <component glyphName="dotaccent" x="229" y="-38" flags="0x4"/>
    </TTGlyph>
    <TTGlyph name="egrave" xMin="-13" yMin="-25" xMax="629" yMax="1559">
      <component glyphName="e" x="0" y="0" flags="0x204"/>
      <component glyphName="grave" x="-13" y="-36" flags="0x4"/>
    </TTGlyph>
    <TTGlyph name="eight" xMin="49" yMin="-16" xMax="678" yMax="1452">
      <contour>
        <pt x="678" y="336" on="1"/>
        <pt x="678" y="241" on="0"/>
        <pt x="625" y="108" on="0"/>
        <pt x="538" y="23" on="0"/>
        <pt x="423" y="-16" on="0"/>
        <pt x="362" y="-16" on="1"/>
        <pt x="302" y="-16" on="0"/>
        <pt x="189" y="27" on="0"/>
        <pt x="102" y="114" on="0"/>
        <pt x="49" y="247" on="0"/>
        <pt x="49" y="336" on="1"/>
        <pt x="49" y="451" on="0"/>
        <pt x="132" y="610" on="0"/>
        <pt x="197" y="653" on="1"/>
        <pt x="165" y="682" on="0"/>
        <pt x="110" y="761" on="0"/>
        <pt x="71" y="855" on="0"/>
        <pt x="49" y="961" on="0"/>
        <pt x="49" y="1018" on="1"/>
        <pt x="49" y="1148" on="0"/>
        <pt x="102" y="1317" on="0"/>
        <pt x="189" y="1414" on="0"/>
        <pt x="302" y="1452" on="0"/>
        <pt x="362" y="1452" on="1"/>
        <pt x="423" y="1452" on="0"/>
        <pt x="538" y="1413" on="0"/>
        <pt x="625" y="1315" on="0"/>
        <pt x="678" y="1147" on="0"/>
        <pt x="678" y="1018" on="1"/>
        <pt x="678" y="902" on="0"/>
        <pt x="594" y="712" on="0"/>
        <pt x="528" y="653" on="1"/>
        <pt x="594" y="608" on="0"/>
        <pt x="678" y="448" on="0"/>
      </contour>
      <contour>
        <pt x="469" y="1006" on="1"/>
        <pt x="469" y="1080" on="0"/>
        <pt x="452" y="1184" on="0"/>
        <pt x="424" y="1250" on="0"/>
        <pt x="384" y="1280" on="0"/>
        <pt x="362" y="1280" on="1"/>
        <pt x="341" y="1280" on="0"/>
        <pt x="302" y="1251" on="0"/>
        <pt x="273" y="1186" on="0"/>
        <pt x="256" y="1082" on="0"/>
        <pt x="256" y="1006" on="1"/>
        <pt x="256" y="949" on="0"/>
        <pt x="273" y="849" on="0"/>
        <pt x="302" y="774" on="0"/>
        <pt x="341" y="731" on="0"/>
        <pt x="362" y="731" on="1"/>
        <pt x="384" y="731" on="0"/>
        <pt x="424" y="774" on="0"/>
        <pt x="452" y="849" on="0"/>
        <pt x="469" y="949" on="0"/>
      </contour>
      <contour>
        <pt x="469" y="344" on="1"/>
        <pt x="469" y="390" on="0"/>
        <pt x="452" y="471" on="0"/>
        <pt x="424" y="531" on="0"/>
        <pt x="384" y="565" on="0"/>
        <pt x="362" y="565" on="1"/>
        <pt x="341" y="565" on="0"/>
        <pt x="302" y="531" on="0"/>
        <pt x="273" y="471" on="0"/>
        <pt x="256" y="390" on="0"/>
        <pt x="256" y="344" on="1"/>
        <pt x="256" y="283" on="0"/>
        <pt x="273" y="199" on="0"/>
        <pt x="302" y="146" on="0"/>
        <pt x="341" y="123" on="0"/>
        <pt x="362" y="123" on="1"/>
        <pt x="384" y="123" on="0"/>
        <pt x="424" y="146" on="0"/>
        <pt x="452" y="198" on="0"/>
        <pt x="469" y="282" on="0"/>
      </contour>
    </TTGlyph>
    <TTGlyph name="ellipsis" xMin="33" yMin="-37" xMax="877" yMax="201">
      <contour>
        <pt x="270" y="82" on="1"/>
        <pt x="270" y="57" on="0"/>
        <pt x="251" y="14" on="0"/>
        <pt x="219" y="-18" on="0"/>
        <pt x="176" y="-37" on="0"/>
        <pt x="152" y="-37" on="1"/>
        <pt x="127" y="-37" on="0"/>
        <pt x="84" y="-18" on="0"/>
        <pt x="52" y="14" on="0"/>
        <pt x="33" y="57" on="0"/>
        <pt x="33" y="82" on="1"/>
        <pt x="33" y="106" on="0"/>
        <pt x="52" y="150" on="0"/>
        <pt x="84" y="182" on="0"/>
        <pt x="127" y="201" on="0"/>
        <pt x="152" y="201" on="1"/>
        <pt x="176" y="201" on="0"/>
        <pt x="219" y="182" on="0"/>
        <pt x="251" y="150" on="0"/>
        <pt x="270" y="106" on="0"/>
      </contour>
      <contour>
        <pt x="573" y="82" on="1"/>
        <pt x="573" y="57" on="0"/>
        <pt x="554" y="14" on="0"/>
        <pt x="522" y="-18" on="0"/>
        <pt x="479" y="-37" on="0"/>
        <pt x="455" y="-37" on="1"/>
        <pt x="430" y="-37" on="0"/>
        <pt x="387" y="-18" on="0"/>
        <pt x="355" y="14" on="0"/>
        <pt x="336" y="57" on="0"/>
        <pt x="336" y="82" on="1"/>
        <pt x="336" y="106" on="0"/>
        <pt x="355" y="150" on="0"/>
        <pt x="387" y="182" on="0"/>
        <pt x="430" y="201" on="0"/>
        <pt x="455" y="201" on="1"/>
        <pt x="479" y="201" on="0"/>
        <pt x="522" y="182" on="0"/>
        <pt x="554" y="150" on="0"/>
        <pt x="573" y="106" on="0"/>
      </contour>
      <contour>
        <pt x="877" y="82" on="1"/>
        <pt x="877" y="57" on="0"/>
        <pt x="858" y="14" on="0"/>
        <pt x="826" y="-18" on="0"/>
        <pt x="782" y="-37" on="0"/>
        <pt x="758" y="-37" on="1"/>
        <pt x="733" y="-37" on="0"/>
        <pt x="690" y="-18" on="0"/>
        <pt x="658" y="14" on="0"/>
        <pt x="639" y="57" on="0"/>
        <pt x="639" y="82" on="1"/>
        <pt x="639" y="106" on="0"/>
        <pt x="658" y="150" on="0"/>
        <pt x="690" y="182" on="0"/>
        <pt x="733" y="201" on="0"/>
        <pt x="758" y="201" on="1"/>
        <pt x="782" y="201" on="0"/>
        <pt x="826" y="182" on="0"/>
        <pt x="858" y="150" on="0"/>
        <pt x="877" y="106" on="0"/>
      </contour>
    </TTGlyph>
    <TTGlyph name="emacron" xMin="33" yMin="-25" xMax="629" yMax="1344">
      <component glyphName="e" x="0" y="0" flags="0x204"/>
      <component glyphName="macron" x="100" y="-67" flags="0x4"/>
    </TTGlyph>
    <TTGlyph name="emdash" xMin="57" yMin="594" xMax="1284" yMax="795">
      <contour>
        <pt x="1284" y="780" on="1"/>
        <pt x="1284" y="596" on="1"/>
        <pt x="57" y="594" on="1"/>
        <pt x="57" y="795" on="1"/>
      </contour>
    </TTGlyph>
    <TTGlyph name="endash" xMin="57" yMin="594" xMax="879" yMax="795">
      <contour>
        <pt x="879" y="780" on="1"/>
        <pt x="879" y="596" on="1"/>
        <pt x="57" y="594" on="1"/>
        <pt x="57" y="795" on="1"/>
      </contour>
    </TTGlyph>
    <TTGlyph name="eng" xMin="61" yMin="-420" xMax="731" yMax="1083">
      <contour>
        <pt x="731" y="571" on="1"/>
        <pt x="731" y="515" on="0"/>
        <pt x="730" y="369" on="0"/>
        <pt x="721" y="209" on="0"/>
        <pt x="703" y="41" on="0"/>
        <pt x="670" y="-116" on="0"/>
        <pt x="618" y="-255" on="0"/>
        <pt x="543" y="-360" on="0"/>
        <pt x="442" y="-420" on="0"/>
        <pt x="375" y="-420" on="1"/>
        <pt x="335" y="-420" on="0"/>
        <pt x="273" y="-411" on="0"/>
        <pt x="251" y="-405" on="1"/>
        <pt x="225" y="-398" on="0"/>
        <pt x="205" y="-389" on="1"/>
        <pt x="213" y="-190" on="1"/>
        <pt x="235" y="-195" on="0"/>
        <pt x="261" y="-199" on="1"/>
        <pt x="283" y="-202" on="0"/>
        <pt x="341" y="-207" on="0"/>
        <pt x="373" y="-207" on="1"/>
        <pt x="403" y="-207" on="0"/>
        <pt x="446" y="-151" on="0"/>
        <pt x="477" y="-56" on="0"/>
        <pt x="496" y="70" on="0"/>
        <pt x="506" y="209" on="0"/>
        <pt x="510" y="354" on="0"/>
        <pt x="510" y="420" on="1"/>
        <pt x="510" y="523" on="0"/>
        <pt x="506" y="669" on="0"/>
        <pt x="498" y="768" on="0"/>
        <pt x="484" y="825" on="0"/>
        <pt x="464" y="854" on="0"/>
        <pt x="437" y="862" on="0"/>
        <pt x="420" y="862" on="1"/>
        <pt x="400" y="862" on="0"/>
        <pt x="365" y="848" on="0"/>
        <pt x="335" y="808" on="0"/>
        <pt x="310" y="736" on="0"/>
        <pt x="292" y="618" on="0"/>
        <pt x="283" y="449" on="0"/>
        <pt x="283" y="332" on="1"/>
        <pt x="283" y="290" on="0"/>
        <pt x="283" y="199" on="0"/>
        <pt x="284" y="117" on="0"/>
        <pt x="285" y="54" on="0"/>
        <pt x="287" y="41" on="1"/>
        <pt x="61" y="43" on="1"/>
        <pt x="64" y="134" on="0"/>
        <pt x="67" y="277" on="0"/>
        <pt x="69" y="397" on="0"/>
        <pt x="70" y="502" on="0"/>
        <pt x="70" y="553" on="1"/>
        <pt x="70" y="599" on="0"/>
        <pt x="69" y="696" on="0"/>
        <pt x="68" y="808" on="0"/>
        <pt x="65" y="941" on="0"/>
        <pt x="63" y="1022" on="1"/>
        <pt x="297" y="1028" on="1"/>
        <pt x="293" y="926" on="1"/>
        <pt x="320" y="977" on="0"/>
        <pt x="382" y="1038" on="0"/>
        <pt x="443" y="1072" on="0"/>
        <pt x="501" y="1083" on="0"/>
        <pt x="524" y="1083" on="1"/>
        <pt x="586" y="1083" on="0"/>
        <pt x="666" y="997" on="0"/>
        <pt x="713" y="854" on="0"/>
        <pt x="731" y="670" on="0"/>
      </contour>
    </TTGlyph>
    <TTGlyph name="eogonek" xMin="33" yMin="-354" xMax="629" yMax="1104">
      <contour>
        <pt x="629" y="-260" on="1"/>
        <pt x="581" y="-307" on="0"/>
        <pt x="495" y="-354" on="0"/>
        <pt x="442" y="-354" on="1"/>
        <pt x="412" y="-354" on="0"/>
        <pt x="362" y="-330" on="0"/>
        <pt x="327" y="-290" on="0"/>
        <pt x="307" y="-238" on="0"/>
        <pt x="307" y="-209" on="1"/>
        <pt x="307" y="-177" on="0"/>
        <pt x="338" y="-80" on="0"/>
        <pt x="387" y="-23" on="1"/>
        <pt x="372" y="-23" on="0"/>
        <pt x="345" y="-25" on="0"/>
        <pt x="334" y="-25" on="1"/>
        <pt x="273" y="-25" on="0"/>
        <pt x="181" y="23" on="0"/>
        <pt x="114" y="103" on="0"/>
        <pt x="70" y="208" on="0"/>
        <pt x="44" y="324" on="0"/>
        <pt x="33" y="443" on="0"/>
        <pt x="33" y="496" on="1"/>
        <pt x="33" y="628" on="0"/>
        <pt x="75" y="851" on="0"/>
        <pt x="155" y="1013" on="0"/>
        <pt x="273" y="1104" on="0"/>
        <pt x="348" y="1104" on="1"/>
        <pt x="410" y="1104" on="0"/>
        <pt x="512" y="1042" on="0"/>
        <pt x="584" y="914" on="0"/>
        <pt x="623" y="717" on="0"/>
        <pt x="623" y="582" on="1"/>
        <pt x="623" y="544" on="0"/>
        <pt x="620" y="466" on="0"/>
        <pt x="616" y="424" on="1"/>
        <pt x="262" y="377" on="1"/>
        <pt x="266" y="340" on="0"/>
        <pt x="283" y="274" on="0"/>
        <pt x="312" y="223" on="0"/>
        <pt x="352" y="193" on="0"/>
        <pt x="381" y="193" on="1"/>
        <pt x="435" y="193" on="0"/>
        <pt x="543" y="206" on="0"/>
        <pt x="602" y="215" on="1"/>
        <pt x="629" y="27" on="1"/>
        <pt x="597" y="16" on="0"/>
        <pt x="536" y="-1" on="0"/>
        <pt x="508" y="-6" on="1"/>
        <pt x="494" y="-22" on="0"/>
        <pt x="464" y="-63" on="0"/>
        <pt x="438" y="-109" on="0"/>
        <pt x="422" y="-158" on="0"/>
        <pt x="422" y="-182" on="1"/>
        <pt x="422" y="-199" on="0"/>
        <pt x="443" y="-217" on="0"/>
        <pt x="459" y="-217" on="1"/>
        <pt x="488" y="-217" on="0"/>
        <pt x="530" y="-177" on="0"/>
        <pt x="549" y="-156" on="1"/>
      </contour>
      <contour>
        <pt x="256" y="547" on="1"/>
        <pt x="422" y="578" on="1"/>
        <pt x="422" y="616" on="1"/>
        <pt x="422" y="701" on="0"/>
        <pt x="396" y="794" on="0"/>
        <pt x="381" y="816" on="1"/>
        <pt x="363" y="842" on="0"/>
        <pt x="340" y="846" on="1"/>
        <pt x="311" y="843" on="0"/>
        <pt x="277" y="795" on="0"/>
        <pt x="260" y="720" on="0"/>
        <pt x="256" y="626" on="0"/>
        <pt x="256" y="578" on="1"/>
      </contour>
    </TTGlyph>
    <TTGlyph name="equal" xMin="61" yMin="430" xMax="610" yMax="958">
      <contour>
        <pt x="610" y="616" on="1"/>
        <pt x="610" y="432" on="1"/>
        <pt x="61" y="430" on="1"/>
        <pt x="61" y="631" on="1"/>
      </contour>
      <contour>
        <pt x="610" y="944" on="1"/>
        <pt x="610" y="760" on="1"/>
        <pt x="61" y="760" on="1"/>
        <pt x="61" y="958" on="1"/>
      </contour>
    </TTGlyph>
    <TTGlyph name="eth" xMin="37" yMin="-33" xMax="647" yMax="1536">
      <contour>
        <pt x="555" y="1372" on="1"/>
        <pt x="451" y="1319" on="1"/>
        <pt x="504" y="1240" on="0"/>
        <pt x="578" y="1063" on="0"/>
        <pt x="625" y="873" on="0"/>
        <pt x="647" y="674" on="0"/>
        <pt x="647" y="573" on="1"/>
        <pt x="647" y="451" on="0"/>
        <pt x="625" y="267" on="0"/>
        <pt x="584" y="132" on="0"/>
        <pt x="527" y="43" on="0"/>
        <pt x="458" y="-11" on="0"/>
        <pt x="378" y="-33" on="0"/>
        <pt x="336" y="-33" on="1"/>
        <pt x="294" y="-33" on="0"/>
        <pt x="217" y="-15" on="0"/>
        <pt x="151" y="33" on="0"/>
        <pt x="96" y="115" on="0"/>
        <pt x="58" y="243" on="0"/>
        <pt x="37" y="421" on="0"/>
        <pt x="37" y="541" on="1"/>
        <pt x="37" y="721" on="0"/>
        <pt x="90" y="951" on="0"/>
        <pt x="176" y="1084" on="0"/>
        <pt x="286" y="1135" on="0"/>
        <pt x="344" y="1135" on="1"/>
        <pt x="333" y="1159" on="0"/>
        <pt x="303" y="1211" on="0"/>
        <pt x="285" y="1237" on="1"/>
        <pt x="135" y="1161" on="1"/>
        <pt x="86" y="1309" on="1"/>
        <pt x="182" y="1352" on="1"/>
        <pt x="165" y="1367" on="0"/>
        <pt x="129" y="1400" on="0"/>
        <pt x="109" y="1415" on="1"/>
        <pt x="219" y="1536" on="1"/>
        <pt x="238" y="1527" on="0"/>
        <pt x="260" y="1513" on="1"/>
        <pt x="279" y="1501" on="0"/>
        <pt x="329" y="1462" on="0"/>
        <pt x="358" y="1434" on="1"/>
        <pt x="512" y="1505" on="1"/>
      </contour>
      <contour>
        <pt x="432" y="565" on="1"/>
        <pt x="432" y="661" on="0"/>
        <pt x="418" y="784" on="0"/>
        <pt x="394" y="856" on="0"/>
        <pt x="360" y="883" on="0"/>
        <pt x="340" y="883" on="1"/>
        <pt x="317" y="883" on="0"/>
        <pt x="283" y="844" on="0"/>
        <pt x="260" y="758" on="0"/>
        <pt x="248" y="623" on="0"/>
        <pt x="248" y="526" on="1"/>
        <pt x="248" y="428" on="0"/>
        <pt x="263" y="299" on="0"/>
        <pt x="290" y="222" on="0"/>
        <pt x="327" y="190" on="0"/>
        <pt x="348" y="190" on="1"/>
        <pt x="392" y="190" on="0"/>
        <pt x="432" y="372" on="0"/>
      </contour>
    </TTGlyph>
</ttFont>
